<?xml version="1.0" encoding="UTF-8"?>
<svg style="" role="img" version="1.1" viewBox="0 0 680 530" xmlns="http://www.w3.org/2000/svg" xmlns:xlink="http://www.w3.org/1999/xlink"><defs><linearGradient id="i" x1=".08" x2=".9" y2="1"><stop stop-color="#FFFDEE" offset="0"/><stop stop-color="#FFE99C" offset=".12"/><stop stop-color="#F8CB3C" offset=".34"/><stop stop-color="#DDA018" offset=".58"/><stop stop-color="#A97207" offset=".78"/><stop stop-color="#8B5C04" offset=".92"/><stop stop-color="#F5CD5E" offset="1"/></linearGradient><linearGradient id="c" x1=".05" y2=".6"><stop stop-color="#FFF9DC" offset="0"/><stop stop-color="#EFC134" offset=".27"/><stop stop-color="#FFF3C2" offset=".52"/><stop stop-color="#C68C0C" offset=".78"/><stop stop-color="#96650A" offset="1"/></linearGradient><radialGradient id="h" cx=".42" cy=".84" r=".95"><stop stop-color="#B57C12" offset="0"/><stop stop-color="#704906" offset=".42"/><stop stop-color="#2E1D01" offset="1"/></radialGradient><linearGradient id="f" x1="431.24" x2="530.74" y1="144.08" y2="214.31" gradientTransform="scale(.9148 1.0931)" gradientUnits="userSpaceOnUse"><stop stop-color="#F7DE8E" offset="0"/><stop stop-color="#DCAC28" offset=".38"/><stop stop-color="#8A5A04" offset="1"/></linearGradient><linearGradient id="k" x1="207.67" x2="296.99" y1="113.79" y2="167.38" gradientTransform="matrix(.88556 0 0 1.1292 -118.78 28.297)" gradientUnits="userSpaceOnUse"><stop stop-color="#FFF2C6" offset="0"/><stop stop-color="#E5B62E" offset=".5"/><stop stop-color="#9A6606" offset="1"/></linearGradient><linearGradient id="a"><stop stop-color="#FFF2BE" offset="0"/><stop stop-color="#F0C238" offset=".32"/><stop stop-color="#9E6A05" offset=".72"/><stop stop-color="#E8C060" offset="1"/></linearGradient><linearGradient id="j" x1=".1" x2=".7" y2="1"><stop stop-color="#fff" stop-opacity=".85" offset="0"/><stop stop-color="#fff" stop-opacity=".28" offset=".55"/><stop stop-color="#fff" stop-opacity="0" offset="1"/></linearGradient><linearGradient id="b" x2=".7" y2="1"><stop stop-color="#8A929F" offset="0"/><stop stop-color="#5C636F" offset=".55"/><stop stop-color="#454A55" offset="1"/></linearGradient><linearGradient id="g" x2=".3" y2="1"><stop stop-color="#565D68" offset="0"/><stop stop-color="#373C45" offset=".6"/><stop stop-color="#282C33" offset="1"/></linearGradient><linearGradient id="d" x2=".4" y2="1"><stop stop-color="#333841" offset="0"/><stop stop-color="#212429" offset=".7"/><stop stop-color="#15171B" offset="1"/></linearGradient><linearGradient id="e" x2=".8" y2="1"><stop stop-color="#FFEEB4" offset="0"/><stop stop-color="#E2B23A" offset=".51"/><stop stop-color="#9E6E0A" offset="1"/></linearGradient><linearGradient id="l" x1="296.04" x2="329.14" y1="339.36" y2="339.36" gradientTransform="matrix(1.0877 0 0 .91939 -.16452 3.1258)" gradientUnits="userSpaceOnUse" xlink:href="#a"/></defs><path d="m232 388 108-48 108 48-108 48z" color="rgb(11, 11, 11)" dominant-baseline="auto" fill="url(#b)"/><path d="m232 388 108 48v42l-108-48z" color="rgb(11, 11, 11)" dominant-baseline="auto" fill="url(#g)"/><path d="m340 436 108-48v42l-108 48z" color="rgb(11, 11, 11)" dominant-baseline="auto" fill="url(#d)"/><g fill="#fff"><path d="m232 388 108-48 4 2-107 47z" color="rgb(11, 11, 11)" dominant-baseline="auto" opacity=".3"/><path d="m340 436-108-48v6l108 48z" color="rgb(11, 11, 11)" dominant-baseline="auto" opacity=".18"/><path d="m340 436 108-48v6l-108 48z" color="rgb(11, 11, 11)" dominant-baseline="auto" opacity=".07"/></g><path d="m256 411 60 26v18l-60-26z" color="rgb(11, 11, 11)" dominant-baseline="auto" fill="url(#e)"/><path d="m256 411 60 26v4l-60-26z" color="rgb(11, 11, 11)" dominant-baseline="auto" fill="#fff6d2" opacity=".6"/><path d="m232 424 108 48v6l-108-48z" color="rgb(11, 11, 11)" dominant-baseline="auto" opacity=".25"/><path d="m340 472 108-48v6l-108 48z" color="rgb(11, 11, 11)" dominant-baseline="auto" opacity=".3"/><ellipse cx="340" cy="392" rx="24" ry="10" color="rgb(11, 11, 11)" dominant-baseline="auto" fill="#20232a" opacity=".55"/><g fill="url(#a)"><path d="m327 352h26l6 39h-38z" color="rgb(11, 11, 11)" dominant-baseline="auto"/><ellipse cx="340" cy="391" rx="19" ry="8" color="rgb(11, 11, 11)" dominant-baseline="auto"/><ellipse cx="340" cy="345" rx="27" ry="14" color="rgb(11, 11, 11)" dominant-baseline="auto"/></g><path d="m321.84 315.13h36l-5 25c-7.9716 7.6458-16.713 6.8218-26 0z" color="#0b0b0b" dominant-baseline="auto" fill="url(#l)"/><ellipse cx="340" cy="310" rx="30" ry="13" color="rgb(11, 11, 11)" dominant-baseline="auto" fill="url(#a)"/><g transform="matrix(.99122 .37225 -.13226 .95919 164.02 -67.085)" fill="none" stroke-linecap="round"><path d="m131.22 165.3c-48-10-71 30-53 66 10 19 35 24 59 15" color="#0b0b0b" dominant-baseline="auto" stroke="#7a5104" stroke-width="19px"/><path d="m131.22 165.3c-48-10-71 30-53 66 10 19 35 24 59 15" color="#0b0b0b" dominant-baseline="auto" stroke="url(#k)" stroke-width="14px"/><path d="m130.22 170.3c-39-6-58 26-48 53" color="#0b0b0b" dominant-baseline="auto" opacity=".6" stroke="#fff6d4" stroke-width="3.5px"/></g><path d="m244 152c4 94 40 154 96 166 56-12 92-72 96-166z" color="rgb(11, 11, 11)" dominant-baseline="auto" fill="url(#i)"/><path d="m262 192c6 54 30 100 62 118-24-24-42-68-46-116z" color="rgb(11, 11, 11)" dominant-baseline="auto" fill="#fff" opacity=".4"/><path d="m414 198c-6 48-26 90-56 110 36-14 62-58 70-110z" color="rgb(11, 11, 11)" dominant-baseline="auto" fill="#6b4603" opacity=".3"/><path d="m252 174c10 48 44 80 88 86 44-6 78-38 88-86-46 28-130 28-176 0z" color="rgb(11, 11, 11)" dominant-baseline="auto" fill="url(#j)"/><ellipse cx="340" cy="152" rx="96" ry="44" color="rgb(11, 11, 11)" dominant-baseline="auto" fill="url(#c)"/><ellipse cx="340" cy="156" rx="82" ry="35" color="rgb(11, 11, 11)" dominant-baseline="auto" fill="url(#h)"/><path d="m266 164c16 18 40 26 74 26s58-8 74-26c-14 14-40 20-74 20s-58-6-74-20z" color="rgb(11, 11, 11)" dominant-baseline="auto" fill="#e8ae2e" opacity=".5"/><path d="m250 137c18-20 56-30 108-28-48 9-72 18-101 38z" color="rgb(11, 11, 11)" dominant-baseline="auto" fill="#fff" opacity=".65"/><g transform="matrix(.87962 0 0 .87962 51.795 39.27)" fill="none" stroke-linecap="round"><path d="m430 167c56 5 78 59 50 95-16 22-52 16-76-4" color="#0b0b0b" dominant-baseline="auto" stroke="#7a5104" stroke-width="24px"/><path d="m430 167c56 5 78 59 50 95-16 22-52 16-76-4" color="#0b0b0b" dominant-baseline="auto" stroke="url(#f)" stroke-width="19px"/><path d="m432 171c44 7 64 47 50 77" color="#0b0b0b" dominant-baseline="auto" opacity=".4" stroke="#ffe9a6" stroke-width="3.5px"/></g></svg>
