<?xml version="1.0" encoding="UTF-8"?>
<svg role="img" version="1.1" viewBox="0 0 680 560" xmlns="http://www.w3.org/2000/svg"><defs><linearGradient id="d" x1=".15" x2=".55" y2="1"><stop stop-color="#fff" offset="0"/><stop stop-color="#F2F3F5" offset=".1"/><stop stop-color="#DCDEE2" offset=".32"/><stop stop-color="#BCC0C7" offset=".58"/><stop stop-color="#969BA3" offset=".82"/><stop stop-color="#D9DCE0" offset="1"/></linearGradient><linearGradient id="c" x1=".2" x2=".7" y2="1"><stop stop-color="#A9AEB6" offset="0"/><stop stop-color="#878C94" offset=".55"/><stop stop-color="#5F646C" offset="1"/></linearGradient><linearGradient id="h" x1=".2" x2=".6" y2="1"><stop stop-color="#2E3138" offset="0"/><stop stop-color="#4A4E56" offset=".5"/><stop stop-color="#23262B" offset="1"/></linearGradient><linearGradient id="j" x1=".1" x2=".45" y2="1"><stop stop-color="#3B3BD8" offset="0"/><stop stop-color="#2323BE" offset=".35"/><stop stop-color="#15159C" offset=".68"/><stop stop-color="#0C0C74" offset="1"/></linearGradient><linearGradient id="b" x1=".85" x2=".1" y2=".95"><stop stop-color="#fff" stop-opacity=".92" offset="0"/><stop stop-color="#CFE0FF" stop-opacity=".55" offset=".38"/><stop stop-color="#6E8BFF" stop-opacity="0" offset="1"/></linearGradient><linearGradient id="a" x2=".8" y1=".1" y2="1"><stop stop-color="#DCE8FF" stop-opacity=".5" offset="0"/><stop stop-color="#8FA8FF" stop-opacity=".12" offset=".6"/><stop stop-color="#5C79FF" stop-opacity="0" offset="1"/></linearGradient><linearGradient id="m"><stop stop-color="#4E4EFF" stop-opacity="0" offset="0"/><stop stop-color="#5A5AFF" stop-opacity=".55" offset=".35"/><stop stop-color="#3F3FE8" stop-opacity=".18" offset="1"/></linearGradient><linearGradient id="f" x1=".1" x2=".6" y2="1"><stop stop-color="#fff" stop-opacity=".3" offset="0"/><stop stop-color="#fff" stop-opacity=".06" offset=".55"/><stop stop-color="#fff" stop-opacity="0" offset="1"/></linearGradient><linearGradient id="k" x1="247.6" x2="475.6" y1="418.9" y2="508.9" gradientUnits="userSpaceOnUse"><stop stop-color="#FBFBFC" offset="0"/><stop stop-color="#E6E8EB" offset=".22"/><stop stop-color="#C4C8CE" offset=".55"/><stop stop-color="#9EA3AB" offset=".82"/><stop stop-color="#CDD1D6" offset="1"/></linearGradient><radialGradient id="i"><stop stop-color="#DFFFD8" offset="0"/><stop stop-color="#4CE23C" offset=".35"/><stop stop-color="#17A00C" offset="1"/></radialGradient><radialGradient id="l" cx=".35" cy=".3" r=".8"><stop stop-color="#FDFDFE" offset="0"/><stop stop-color="#D3D6DB" offset=".55"/><stop stop-color="#8B9099" offset="1"/></radialGradient><radialGradient id="e" cx="235.46" cy="854.17" r="102.06" gradientTransform="scale(1.6461 .60749)" gradientUnits="userSpaceOnUse"><stop stop-opacity=".34" offset="0"/><stop stop-opacity=".12" offset=".6"/><stop stop-opacity="0" offset="1"/></radialGradient><clipPath id="g"><path d="m148 114h424q4 0 4 4v248q0 4-4 4h-424q-4 0-4-4v-248q0-4 4-4z"/></clipPath></defs><g transform="translate(340 280) scale(.8699) translate(-340 -280)"><g transform="translate(-25.976 -7.4218)"><ellipse cx="387.6" cy="518.9" rx="168" ry="62" fill="url(#e)"/><ellipse cx="361.6" cy="517.9" rx="114" ry="50" fill="#7c818a"/><ellipse cx="361.6" cy="513.9" rx="114" ry="50" fill="#a6abb3"/><path d="m331.6 418.9c-7.3333 15-18 30-32 45s-44.563 20.379-52 45c0 27.614 51.04 50 114 50s114-22.386 114-50c-2.2974-13.923-19.833-15-28.5-22.5-8.6667-7.5-16.5-15-23.5-22.5s-13.167-15-18.5-22.5c-5.3333-7.5-9.8333-15-13.5-22.5z" fill="url(#k)"/><path d="m331.6 418.9c-13.347 22.981-26.639 45.757-40.938 53.774-10.468 5.8691-17.652 8.8796-24.01 13.446s-16.481 9.2669-19.052 22.78c-3.3243 26.996 51.04 50 114 50s114-22.386 114-50c-4.648-15.536-19.833-15-28.5-22.5-8.6667-7.5-16.5-15-23.5-22.5s-13.167-15-18.5-22.5c-5.3333-7.5-9.8333-15-13.5-22.5z" fill="none" stroke="#6f747c" stroke-opacity=".45" stroke-width="1.3"/></g><g transform="translate(31.08 -13.8)"><path transform="matrix(.914 .406 0 1 -4 -141)" d="m134 90h452c9.3333 0 14 4.6667 14 14v312c0 9.3333-34.695 39.578-39.375 39.301l-426.62-25.301c-9.1012-0.53974-12.998-5.1187-14-14l-32.656-289.34c-0.92637-8.2078 37.323-36.661 46.656-36.661z" fill="url(#c)"/></g><g transform="translate(15.54 -6.9)"><path transform="matrix(.914 .406 0 1 -4 -141)" d="m134 90h452c9.3333 0 14 4.6667 14 14v312c0 9.3333-18.404 27.854-27.618 27.569l-438.38-13.569c-9.2139-0.2852-13.502-4.8802-14-14l-16.508-302.02c-0.49847-9.1198 21.174-23.982 30.508-23.982z" fill="#9da2aa"/></g><g transform="matrix(.914 .406 0 1 -4 -141)"><path d="m134 90h452q14 0 14 14v312q0 14-14 14h-452q-14 0-14-14v-312q0-14 14-14z" fill="url(#d)" stroke="#6B7078" stroke-width="1.6"/><path d="m124 390v-286q0-10 12-10h434" fill="none" stroke="#fff" stroke-linecap="round" stroke-opacity=".85" stroke-width="2.4"/><path d="m137 107h446v270h-446z" fill="url(#h)"/><path d="m148 114h424q4 0 4 4v248q0 4-4 4h-424q-4 0-4-4v-248q0-4 4-4z" fill="url(#j)"/><g clip-path="url(#g)"><rect x="144" y="210" width="432" height="52" fill="url(#m)"/><path d="m426 114h150v256h-314z" fill="url(#b)"/><path d="m144 172 126 198h-126z" fill="url(#a)"/><path d="m144 114h432v96l-432 54z" fill="url(#f)"/></g><path d="m148 114h424q4 0 4 4v248q0 4-4 4h-424q-4 0-4-4v-248q0-4 4-4z" fill="none" stroke="#0A0A52" stroke-opacity=".6" stroke-width="2"/><ellipse cx="176" cy="400" rx="12" ry="12" fill="#7CE86E" opacity=".22"/><circle cx="176" cy="400" r="5" fill="url(#i)"/><circle cx="544" cy="400" r="10" fill="url(#l)" stroke="#8E939B" stroke-width="1.2"/><circle cx="541" cy="397" r="3" fill="#fff" opacity=".8"/></g></g></svg>
