<?xml version="1.0" encoding="UTF-8"?>
<svg style="" role="img" version="1.1" viewBox="0 0 680 450" xmlns="http://www.w3.org/2000/svg"><defs><linearGradient id="d" x2=".5" y2="1"><stop stop-color="#FFFFFB" offset="0"/><stop stop-color="#F6F2E6" offset=".55"/><stop stop-color="#E4DDCB" offset="1"/></linearGradient><linearGradient id="a" x1="13.49" x2="13.49" y1="-20.923" y2="20.923" gradientTransform="scale(2.1794 .45883)" gradientUnits="userSpaceOnUse"><stop stop-color="#FFE9A0" offset="0"/><stop stop-color="#FFF2C4" offset=".18"/><stop stop-color="#F2C63C" offset=".5"/><stop stop-color="#C08F16" offset=".82"/><stop stop-color="#9E7008" offset="1"/></linearGradient><linearGradient id="g" x1="-.47056" x2="-.47056" y1="-12.238" y2="12.238" gradientTransform="scale(1.2748 .78447)" gradientUnits="userSpaceOnUse"><stop stop-color="#F6E2BC" offset="0"/><stop stop-color="#D6B584" offset=".55"/><stop stop-color="#A98A5C" offset="1"/></linearGradient><linearGradient id="e" x1="128.9" x2="128.9" y1="-8.8182" y2="8.8182" gradientTransform="scale(.91856 1.0887)" gradientUnits="userSpaceOnUse"><stop stop-color="#F2F6FA" offset="0"/><stop stop-color="#B8C2CC" offset=".45"/><stop stop-color="#6E7A86" offset="1"/></linearGradient><linearGradient id="f" x1="131.4" x2="131.4" y1="-9.6" y2="9.6" gradientUnits="userSpaceOnUse"><stop stop-color="#FFC9C2" offset="0"/><stop stop-color="#E88A80" offset=".55"/><stop stop-color="#B4564C" offset="1"/></linearGradient><linearGradient id="c" x1="120.11" x2="167.31" y1="539.52" y2="350.69" gradientTransform="scale(1.4987 .66726)" gradientUnits="userSpaceOnUse"><stop stop-color="#fff" stop-opacity=".42" offset="0"/><stop stop-color="#fff" stop-opacity="0" offset="1"/></linearGradient><radialGradient id="b"><stop stop-opacity=".24" offset="0"/><stop stop-opacity=".1" offset=".62"/><stop stop-opacity="0" offset="1"/></radialGradient></defs><g transform="translate(335,285) scale(1.25) translate(-335,-285)" color="rgb(11, 11, 11)" dominant-baseline="auto"><g><g transform="matrix(-.914 -.406 .914 -.406 340 372)" color="rgb(11, 11, 11)" dominant-baseline="auto"><ellipse cx="88" cy="66" rx="150" ry="96" color="rgb(11, 11, 11)" dominant-baseline="auto" fill="url(#b)"/></g><g transform="translate(4.6,-2)" color="rgb(11, 11, 11)" dominant-baseline="auto"><g transform="matrix(-.914 -.406 .914 -.406 340 365)" color="rgb(11, 11, 11)" dominant-baseline="auto"><rect width="175" height="135" color="rgb(11, 11, 11)" dominant-baseline="auto" fill="#c4bca6"/></g></g><g transform="matrix(-.914 -.406 .914 -.406 340 360)" color="rgb(11, 11, 11)" dominant-baseline="auto"><rect width="175" height="135" color="rgb(11, 11, 11)" dominant-baseline="auto" fill="url(#d)" stroke="#c9c1aa" stroke-width="1.5px"/><rect x="14" y="15" width="14" height="70" color="rgb(11, 11, 11)" dominant-baseline="auto" fill="#6e7a86"/><rect x="42" y="12" width="26" height="112" color="rgb(11, 11, 11)" dominant-baseline="auto" fill="#ffe9a8" stroke="#e2c070" stroke-width="1.5px"/><rect x="48" y="22" width="12" height="70" color="rgb(11, 11, 11)" dominant-baseline="auto" fill="#8a6a2a"/><rect x="50" y="98" width="14" height="4" color="rgb(11, 11, 11)" dominant-baseline="auto" fill="#3a2e14"/><g fill="#aeb6be"><rect x="84" y="15" width="5" height="105" color="rgb(11, 11, 11)" dominant-baseline="auto"/><rect x="100" y="15" width="5" height="105" color="rgb(11, 11, 11)" dominant-baseline="auto"/><rect x="116" y="15" width="5" height="80" color="rgb(11, 11, 11)" dominant-baseline="auto"/><rect x="132" y="15" width="5" height="105" color="rgb(11, 11, 11)" dominant-baseline="auto"/><rect x="148" y="15" width="5" height="105" color="rgb(11, 11, 11)" dominant-baseline="auto"/><rect x="162" y="15" width="5" height="90" color="rgb(11, 11, 11)" dominant-baseline="auto"/></g></g></g><polygon transform="translate(-.97826 -.48913)" points="180 289 303 234 463 305 340 360" color="#0b0b0b" dominant-baseline="auto" fill="url(#c)"/><g transform="rotate(-33 693.69 -460.42)" color="#0b0b0b" dominant-baseline="auto"><polygon transform="rotate(.28973 19.111 -1.8303)" points="30 -9 30 9 0 0" color="#0b0b0b" dominant-baseline="auto" fill="url(#g)" stroke="#8a6206" stroke-linejoin="round" stroke-width="1.2px"/><polygon transform="rotate(.16366 29.069 129.78)" points="13 -3.9 13 3.9 0 0" color="#0b0b0b" dominant-baseline="auto" fill="#3e4248"/><rect x="132" y="-9" width="18" height="18" rx="6" color="#0b0b0b" dominant-baseline="auto" fill="url(#f)" stroke="#9e4a42" stroke-width="1.2px"/><rect x="30.002" y="-8.8574" width="89.998" height="17.857" color="#0b0b0b" dominant-baseline="auto" fill="url(#a)" stroke="#8a6206" stroke-width="1.2px"/><rect x="30.603" y="-8.4069" width="87.8" height="2.7268" color="#0b0b0b" dominant-baseline="auto" fill="#fff6d8" opacity=".7"/><rect x="30.578" y="5.4379" width="87.813" height="2.9593" color="#0b0b0b" dominant-baseline="auto" fill="#b5850e" opacity=".8"/><g><rect x="119" y="-9" width="15" height="18" color="#0b0b0b" dominant-baseline="auto" fill="url(#e)" stroke="#5a6470" stroke-width="1.2px"/><line x1="123" x2="123" y1="-8.4246" y2="8.4246" color="#0b0b0b" dominant-baseline="auto" opacity=".6" stroke="#6e7a86" stroke-width=".93606px"/><line x1="130" x2="130" y1="-8.4076" y2="8.425" color="#0b0b0b" dominant-baseline="auto" opacity=".6" stroke="#6e7a86" stroke-width=".93514px"/></g><ellipse cx="70" cy="-4" rx="30" ry="2" color="#0b0b0b" dominant-baseline="auto" fill="#fff" opacity=".45"/></g></g></svg>
