<?xml version="1.0" encoding="UTF-8"?>
<svg style="" role="img" version="1.1" viewBox="0 0 680 450" xmlns="http://www.w3.org/2000/svg"><defs><linearGradient id="c" x2=".5" y2="1"><stop stop-color="#FFFEF8" offset="0"/><stop stop-color="#F5F1E3" offset=".55"/><stop stop-color="#E2DAC4" offset="1"/></linearGradient><linearGradient id="e" x2=".75" y1="1"><stop stop-color="#FFFAE2" offset="0"/><stop stop-color="#FFE58C" offset=".21"/><stop stop-color="#F6C93A" offset=".52"/><stop stop-color="#C88C0E" offset=".8"/><stop stop-color="#F0D06A" offset="1"/></linearGradient><linearGradient id="b" x2=".25" y1="1"><stop stop-color="#fff" stop-opacity=".4" offset="0"/><stop stop-color="#fff" stop-opacity="0" offset="1"/></linearGradient><radialGradient id="a"><stop stop-opacity=".24" offset="0"/><stop stop-opacity=".1" offset=".62"/><stop stop-opacity="0" offset="1"/></radialGradient><clipPath id="d"><rect width="180" height="140"/></clipPath></defs><g transform="translate(330,250) scale(1.35) translate(-330,-250)" color="rgb(11, 11, 11)" dominant-baseline="auto"><g transform="matrix(-.914 -.406 .914 -.406 412 362)" color="rgb(11, 11, 11)" dominant-baseline="auto"><ellipse cx="90" cy="20" rx="120" ry="70" color="rgb(11, 11, 11)" dominant-baseline="auto" fill="url(#a)"/></g><g transform="translate(4.6,-2)" color="rgb(11, 11, 11)" dominant-baseline="auto"><g transform="matrix(-.914 -.406 0 -1 412 356)" color="rgb(11, 11, 11)" dominant-baseline="auto"><rect width="180" height="140" color="rgb(11, 11, 11)" dominant-baseline="auto" fill="#c4bca6"/></g></g><g transform="matrix(-.914 -.406 0 -1 412 356)" color="rgb(11, 11, 11)" dominant-baseline="auto"><g><rect width="180" height="140" color="rgb(11, 11, 11)" dominant-baseline="auto" fill="url(#c)" stroke="#c9c1aa" stroke-width="1.5px"/><g color="rgb(11, 11, 11)" dominant-baseline="auto" opacity=".85" stroke="#a9c6de" stroke-width="1.1px"><line x1="20" x2="20" y2="140" color="rgb(11, 11, 11)" dominant-baseline="auto" opacity="1"/><line x1="40" x2="40" y2="140" color="rgb(11, 11, 11)" dominant-baseline="auto" opacity="1"/><line x1="60" x2="60" y2="140" color="rgb(11, 11, 11)" dominant-baseline="auto" opacity="1"/><line x1="80" x2="80" y2="140" color="rgb(11, 11, 11)" dominant-baseline="auto" opacity="1"/><line x1="100" x2="100" y2="140" color="rgb(11, 11, 11)" dominant-baseline="auto" opacity="1"/><line x1="120" x2="120" y2="140" color="rgb(11, 11, 11)" dominant-baseline="auto" opacity="1"/><line x1="140" x2="140" y2="140" color="rgb(11, 11, 11)" dominant-baseline="auto" opacity="1"/><line x1="160" x2="160" y2="140" color="rgb(11, 11, 11)" dominant-baseline="auto" opacity="1"/><line x2="180" y1="20" y2="20" color="rgb(11, 11, 11)" dominant-baseline="auto" opacity="1"/><line x2="180" y1="40" y2="40" color="rgb(11, 11, 11)" dominant-baseline="auto" opacity="1"/><line x2="180" y1="60" y2="60" color="rgb(11, 11, 11)" dominant-baseline="auto" opacity="1"/><line x2="180" y1="80" y2="80" color="rgb(11, 11, 11)" dominant-baseline="auto" opacity="1"/><line x2="180" y1="100" y2="100" color="rgb(11, 11, 11)" dominant-baseline="auto" opacity="1"/><line x2="180" y1="120" y2="120" color="rgb(11, 11, 11)" dominant-baseline="auto" opacity="1"/></g><g color="rgb(11, 11, 11)" dominant-baseline="auto" stroke="#4e6e86" stroke-linecap="round" stroke-width="2.5px"><line x1="160" x2="20" y1="20" y2="20" color="rgb(11, 11, 11)" dominant-baseline="auto"/><line x1="160" x2="160" y1="20" y2="125" color="rgb(11, 11, 11)" dominant-baseline="auto"/></g></g><polyline points="150 32 122 52 98 44 74 78 50 96 26 124" color="rgb(11, 11, 11)" dominant-baseline="auto" fill="none" stroke="#c0392b" stroke-linecap="round" stroke-linejoin="round" stroke-width="4px"/><g fill="#c0392b" stroke="#fff6ec" stroke-width="1.5px"><circle cx="122" cy="52" r="4" color="rgb(11, 11, 11)" dominant-baseline="auto"/><circle cx="98" cy="44" r="4" color="rgb(11, 11, 11)" dominant-baseline="auto"/><circle cx="74" cy="78" r="4" color="rgb(11, 11, 11)" dominant-baseline="auto"/><circle cx="50" cy="96" r="4" color="rgb(11, 11, 11)" dominant-baseline="auto"/></g><path d="m180 140v-70l-180-58v34z" color="rgb(11, 11, 11)" dominant-baseline="auto" fill="url(#b)"/><g clip-path="url(#d)" color="rgb(11, 11, 11)" dominant-baseline="auto"><polygon transform="translate(19.3,-27.2)" points="2.3 126.2 18.3 138.2 -18.5 186.8 -7.4 195.3 -47 207.9 -45.6 166.3 -34.5 174.8" color="rgb(11, 11, 11)" dominant-baseline="auto" fill="#3a2e14" opacity=".2"/></g></g><g transform="translate(11,-4.9)" color="rgb(11, 11, 11)" dominant-baseline="auto"><g transform="matrix(-.914 -.406 0 -1 386.4 367.4)" color="rgb(11, 11, 11)" dominant-baseline="auto"><polygon points="2.3 126.2 18.3 138.2 -18.5 186.8 -7.4 195.3 -47 207.9 -45.6 166.3 -34.5 174.8" color="rgb(11, 11, 11)" dominant-baseline="auto" fill="#8a5c05"/></g></g><g transform="matrix(-.914 -.406 0 -1 386.4 367.4)" color="rgb(11, 11, 11)" dominant-baseline="auto"><polygon points="2.3 126.2 18.3 138.2 -18.5 186.8 -7.4 195.3 -47 207.9 -45.6 166.3 -34.5 174.8" color="rgb(11, 11, 11)" dominant-baseline="auto" fill="url(#e)" stroke="#8a5c05" stroke-linejoin="round" stroke-width="2px"/><polygon points="2.3 126.2 7.3 121.2 -29.5 169.8 -34.5 174.8" color="rgb(11, 11, 11)" dominant-baseline="auto" fill="#fff" opacity=".45"/><polygon points="-45.6 166.3 -34.5 174.8 -40 190 -47 207.9" color="rgb(11, 11, 11)" dominant-baseline="auto" fill="#fff" opacity=".18"/></g></g></svg>
