<?xml version="1.0" encoding="UTF-8"?>
<svg style="" role="img" version="1.1" viewBox="0 0 680 510" xmlns="http://www.w3.org/2000/svg"><defs><linearGradient id="g" x2=".45" y2="1"><stop stop-color="#D6A268" offset="0"/><stop stop-color="#B47C42" offset=".3"/><stop stop-color="#8A5628" offset=".7"/><stop stop-color="#6E4320" offset="1"/></linearGradient><linearGradient id="e" x2=".5" y2="1"><stop stop-color="#8A5A2E" offset="0"/><stop stop-color="#5C381A" offset=".55"/><stop stop-color="#3E2410" offset="1"/></linearGradient><linearGradient id="d" x2=".6" y2="1"><stop stop-color="#E2B584" offset="0"/><stop stop-color="#C08A50" offset=".45"/><stop stop-color="#96602C" offset="1"/></linearGradient><linearGradient id="k" x2=".35" y2="1"><stop stop-color="#633D1D" offset="0"/><stop stop-color="#37200D" offset="1"/></linearGradient><linearGradient id="h" x2=".4" y2="1"><stop stop-color="#6E4720" offset="0"/><stop stop-color="#452811" offset="1"/></linearGradient><linearGradient id="f" x2=".6" y2="1"><stop stop-color="#5A3618" offset="0"/><stop stop-color="#331D0A" offset="1"/></linearGradient><linearGradient id="b" x2=".5" y2="1"><stop stop-color="#9E6832" offset="0"/><stop stop-color="#6E4520" offset="1"/></linearGradient><linearGradient id="c" x2=".4" y2="1"><stop stop-color="#CE9A5C" offset="0"/><stop stop-color="#8E5B2A" offset="1"/></linearGradient><linearGradient id="a" x2=".2" y1="1"><stop stop-color="#fff" stop-opacity=".32" offset="0"/><stop stop-color="#fff" stop-opacity=".02" offset="1"/></linearGradient><linearGradient id="i" x1="-10.111" x2="216.38" y1="-9.8902" y2="-9.8902" gradientTransform="scale(.98902 1.0111)" gradientUnits="userSpaceOnUse"><stop stop-opacity="0" offset="0"/><stop stop-opacity=".34" offset="1"/></linearGradient><clipPath id="j"><polygon points="394 420 207.5 337.2 207.5 128.2 394 211"/></clipPath></defs><g><g transform="matrix(-.914 -.406 .914 -.406 394 193)" color="rgb(11, 11, 11)" dominant-baseline="auto"><rect x="-18" width="240" height="100" color="rgb(11, 11, 11)" dominant-baseline="auto" fill="url(#d)"/><rect x="-18" width="240" height="26" color="rgb(11, 11, 11)" dominant-baseline="auto" fill="#fff" opacity=".12"/></g><g transform="matrix(.914 -.406 0 -1 410.45 427.3)" color="rgb(11, 11, 11)" dominant-baseline="auto"><rect y="-18" width="100" height="245" color="rgb(11, 11, 11)" dominant-baseline="auto" fill="url(#e)"/><polygon points="0 227 100 227 100 150 0 60" color="rgb(11, 11, 11)" dominant-baseline="auto" fill="url(#a)" opacity=".35"/></g><g transform="matrix(-.914 -.406 0 -1 394 420)" color="rgb(11, 11, 11)" dominant-baseline="auto"><rect x="-18" y="-18" width="240" height="245" color="rgb(11, 11, 11)" dominant-baseline="auto" fill="url(#g)"/><polygon points="-18 227 222 227 222 168 -18 108" color="rgb(11, 11, 11)" dominant-baseline="auto" fill="url(#a)"/><rect x="-18" y="-18" width="240" height="14" color="rgb(11, 11, 11)" dominant-baseline="auto" opacity=".18"/></g><g><g clip-path="url(#j)" color="rgb(11, 11, 11)" dominant-baseline="auto" stroke-width="1px"><g><g transform="matrix(-.914 -.406 0 -1 474.4 384.3)" color="rgb(11, 11, 11)" dominant-baseline="auto"><rect x="-20" y="-20" width="250" height="260" color="rgb(11, 11, 11)" dominant-baseline="auto" fill="url(#k)"/></g><g transform="matrix(.914 -.406 0 -1 207.5 337.2)" color="rgb(11, 11, 11)" dominant-baseline="auto"><rect y="-15" width="88" height="245" color="rgb(11, 11, 11)" dominant-baseline="auto" fill="url(#f)"/></g><g transform="matrix(-.914 -.406 .914 -.406 394 420)" color="rgb(11, 11, 11)" dominant-baseline="auto"><rect x="-10" width="224" height="88" color="rgb(11, 11, 11)" dominant-baseline="auto" fill="url(#h)"/></g></g><g data-euclidean-books="bottom"><g data-book="cuboid"><polygon points="231.32 295.9 218.53 290.21 265.14 269.51 277.94 275.19" fill="#6BA1D8" stroke="#3A2412" stroke-linejoin="round" stroke-width="1.05"/><polygon transform="translate(-1.4 -.8)" points="263.95 273.17 272.73 277.07 232.24 295.05 223.46 291.16" fill="#ded2b6" stroke="#75664f" stroke-linejoin="round" stroke-width=".65"/><line x1="262.88" x2="254.1" y1="281.49" y2="277.6" opacity=".65" stroke="#B9AA8D" stroke-width=".55"/><g stroke-linejoin="round"><polygon points="231.32 342.9 277.94 322.19 277.94 275.19 231.32 295.9" fill="#386A9E" stroke="#3A2412" stroke-width="1"/><polygon points="234.27 339.6 274.76 321.62 274.76 278.62 234.27 296.6" fill="#CCC1A7" opacity=".9" stroke="#6E5C43" stroke-width=".55"/><polygon points="231.32 342.9 218.53 337.21 218.53 290.21 231.32 295.9" fill="#4A8CD0" stroke="#3A2412" stroke-width="1.25"/></g><polygon transform="matrix(.8991 0 0 .8991 22.677 33.678)" points="231.32 342.9 218.53 337.21 218.53 335.21 231.32 340.9" fill="#2e5781" opacity=".58"/><polygon transform="matrix(.89875 0 0 .89875 22.785 30.225)" points="218.53 292.21 218.53 290.21 231.32 295.9 231.32 297.9" fill="#7dacdd" opacity=".72"/><polygon transform="matrix(.96857 0 0 .96857 7.1681 9.7933)" points="226.68 296.03 229.5 297.28 229.5 339.88 226.68 338.63" fill="#fff" opacity=".15"/><line x1="231.32" x2="218.53" y1="295.9" y2="290.21" opacity=".9" stroke="#3A2412" stroke-width="1.15"/><polygon points="251.43 298.83 231.32 289.9 284.34 266.35 304.44 275.28" fill="#B8574D" stroke="#3A2412" stroke-linejoin="round" stroke-width="1.05"/><polygon transform="translate(-1 -.8)" points="283.15 270.01 299.23 277.16 252.35 297.99 236.26 290.84" fill="#e4dac2" stroke="#75664f" stroke-linejoin="round" stroke-width=".65"/><line x1="287.59" x2="271.5" y1="282.38" y2="275.23" opacity=".65" stroke="#B9AA8D" stroke-width=".55"/><g stroke-linejoin="round"><polygon points="251.43 351.83 304.44 328.28 304.44 275.28 251.43 298.83" fill="#80261D" stroke="#3A2412" stroke-width="1"/><polygon points="254.38 348.54 301.26 327.71 301.26 278.71 254.38 299.54" fill="#D2C9B2" opacity=".9" stroke="#6E5C43" stroke-width=".55"/><polygon points="251.43 351.83 231.32 342.9 231.32 289.9 251.43 298.83" fill="#A83226" stroke="#3A2412" stroke-width="1.25"/></g><polygon transform="matrix(.93861 0 0 .93861 14.815 20.649)" points="231.32 340.9 251.43 349.83 251.43 351.83 231.32 342.9" fill="#681f18" opacity=".58"/><polygon transform="matrix(.94385 0 0 .94385 13.582 17.136)" points="251.43 298.83 251.43 300.83 231.32 291.9 231.32 289.9" fill="#c06b63" opacity=".72"/><polygon transform="matrix(.96669 0 0 .96669 8.2397 10.699)" points="245.18 298.25 249.6 300.22 249.6 348.82 245.18 346.85" fill="#fff" opacity=".15"/><line x1="251.43" x2="231.32" y1="298.83" y2="289.9" opacity=".9" stroke="#3A2412" stroke-width="1.15"/><polygon points="275.2 305.38 251.43 294.83 309.01 269.25 332.78 279.81" fill="#54A1A1" stroke="#3A2412" stroke-linejoin="round" stroke-width="1.05"/><line x1="314.64" x2="294.9" y1="287.47" y2="278.71" opacity=".65" stroke="#B9AA8D" stroke-width=".55"/><polygon points="275.2 362.38 332.78 336.81 332.78 279.81 275.2 305.38" fill="#236A6A" stroke="#3A2412" stroke-linejoin="round" stroke-width="1"/><polygon points="275.2 362.38 251.43 351.83 251.43 294.83 275.2 305.38" fill="#2E8C8C" stroke="#3A2412" stroke-linejoin="round" stroke-width="1.25"/><polygon transform="matrix(.94906 0 0 .94906 13.392 17.566)" points="275.2 362.38 251.43 351.83 251.43 349.83 275.2 360.38" fill="#1d5757" opacity=".58"/><polygon transform="matrix(.95037 0 0 .95037 13.063 15.514)" points="251.43 296.83 251.43 294.83 275.2 305.38 275.2 307.38" fill="#69acac" opacity=".72"/><polygon transform="matrix(.97319 0 0 .97319 7.2593 8.9207)" points="268.14 304.45 273.37 306.77 273.37 359.37 268.14 357.05" fill="#fff" opacity=".15"/><line x1="275.2" x2="251.43" y1="305.38" y2="294.83" opacity=".9" stroke="#3A2412" stroke-width="1.15"/><polygon points="293.48 321.5 275.2 313.38 324.55 291.46 342.83 299.58" fill="#926EB1" stroke="#3A2412" stroke-linejoin="round" stroke-width="1.05"/><polygon transform="translate(-1.1 -.9)" points="294.39 320.66 280.13 314.33 323.36 295.12 337.62 301.46" fill="#e4dac2" stroke="#75664f" stroke-linejoin="round" stroke-width=".65"/><line x1="327" x2="312.74" y1="306.23" y2="299.89" opacity=".65" stroke="#B9AA8D" stroke-width=".55"/><g stroke-linejoin="round"><polygon points="293.48 370.5 342.83 348.58 342.83 299.58 293.48 321.5" fill="#5D3B7A" stroke="#3A2412" stroke-width="1"/><polygon points="296.42 367.21 339.65 348.01 339.65 303.01 296.42 322.21" fill="#D2C9B2" opacity=".9" stroke="#6E5C43" stroke-width=".55"/><polygon points="293.48 370.5 275.2 362.38 275.2 313.38 293.48 321.5" fill="#7A4EA0" stroke="#3A2412" stroke-width="1.25"/></g><polygon transform="matrix(.92771 0 0 .92771 20.553 25.928)" points="293.48 370.5 275.2 362.38 275.2 360.38 293.48 368.5" fill="#4c3063" opacity=".58"/><polygon transform="matrix(.92608 0 0 .92608 21.029 24.096)" points="293.48 323.5 275.2 315.38 275.2 313.38 293.48 321.5" fill="#9f80bb" opacity=".72"/><polygon transform="matrix(.97227 0 0 .97227 8.0322 9.6705)" points="287.63 321.11 291.65 322.89 291.65 367.49 287.63 365.71" fill="#fff" opacity=".15"/><line x1="293.48" x2="275.2" y1="321.5" y2="313.38" opacity=".9" stroke="#3A2412" stroke-width="1.15"/><polygon points="319.07 326.87 293.48 315.5 350.14 290.33 375.74 301.7" fill="#61A26F" stroke="#3A2412" stroke-linejoin="round" stroke-width="1.05"/><polygon transform="translate(-1.2 -.8)" points="319.98 326.03 298.41 316.45 348.96 294 370.53 303.58" fill="#ded2b6" stroke="#75664f" stroke-linejoin="round" stroke-width=".65"/><line x1="357.86" x2="336.29" y1="309.25" y2="299.67" opacity=".65" stroke="#B9AA8D" stroke-width=".55"/><polygon points="319.07 381.87 375.74 356.7 375.74 301.7 319.07 326.87" fill="#2F6C3C" stroke="#3A2412" stroke-linejoin="round" stroke-width="1"/><polygon points="319.07 381.87 293.48 370.5 293.48 315.5 319.07 326.87" fill="#3E8E4F" stroke="#3A2412" stroke-linejoin="round" stroke-width="1.25"/><polygon transform="matrix(.94976 0 0 .94976 15.384 18.326)" points="319.07 381.87 293.48 370.5 293.48 368.5 319.07 379.87" fill="#265831" opacity=".58"/><polygon transform="matrix(.9555 0 0 .9555 13.612 15.001)" points="319.07 328.87 293.48 317.5 293.48 315.5 319.07 326.87" fill="#74ae80" opacity=".72"/><polygon transform="matrix(.96189 0 0 .96189 11.984 13.518)" points="311.76 325.82 317.24 328.26 317.24 378.86 311.76 376.42" fill="#fff" opacity=".15"/><line x1="319.07" x2="293.48" y1="326.87" y2="315.5" opacity=".9" stroke="#3A2412" stroke-width="1.15"/><polygon points="335.52 337.18 319.07 329.87 371.17 306.73 387.62 314.04" fill="#DDB352" stroke="#3A2412" stroke-linejoin="round" stroke-width="1.05"/><polygon transform="translate(-.9 -.9)" points="369.98 310.39 382.41 315.92 336.43 336.34 324 330.82" fill="#e4dac2" stroke="#75664f" stroke-linejoin="round" stroke-width=".65"/><line x1="371.02" x2="358.59" y1="321.02" y2="315.5" opacity=".65" stroke="#B9AA8D" stroke-width=".55"/><g stroke-linejoin="round"><polygon points="335.52 389.18 387.62 366.04 387.62 314.04 335.52 337.18" fill="#A37B21" stroke="#3A2412" stroke-width="1"/><polygon points="338.46 385.89 384.44 365.47 384.44 317.47 338.46 337.89" fill="#D2C9B2" opacity=".9" stroke="#6E5C43" stroke-width=".55"/><polygon points="335.52 389.18 319.07 381.87 319.07 329.87 335.52 337.18" fill="#D6A22C" stroke="#3A2412" stroke-width="1.25"/></g><polygon transform="matrix(.92775 0 0 .92775 23.647 27.201)" points="335.52 389.18 319.07 381.87 319.07 379.87 335.52 387.18" fill="#85641b" opacity=".58"/><polygon transform="matrix(.92763 0 0 .92763 23.685 24.851)" points="335.52 339.18 319.07 331.87 319.07 329.87 335.52 337.18" fill="#e1bc67" opacity=".72"/><polygon transform="matrix(.96764 0 0 .96764 10.74 11.823)" points="330.07 336.96 333.69 338.57 333.69 386.17 330.07 384.56" fill="#fff" opacity=".15"/><line x1="335.52" x2="319.07" y1="337.18" y2="329.87" opacity=".9" stroke="#3A2412" stroke-width="1.15"/><polygon points="357.46 340.92 335.52 331.18 394.02 305.2 415.95 314.94" fill="#5489C2" stroke="#3A2412" stroke-linejoin="round" stroke-width="1.05"/><polygon points="358.37 340.08 340.46 332.12 392.83 308.86 410.74 316.82" fill="#DED2B6" stroke="#75664F" stroke-linejoin="round" stroke-width=".65"/><line x1="397.56" x2="379.65" y1="322.72" y2="314.76" opacity=".65" stroke="#B9AA8D" stroke-width=".55"/><polygon points="357.46 398.92 415.95 372.94 415.95 314.94 357.46 340.92" fill="#24548A" stroke="#3A2412" stroke-linejoin="round" stroke-width="1"/><polygon points="357.46 398.92 335.52 389.18 335.52 331.18 357.46 340.92" fill="#2F6FB5" stroke="#3A2412" stroke-linejoin="round" stroke-width="1.25"/><polygon transform="matrix(.94655 0 0 .94655 18.435 20.358)" points="357.46 398.92 335.52 389.18 335.52 387.18 357.46 396.92" fill="#1d4570" opacity=".58"/><polygon transform="matrix(.95114 0 0 .95114 16.98 17.015)" points="357.46 342.92 335.52 333.18 335.52 331.18 357.46 340.92" fill="#6997ca" opacity=".72"/><polygon transform="matrix(.97203 0 0 .97203 9.8798 10.381)" points="350.8 340.17 355.63 342.31 355.63 395.91 350.8 393.77" fill="#fff" opacity=".15"/><line x1="357.46" x2="335.52" y1="340.92" y2="331.18" opacity=".9" stroke="#3A2412" stroke-width="1.15"/><polygon points="372.08 355.42 357.46 348.92 407.73 326.59 422.35 333.09" fill="#EADDC5" stroke="#3A2412" stroke-linejoin="round" stroke-width="1.05"/><polygon transform="translate(-1.1 -.9)" points="372.99 354.58 362.39 349.87 406.54 330.26 417.14 334.97" fill="#efe5d0" stroke="#75664f" stroke-linejoin="round" stroke-width=".65"/><line x1="406.26" x2="395.66" y1="339.85" y2="335.14" opacity=".65" stroke="#B9AA8D" stroke-width=".55"/><g stroke-linejoin="round"><polygon points="372.08 405.42 422.35 383.09 422.35 333.09 372.08 355.42" fill="#AFA38C" stroke="#3A2412" stroke-width="1"/><polygon points="375.02 402.13 419.17 382.52 419.17 336.52 375.02 356.13" fill="#DCD3BF" opacity=".9" stroke="#6E5C43" stroke-width=".55"/><polygon points="372.08 405.42 357.46 398.92 357.46 348.92 372.08 355.42" fill="#E6D6B8" stroke="#3A2412" stroke-width="1.25"/></g><polygon transform="matrix(.91694 0 0 .91694 30.273 32.766)" points="372.08 405.42 357.46 398.92 357.46 396.92 372.08 403.42" fill="#8f8572" opacity=".58"/><polygon transform="matrix(.90924 0 0 .90924 33.064 32.484)" points="357.46 350.92 357.46 348.92 372.08 355.42 372.08 357.42" fill="#ede1cc" opacity=".72"/><polygon transform="matrix(.97606 0 0 .97606 8.8262 9.0284)" points="367.03 355.38 370.25 356.81 370.25 402.41 367.03 400.98" fill="#fff" opacity=".15"/><line x1="372.08" x2="357.46" y1="355.42" y2="348.92" opacity=".9" stroke="#3A2412" stroke-width="1.15"/><polygon points="392.19 358.35 372.08 349.42 427.83 324.65 447.94 333.59" fill="#CB5D51" stroke="#3A2412" stroke-linejoin="round" stroke-width="1.05"/><polygon transform="translate(-1.1 -.7)" points="426.65 328.32 442.73 335.46 393.1 357.51 377.02 350.36" fill="#ded2b6" stroke="#75664f" stroke-linejoin="round" stroke-width=".65"/><line x1="430.32" x2="414.23" y1="341.03" y2="333.88" opacity=".65" stroke="#B9AA8D" stroke-width=".55"/><g stroke-linejoin="round"><polygon points="392.19 414.35 447.94 389.59 447.94 333.59 392.19 358.35" fill="#922B21" stroke="#3A2412" stroke-width="1"/><polygon points="395.13 411.06 444.76 389.02 444.76 337.02 395.13 359.06" fill="#CCC1A7" opacity=".9" stroke="#6E5C43" stroke-width=".55"/><polygon points="392.19 414.35 372.08 405.42 372.08 349.42 392.19 358.35" fill="#C0392B" stroke="#3A2412" stroke-width="1.25"/></g><polygon transform="matrix(.94781 0 0 .94781 19.992 20.76)" points="392.19 414.35 372.08 405.42 372.08 403.42 392.19 412.35" fill="#77231b" opacity=".58"/><polygon transform="matrix(.93885 0 0 .93885 23.267 22.167)" points="372.08 351.42 372.08 349.42 392.19 358.35 392.19 360.35" fill="#d27066" opacity=".72"/><polygon transform="matrix(.96119 0 0 .96119 15.062 15.009)" points="385.94 357.77 390.36 359.74 390.36 411.34 385.94 409.37" fill="#fff" opacity=".15"/><line x1="392.19" x2="372.08" y1="358.35" y2="349.42" opacity=".9" stroke="#3A2412" stroke-width="1.15"/></g></g><g transform="matrix(-.914 -.406 .914 -.406 394 347)" color="rgb(11, 11, 11)" dominant-baseline="auto"><rect x="-10" width="224" height="88" color="rgb(11, 11, 11)" dominant-baseline="auto" fill="url(#b)"/></g><g transform="matrix(-.914 -.406 0 -1 394 420)" color="rgb(11, 11, 11)" dominant-baseline="auto"><rect x="-10" y="63" width="224" height="10" color="rgb(11, 11, 11)" dominant-baseline="auto" fill="url(#c)"/></g><g data-euclidean-books="middle"><g data-book="cuboid"><polygon points="238.64 265.14 212.13 253.37 266.97 229.01 293.48 240.78" fill="#B8574D" stroke="#3A2412" stroke-linejoin="round" stroke-width="1.05"/><line x1="276.11" x2="253.63" y1="248.11" y2="238.12" opacity=".65" stroke="#B9AA8D" stroke-width=".55"/><polygon points="238.64 273.14 293.48 248.78 293.48 240.78 238.64 265.14" fill="#80261D" stroke="#3A2412" stroke-linejoin="round" stroke-width="1"/><polygon points="238.64 273.14 212.13 261.37 212.13 253.37 238.64 265.14" fill="#A83226" stroke="#3A2412" stroke-linejoin="round" stroke-width="1.25"/><polygon transform="matrix(.95339 0 0 .95339 10.486 11.75)" points="238.64 273.14 212.13 261.37 212.13 260.27 238.64 272.04" fill="#681f18" opacity=".58"/><polygon transform="matrix(.95642 0 0 .95642 9.8643 12.079)" points="238.64 266.24 212.13 254.47 212.13 253.37 238.64 265.14" fill="#c06b63" opacity=".72"/><polygon points="236.81 270.13 231.32 267.7 231.32 264.1 236.81 266.53" fill="#fff" opacity=".15"/><line x1="238.64" x2="212.13" y1="265.14" y2="253.37" opacity=".9" stroke="#3A2412" stroke-width="1.15"/><polygon points="234.98 255.52 213.04 245.78 261.49 224.26 283.42 234" fill="#DDB352" stroke="#3A2412" stroke-linejoin="round" stroke-width="1.05"/><line x1="267.85" x2="249.93" y1="240.53" y2="232.58" opacity=".65" stroke="#B9AA8D" stroke-width=".55"/><polygon points="234.98 263.52 283.42 242 283.42 234 234.98 255.52" fill="#A37B21" stroke="#3A2412" stroke-linejoin="round" stroke-width="1"/><polygon points="234.98 263.52 213.04 253.78 213.04 245.78 234.98 255.52" fill="#D6A22C" stroke="#3A2412" stroke-linejoin="round" stroke-width="1.25"/><polygon transform="matrix(.94443 0 0 .94443 12.384 13.683)" points="213.04 253.78 213.04 252.68 234.98 262.42 234.98 263.52" fill="#85641b" opacity=".58"/><polygon transform="matrix(.93917 0 0 .93917 13.583 15.995)" points="234.98 255.52 234.98 256.62 213.04 246.88 213.04 245.78" fill="#e1bc67" opacity=".72"/><polygon points="233.15 260.51 228.33 258.36 228.33 254.76 233.15 256.91" fill="#fff" opacity=".15"/><line x1="234.98" x2="213.04" y1="255.52" y2="245.78" opacity=".9" stroke="#3A2412" stroke-width="1.15"/><polygon points="258.74 232.08 238.64 223.14 289.82 200.41 309.93 209.34" fill="#6BA1D8" stroke="#3A2412" stroke-linejoin="round" stroke-width="1.05"/><polygon transform="translate(-.8 -.8)" points="259.66 231.23 243.57 224.09 288.63 204.07 304.72 211.22" fill="#e4dac2" stroke="#75664f" stroke-linejoin="round" stroke-width=".65"/><line x1="293.59" x2="277.5" y1="216.21" y2="209.07" opacity=".65" stroke="#B9AA8D" stroke-width=".55"/><g stroke-linejoin="round"><polygon points="258.74 282.08 309.93 259.34 309.93 209.34 258.74 232.08" fill="#386A9E" stroke="#3A2412" stroke-width="1"/><polygon points="261.69 278.78 306.75 258.77 306.75 212.77 261.69 232.78" fill="#D2C9B2" opacity=".9" stroke="#6E5C43" stroke-width=".55"/><polygon points="258.74 282.08 238.64 273.14 238.64 223.14 258.74 232.08" fill="#4A8CD0" stroke="#3A2412" stroke-width="1.25"/></g><polygon transform="matrix(.93911 0 0 .93911 15.165 16.206)" points="238.64 273.14 238.64 271.14 258.74 280.08 258.74 282.08" fill="#2e5781" opacity=".58"/><polygon transform="matrix(.93535 0 0 .93535 16.09 15.436)" points="258.74 234.08 238.64 225.14 238.64 223.14 258.74 232.08" fill="#7dacdd" opacity=".72"/><polygon transform="matrix(.96449 0 0 .96449 9.0455 9.0443)" points="252.49 231.5 256.92 233.46 256.92 279.06 252.49 277.1" fill="#fff" opacity=".15"/><line x1="258.74" x2="238.64" y1="232.08" y2="223.14" opacity=".9" stroke="#3A2412" stroke-width="1.15"/><polygon points="275.2 231.38 258.74 224.08 313.58 199.72 330.04 207.02" fill="#61A26F" stroke="#3A2412" stroke-linejoin="round" stroke-width="1.05"/><polygon points="276.11 230.54 263.68 225.02 312.4 203.38 324.83 208.9" fill="#DED2B6" stroke="#75664F" stroke-linejoin="round" stroke-width=".65"/><line x1="312.67" x2="300.24" y1="214.35" y2="208.83" opacity=".65" stroke="#B9AA8D" stroke-width=".55"/><polygon points="275.2 289.38 330.04 265.02 330.04 207.02 275.2 231.38" fill="#2F6C3C" stroke="#3A2412" stroke-linejoin="round" stroke-width="1"/><polygon points="275.2 289.38 258.74 282.08 258.74 224.08 275.2 231.38" fill="#3E8E4F" stroke="#3A2412" stroke-linejoin="round" stroke-width="1.25"/><polygon transform="matrix(.92521 0 0 .92521 19.966 20.753)" points="275.2 289.38 258.74 282.08 258.74 280.08 275.2 287.38" fill="#265831" opacity=".58"/><polygon transform="matrix(.92444 0 0 .92444 20.141 17.936)" points="258.74 226.08 258.74 224.08 275.2 231.38 275.2 233.38" fill="#74ae80" opacity=".72"/><polygon transform="matrix(.98666 0 0 .97098 3.6213 7.5753)" points="269.75 231.16 273.37 232.77 273.37 286.37 269.75 284.76" fill="#fff" opacity=".15"/><line x1="275.2" x2="258.74" y1="231.38" y2="224.08" opacity=".9" stroke="#3A2412" stroke-width="1.15"/><polygon points="298.96 247.94 275.2 237.38 333.69 211.4 357.46 221.96" fill="#926EB1" stroke="#3A2412" stroke-linejoin="round" stroke-width="1.05"/><polygon transform="translate(-1.3,-1)" points="352.25 223.83 299.87 247.1 280.13 238.33 332.5 215.06" fill="#e4dac2" stroke="#75664f" stroke-linejoin="round" stroke-width=".65"/><line x1="339.07" x2="319.32" y1="229.74" y2="220.97" opacity=".65" stroke="#B9AA8D" stroke-width=".55"/><g stroke-linejoin="round"><polygon points="298.96 299.94 357.46 273.96 357.46 221.96 298.96 247.94" fill="#5D3B7A" stroke="#3A2412" stroke-width="1"/><polygon points="301.9 296.65 354.28 273.39 354.28 225.39 301.9 248.65" fill="#D2C9B2" opacity=".9" stroke="#6E5C43" stroke-width=".55"/><polygon points="298.96 299.94 275.2 289.38 275.2 237.38 298.96 247.94" fill="#7A4EA0" stroke="#3A2412" stroke-width="1.25"/></g><polygon transform="matrix(.95055 0 0 .95055 14.168 13.835)" points="275.2 289.38 275.2 287.38 298.96 297.94 298.96 299.94" fill="#4c3063" opacity=".58"/><polygon transform="matrix(.95286 0 0 .95286 13.518 11.911)" points="275.2 239.38 275.2 237.38 298.96 247.94 298.96 249.94" fill="#9f80bb" opacity=".72"/><polygon transform="matrix(.98525 0 0 .96703 4.3436 9.0527)" points="291.9 247.01 297.13 249.33 297.13 296.93 291.9 294.61" fill="#fff" opacity=".15"/><line x1="298.96" x2="275.2" y1="247.94" y2="237.38" opacity=".9" stroke="#3A2412" stroke-width="1.15"/><polygon points="317.24 253.06 298.96 244.94 351.06 221.8 369.34 229.92" fill="#EADDC5" stroke="#3A2412" stroke-linejoin="round" stroke-width="1.05"/><polygon transform="translate(-1.3 -.8)" points="303.9 245.88 349.87 225.46 364.13 231.8 318.15 252.22" fill="#efe5d0" stroke="#75664f" stroke-linejoin="round" stroke-width=".65"/><line x1="352.74" x2="338.48" y1="236.9" y2="230.57" opacity=".65" stroke="#B9AA8D" stroke-width=".55"/><polygon points="317.24 308.06 369.34 284.92 369.34 229.92 317.24 253.06" fill="#AFA38C" stroke="#3A2412" stroke-linejoin="round" stroke-width="1"/><polygon points="317.24 308.06 298.96 299.94 298.96 244.94 317.24 253.06" fill="#E6D6B8" stroke="#3A2412" stroke-linejoin="round" stroke-width="1.25"/><polygon transform="matrix(.93543 0 0 .93543 19.896 19.024)" points="317.24 308.06 298.96 299.94 298.96 297.94 317.24 306.06" fill="#8f8572" opacity=".58"/><polygon transform="matrix(.9245 0 0 .9245 23.324 19.429)" points="317.24 255.06 298.96 246.94 298.96 244.94 317.24 253.06" fill="#ede1cc" opacity=".72"/><polygon transform="matrix(.96197 0 0 .96197 11.917 10.517)" points="311.39 252.66 315.41 254.45 315.41 305.05 311.39 303.26" fill="#fff" opacity=".15"/><line x1="317.24" x2="298.96" y1="253.06" y2="244.94" opacity=".9" stroke="#3A2412" stroke-width="1.15"/><polygon points="337.35 268.99 317.24 260.06 371.17 236.11 391.27 245.04" fill="#54A1A1" stroke="#3A2412" stroke-linejoin="round" stroke-width="1.05"/><polygon transform="translate(-.8 -.8)" points="338.26 268.15 322.18 261 369.98 239.77 386.06 246.92" fill="#e4dac2" stroke="#75664f" stroke-linejoin="round" stroke-width=".65"/><line x1="374.16" x2="358.08" y1="252.25" y2="245.11" opacity=".65" stroke="#B9AA8D" stroke-width=".55"/><g stroke-linejoin="round"><polygon points="337.35 316.99 391.27 293.04 391.27 245.04 337.35 268.99" fill="#236A6A" stroke="#3A2412" stroke-width="1"/><polygon points="340.29 313.7 388.09 292.47 388.09 248.47 340.29 269.7" fill="#D2C9B2" opacity=".9" stroke="#6E5C43" stroke-width=".55"/><polygon points="337.35 316.99 317.24 308.06 317.24 260.06 337.35 268.99" fill="#2E8C8C" stroke="#3A2412" stroke-width="1.25"/></g><polygon transform="matrix(.93465 0 0 .93465 21.369 19.919)" points="337.35 316.99 317.24 308.06 317.24 306.06 337.35 314.99" fill="#1d5757" opacity=".58"/><polygon transform="matrix(.94116 0 0 .94116 19.229 16.189)" points="337.35 270.99 317.24 262.06 317.24 260.06 337.35 268.99" fill="#69acac" opacity=".72"/><polygon transform="matrix(.97514 0 0 .97514 8.2876 7.3476)" points="331.1 268.41 335.52 270.38 335.52 313.98 331.1 312.01" fill="#fff" opacity=".15"/><line x1="337.35" x2="317.24" y1="268.99" y2="260.06" opacity=".9" stroke="#3A2412" stroke-width="1.15"/><polygon points="351.97 266.49 337.35 259.99 387.62 237.66 402.24 244.16" fill="#CB5D51" stroke="#3A2412" stroke-linejoin="round" stroke-width="1.05"/><polygon points="352.89 265.65 342.28 260.94 386.43 241.33 397.03 246.04" fill="#DED2B6" stroke="#75664F" stroke-linejoin="round" stroke-width=".65"/><line x1="386.16" x2="375.55" y1="250.92" y2="246.21" opacity=".65" stroke="#B9AA8D" stroke-width=".55"/><polygon points="351.97 323.49 402.24 301.16 402.24 244.16 351.97 266.49" fill="#922B21" stroke="#3A2412" stroke-linejoin="round" stroke-width="1"/><polygon points="351.97 323.49 337.35 316.99 337.35 259.99 351.97 266.49" fill="#C0392B" stroke="#3A2412" stroke-linejoin="round" stroke-width="1.25"/><polygon transform="matrix(.91688 0 0 .91688 28.622 26.091)" points="337.35 316.99 337.35 314.99 351.97 321.49 351.97 323.49" fill="#77231b" opacity=".58"/><polygon transform="matrix(.91068 0 0 .91068 30.804 24.042)" points="351.97 268.49 337.35 261.99 337.35 259.99 351.97 266.49" fill="#d27066" opacity=".72"/><polygon transform="matrix(.97279 0 0 .97279 9.4822 7.9227)" points="346.93 266.45 350.14 267.88 350.14 320.48 346.93 319.05" fill="#fff" opacity=".15"/><line x1="351.97" x2="337.35" y1="266.49" y2="259.99" opacity=".9" stroke="#3A2412" stroke-width="1.15"/><polygon points="373.91 283.23 351.97 273.49 408.64 248.32 430.58 258.06" fill="#DDB352" stroke="#3A2412" stroke-linejoin="round" stroke-width="1.05"/><polygon transform="translate(-.7 -.7)" points="407.45 251.98 425.37 259.94 374.82 282.39 356.91 274.43" fill="#e4dac2" stroke="#75664f" stroke-linejoin="round" stroke-width=".65"/><line x1="412.7" x2="394.78" y1="265.61" y2="257.66" opacity=".65" stroke="#B9AA8D" stroke-width=".55"/><g stroke-linejoin="round"><polygon points="373.91 333.23 430.58 308.06 430.58 258.06 373.91 283.23" fill="#A37B21" stroke="#3A2412" stroke-width="1"/><polygon points="376.85 329.94 427.4 307.49 427.4 261.49 376.85 283.94" fill="#D2C9B2" opacity=".9" stroke="#6E5C43" stroke-width=".55"/><polygon points="373.91 333.23 351.97 323.49 351.97 273.49 373.91 283.23" fill="#D6A22C" stroke="#3A2412" stroke-width="1.25"/></g><polygon transform="matrix(.94692 0 0 .94692 19.219 16.893)" points="351.97 323.49 351.97 321.49 373.91 331.23 373.91 333.23" fill="#85641b" opacity=".58"/><polygon transform="matrix(.94179 0 0 .94179 21.159 16.734)" points="373.91 285.23 351.97 275.49 351.97 273.49 373.91 283.23" fill="#e1bc67" opacity=".72"/><polygon transform="matrix(.96536 0 0 .96536 12.805 10.642)" points="367.25 282.48 372.08 284.62 372.08 330.22 367.25 328.08" fill="#fff" opacity=".15"/><line x1="373.91" x2="351.97" y1="283.23" y2="273.49" opacity=".9" stroke="#3A2412" stroke-width="1.15"/><polygon points="390.36 286.54 373.91 279.23 426.92 255.68 443.37 262.99" fill="#5489C2" stroke="#3A2412" stroke-linejoin="round" stroke-width="1.05"/><polygon transform="translate(-1 -.9)" points="378.84 280.18 425.73 259.35 438.16 264.87 391.27 285.7" fill="#ded2b6" stroke="#75664f" stroke-linejoin="round" stroke-width=".65"/><line x1="426.52" x2="414.09" y1="270.09" y2="264.57" opacity=".65" stroke="#B9AA8D" stroke-width=".55"/><polygon points="390.36 340.54 443.37 316.99 443.37 262.99 390.36 286.54" fill="#24548A" stroke="#3A2412" stroke-linejoin="round" stroke-width="1"/><polygon points="390.36 340.54 373.91 333.23 373.91 279.23 390.36 286.54" fill="#2F6FB5" stroke="#3A2412" stroke-linejoin="round" stroke-width="1.25"/><polygon transform="matrix(.92178 0 0 .92178 29.829 25.839)" points="390.36 340.54 373.91 333.23 373.91 331.23 390.36 338.54" fill="#1d4570" opacity=".58"/><polygon transform="matrix(.92156 0 0 .92156 29.979 22.699)" points="373.91 281.23 373.91 279.23 390.36 286.54 390.36 288.54" fill="#6997ca" opacity=".72"/><polygon transform="matrix(.97608 0 0 .97608 9.2504 7.4613)" points="384.91 286.32 388.53 287.93 388.53 337.53 384.91 335.92" fill="#fff" opacity=".15"/><line x1="390.36" x2="373.91" y1="286.54" y2="279.23" opacity=".9" stroke="#3A2412" stroke-width="1.15"/></g></g><g transform="matrix(-.914 -.406 .914 -.406 394 274)" color="rgb(11, 11, 11)" dominant-baseline="auto"><rect x="-10" width="224" height="88" color="rgb(11, 11, 11)" dominant-baseline="auto" fill="url(#b)"/></g><g transform="matrix(-.914 -.406 0 -1 394 420)" color="rgb(11, 11, 11)" dominant-baseline="auto"><rect x="-10" y="136" width="224" height="10" color="rgb(11, 11, 11)" dominant-baseline="auto" fill="url(#c)"/></g><g data-euclidean-books="top"><g data-book="cuboid"><polygon points="247.78 155.2 229.5 147.08 279.77 124.75 298.05 132.87" fill="#B8574D" stroke="#3A2412" stroke-linejoin="round" stroke-width="1.05"/><polygon transform="translate(-.8 -.8)" points="248.69 154.36 234.43 148.03 278.58 128.42 292.84 134.75" fill="#e4dac2" stroke="#75664f" stroke-linejoin="round" stroke-width=".65"/><line x1="281.96" x2="267.7" y1="139.63" y2="133.3" opacity=".65" stroke="#B9AA8D" stroke-width=".55"/><g stroke-linejoin="round"><polygon points="247.78 204.2 298.05 181.87 298.05 132.87 247.78 155.2" fill="#80261D" stroke="#3A2412" stroke-width="1"/><polygon points="250.72 200.91 294.87 181.3 294.87 136.3 250.72 155.91" fill="#D2C9B2" opacity=".9" stroke="#6E5C43" stroke-width=".55"/><polygon points="247.78 204.2 229.5 196.08 229.5 147.08 247.78 155.2" fill="#A83226" stroke="#3A2412" stroke-width="1.25"/></g><polygon transform="matrix(.93887 0 0 .93887 14.56 11.66)" points="229.5 194.08 247.78 202.2 247.78 204.2 229.5 196.08" fill="#681f18" opacity=".58"/><polygon transform="matrix(.93153 0 0 .93153 16.301 10.894)" points="229.5 147.08 247.78 155.2 247.78 157.2 229.5 149.08" fill="#c06b63" opacity=".72"/><polygon transform="matrix(.97582 0 0 .97582 5.8995 4.1727)" points="241.93 154.81 245.95 156.59 245.95 201.19 241.93 199.41" fill="#fff" opacity=".15"/><line x1="247.78" x2="229.5" y1="155.2" y2="147.08" opacity=".9" stroke="#3A2412" stroke-width="1.15"/><polygon points="273.37 158.57 247.78 147.2 300.79 123.66 326.38 135.02" fill="#926EB1" stroke="#3A2412" stroke-linejoin="round" stroke-width="1.05"/><polygon points="274.28 157.73 252.71 148.15 299.6 127.32 321.17 136.9" fill="#DED2B6" stroke="#75664F" stroke-linejoin="round" stroke-width=".65"/><line x1="309.53" x2="287.96" y1="142.12" y2="132.54" opacity=".65" stroke="#B9AA8D" stroke-width=".55"/><polygon points="326.38 135.02 273.37 158.57 273.37 215.57 326.38 192.02" fill="#5d3b7a" stroke="#3a2412" stroke-linejoin="round" stroke-width="1"/><polygon points="273.37 215.57 247.78 204.2 247.78 147.2 273.37 158.57" fill="#7A4EA0" stroke="#3A2412" stroke-linejoin="round" stroke-width="1.25"/><polygon transform="matrix(.9521 0 0 .9521 12.473 9.3731)" points="247.78 202.2 273.37 213.57 273.37 215.57 247.78 204.2" fill="#4c3063" opacity=".58"/><polygon transform="matrix(.95476 0 0 .95476 11.785 7.5229)" points="273.37 160.57 247.78 149.2 247.78 147.2 273.37 158.57" fill="#9f80bb" opacity=".72"/><polygon transform="matrix(.96302 0 0 .96302 9.9408 6.8215)" points="271.54 159.96 271.54 212.56 266.06 210.12 266.06 157.52" fill="#fff" opacity=".15"/><line x1="273.37" x2="247.78" y1="158.57" y2="147.2" opacity=".9" stroke="#3A2412" stroke-width="1.15"/><polygon points="289.82 171.88 273.37 164.57 330.04 139.4 346.49 146.71" fill="#78B57B" stroke="#3A2412" stroke-linejoin="round" stroke-width="1.05"/><polygon transform="translate(-1.3 -.9)" points="328.85 143.06 341.28 148.59 290.73 171.04 278.3 165.52" fill="#e4dac2" stroke="#75664f" stroke-linejoin="round" stroke-width=".65"/><line x1="328.61" x2="316.18" y1="154.26" y2="148.74" opacity=".65" stroke="#B9AA8D" stroke-width=".55"/><g stroke-linejoin="round"><polygon points="289.82 222.88 346.49 197.71 346.49 146.71 289.82 171.88" fill="#447D47" stroke="#3A2412" stroke-width="1"/><polygon points="292.76 219.59 343.31 197.14 343.31 150.14 292.76 172.59" fill="#D2C9B2" opacity=".9" stroke="#6E5C43" stroke-width=".55"/><polygon points="289.82 222.88 273.37 215.57 273.37 164.57 289.82 171.88" fill="#5AA55E" stroke="#3A2412" stroke-width="1.25"/></g><polygon transform="matrix(.92951 0 0 .92951 19.894 14.888)" points="273.37 215.57 273.37 213.57 289.82 220.88 289.82 222.88" fill="#38663a" opacity=".58"/><polygon transform="matrix(.92583 0 0 .92583 20.85 13.029)" points="273.37 166.57 273.37 164.57 289.82 171.88 289.82 173.88" fill="#88be8b" opacity=".72"/><polygon transform="matrix(.97395 0 0 .97395 7.4554 5.0783)" points="284.37 171.66 287.99 173.27 287.99 219.87 284.37 218.26" fill="#fff" opacity=".15"/><line x1="289.82" x2="273.37" y1="171.88" y2="164.57" opacity=".9" stroke="#3A2412" stroke-width="1.15"/><polygon points="311.76 178.62 289.82 168.88 343.75 144.93 365.68 154.67" fill="#EADDC5" stroke="#3A2412" stroke-linejoin="round" stroke-width="1.05"/><polygon transform="translate(-1.3 -.9)" points="312.67 177.78 294.76 169.82 342.56 148.59 360.47 156.55" fill="#efe5d0" stroke="#75664f" stroke-linejoin="round" stroke-width=".65"/><line x1="348.57" x2="330.66" y1="161.88" y2="153.93" opacity=".65" stroke="#B9AA8D" stroke-width=".55"/><polygon points="311.76 232.62 365.68 208.67 365.68 154.67 311.76 178.62" fill="#AFA38C" stroke="#3A2412" stroke-linejoin="round" stroke-width="1"/><polygon points="311.76 232.62 289.82 222.88 289.82 168.88 311.76 178.62" fill="#E6D6B8" stroke="#3A2412" stroke-linejoin="round" stroke-width="1.25"/><polygon transform="matrix(.93832 0 0 .93832 18.54 13.438)" points="289.82 222.88 289.82 220.88 311.76 230.62 311.76 232.62" fill="#8f8572" opacity=".58"/><polygon transform="matrix(.938 0 0 .938 18.633 11.281)" points="311.76 178.62 311.76 180.62 289.82 170.88 289.82 168.88" fill="#ede1cc" opacity=".72"/><polygon transform="matrix(.9707 0 0 .9707 9.0091 5.9039)" points="305.1 177.87 309.93 180.01 309.93 229.61 305.1 227.47" fill="#fff" opacity=".15"/><line x1="311.76" x2="289.82" y1="178.62" y2="168.88" opacity=".9" stroke="#3A2412" stroke-width="1.15"/><polygon points="331.86 194.56 311.76 185.62 361.11 163.7 381.22 172.63" fill="#5489C2" stroke="#3A2412" stroke-linejoin="round" stroke-width="1.05"/><polygon transform="translate(-1.1 -.8)" points="376.01 174.51 332.78 193.71 316.69 186.57 359.92 167.36" fill="#e4dac2" stroke="#75664f" stroke-linejoin="round" stroke-width=".65"/><line x1="365.39" x2="349.3" y1="179.28" y2="172.13" opacity=".65" stroke="#B9AA8D" stroke-width=".55"/><g stroke-linejoin="round"><polygon points="331.86 241.56 381.22 219.63 381.22 172.63 331.86 194.56" fill="#24548A" stroke="#3A2412" stroke-width="1"/><polygon points="334.81 238.26 378.04 219.06 378.04 176.06 334.81 195.26" fill="#D2C9B2" opacity=".9" stroke="#6E5C43" stroke-width=".55"/><polygon points="331.86 241.56 311.76 232.62 311.76 185.62 331.86 194.56" fill="#2F6FB5" stroke="#3A2412" stroke-width="1.25"/></g><polygon transform="matrix(.94677 0 0 .94677 17.069 11.949)" points="331.86 239.56 331.86 241.56 311.76 232.62 311.76 230.62" fill="#1d4570" opacity=".58"/><polygon transform="matrix(.94182 0 0 .94182 18.786 11.152)" points="311.76 185.62 331.86 194.56 331.86 196.56 311.76 187.62" fill="#6997ca" opacity=".72"/><polygon transform="matrix(.98348 0 0 .98348 5.4165 3.205)" points="325.61 193.98 330.04 195.94 330.04 238.54 325.61 236.58" fill="#fff" opacity=".15"/><line x1="331.86" x2="311.76" y1="194.56" y2="185.62" opacity=".9" stroke="#3A2412" stroke-width="1.15"/><polygon points="346.49 190.05 331.86 183.56 390.36 157.57 404.98 164.07" fill="#DDB352" stroke="#3A2412" stroke-linejoin="round" stroke-width="1.05"/><polygon points="347.4 189.21 336.8 184.5 389.17 161.24 399.77 165.95" fill="#DED2B6" stroke="#75664F" stroke-linejoin="round" stroke-width=".65"/><line x1="386.59" x2="375.99" y1="171.85" y2="167.14" opacity=".65" stroke="#B9AA8D" stroke-width=".55"/><polygon points="346.49 248.05 404.98 222.07 404.98 164.07 346.49 190.05" fill="#A37B21" stroke="#3A2412" stroke-linejoin="round" stroke-width="1"/><polygon points="346.49 248.05 331.86 241.56 331.86 183.56 346.49 190.05" fill="#D6A22C" stroke="#3A2412" stroke-linejoin="round" stroke-width="1.25"/><polygon transform="matrix(.91523 0 0 .91523 28.75 20.092)" points="331.86 241.56 331.86 239.56 346.49 246.05 346.49 248.05" fill="#85641b" opacity=".58"/><polygon transform="matrix(.91514 0 0 .91514 28.79 15.942)" points="346.49 192.05 331.86 185.56 331.86 183.56 346.49 190.05" fill="#e1bc67" opacity=".72"/><polygon transform="matrix(.99165 0 0 .99165 2.8636 1.5861)" points="341.44 243.61 341.44 190.01 344.66 191.44 344.66 245.04" fill="#fff" opacity=".15"/><line x1="346.49" x2="331.86" y1="190.05" y2="183.56" opacity=".9" stroke="#3A2412" stroke-width="1.15"/><polygon points="370.25 208.61 346.49 198.05 397.67 175.32 421.44 185.87" fill="#CB5D51" stroke="#3A2412" stroke-linejoin="round" stroke-width="1.05"/><polygon transform="translate(-1.2,-1)" points="396.48 178.98 416.23 187.75 371.17 207.77 351.42 199" fill="#e4dac2" stroke="#75664f" stroke-linejoin="round" stroke-width=".65"/><line x1="405.09" x2="385.35" y1="192.74" y2="183.98" opacity=".65" stroke="#B9AA8D" stroke-width=".55"/><g stroke-linejoin="round"><polygon points="370.25 258.61 421.44 235.87 421.44 185.87 370.25 208.61" fill="#922B21" stroke="#3A2412" stroke-width="1"/><polygon points="373.2 255.32 418.26 235.3 418.26 189.3 373.2 209.32" fill="#D2C9B2" opacity=".9" stroke="#6E5C43" stroke-width=".55"/><polygon points="370.25 258.61 346.49 248.05 346.49 198.05 370.25 208.61" fill="#C0392B" stroke="#3A2412" stroke-width="1.25"/></g><polygon transform="matrix(.949 0 0 .949 18.287 12.365)" points="346.49 246.05 370.25 256.61 370.25 258.61 346.49 248.05" fill="#77231b" opacity=".58"/><polygon transform="matrix(.94636 0 0 .94636 19.244 11.123)" points="346.49 198.05 370.25 208.61 370.25 210.61 346.49 200.05" fill="#d27066" opacity=".72"/><polygon transform="matrix(.98961 0 0 .98961 3.8012 2.1579)" points="363.2 253.27 363.2 207.67 368.42 210 368.42 255.6" fill="#fff" opacity=".15"/><line x1="370.25" x2="346.49" y1="208.61" y2="198.05" opacity=".9" stroke="#3A2412" stroke-width="1.15"/><polygon points="388.53 211.73 370.25 203.61 425.09 179.25 443.37 187.37" fill="#54A1A1" stroke="#3A2412" stroke-linejoin="round" stroke-width="1.05"/><polygon transform="translate(-1.3 -.7)" points="389.45 210.89 375.19 204.55 423.9 182.91 438.16 189.25" fill="#ded2b6" stroke="#75664f" stroke-linejoin="round" stroke-width=".65"/><line x1="426.01" x2="411.75" y1="194.7" y2="188.36" opacity=".65" stroke="#B9AA8D" stroke-width=".55"/><polygon points="388.53 266.73 443.37 242.37 443.37 187.37 388.53 211.73" fill="#236A6A" stroke="#3A2412" stroke-linejoin="round" stroke-width="1"/><polygon points="388.53 266.73 370.25 258.61 370.25 203.61 388.53 211.73" fill="#2E8C8C" stroke="#3A2412" stroke-linejoin="round" stroke-width="1.25"/><polygon transform="matrix(.93278 0 0 .93278 25.505 16.979)" points="388.53 266.73 370.25 258.61 370.25 256.61 388.53 264.73" fill="#1d5757" opacity=".58"/><polygon transform="matrix(.93467 0 0 .93467 24.772 13.625)" points="370.25 203.61 388.53 211.73 388.53 213.73 370.25 205.61" fill="#69acac" opacity=".72"/><polygon transform="matrix(.98948 0 0 .98948 4.0476 2.2235)" points="382.68 211.33 386.7 213.12 386.7 263.72 382.68 261.93" fill="#fff" opacity=".15"/><line x1="388.53" x2="370.25" y1="211.73" y2="203.61" opacity=".9" stroke="#3A2412" stroke-width="1.15"/></g></g><g transform="matrix(-.914 -.406 0 -1 388.66 417.41)" color="#0b0b0b" dominant-baseline="auto"><rect x="-10" y="-10" width="224" height="229" color="#0b0b0b" dominant-baseline="auto" fill="url(#i)"/></g></g><line x1="410.5" x2="410.5" y1="200" y2="445" color="rgb(11, 11, 11)" dominant-baseline="auto" opacity=".45" stroke="#f2ce9e" stroke-width="2px"/><line x1="410.5" x2="191" y1="200" y2="103" color="rgb(11, 11, 11)" dominant-baseline="auto" opacity=".6" stroke="#f6dcb4" stroke-width="2px"/><line x1="410.5" x2="502" y1="200" y2="160" color="rgb(11, 11, 11)" dominant-baseline="auto" opacity=".3" stroke="#f2ce9e" stroke-width="1.5px"/><line x1="191" x2="191" y1="103" y2="348" color="rgb(11, 11, 11)" dominant-baseline="auto" opacity=".4" stroke="#3a2210" stroke-width="1.5px"/></g></g></svg>
