<?xml version="1.0" encoding="UTF-8"?>
<svg role="img" version="1.1" viewBox="0 0 680 560" xmlns="http://www.w3.org/2000/svg"><defs><linearGradient id="d" x2=".5" y2="1"><stop stop-color="#FFF7DA" offset="0"/><stop stop-color="#FFE79A" offset=".12"/><stop stop-color="#F6C93C" offset=".34"/><stop stop-color="#DDA018" offset=".58"/><stop stop-color="#A97207" offset=".78"/><stop stop-color="#8B5C04" offset=".92"/><stop stop-color="#F0CF62" offset="1"/></linearGradient><linearGradient id="c" x2=".4" y2="1"><stop stop-color="#7A5104" offset="0"/><stop stop-color="#5A3A02" offset=".6"/><stop stop-color="#3A2601" offset="1"/></linearGradient><linearGradient id="f" x2=".45" y2="1"><stop stop-color="#EAF5FF" offset="0"/><stop stop-color="#A9D4FA" offset=".18"/><stop stop-color="#4E9BE8" offset=".42"/><stop stop-color="#2A6FC4" offset=".7"/><stop stop-color="#123E7E" offset="1"/></linearGradient><radialGradient id="a" cx=".35" cy=".3" r=".8"><stop stop-color="#FFF3C0" offset="0"/><stop stop-color="#E2B23A" offset=".5"/><stop stop-color="#8A5C05" offset="1"/></radialGradient><linearGradient id="e" x1=".1" x2=".7" y2="1"><stop stop-color="#fff" stop-opacity=".85" offset="0"/><stop stop-color="#fff" stop-opacity=".3" offset=".55"/><stop stop-color="#fff" stop-opacity="0" offset="1"/></linearGradient><radialGradient id="b"><stop stop-opacity=".3" offset="0"/><stop stop-opacity=".1" offset=".62"/><stop stop-opacity="0" offset="1"/></radialGradient></defs><g transform="matrix(-.914 -.406 .914 -.406 340.3 445)"><ellipse rx="120" ry="120" fill="url(#b)"/></g><g transform="translate(13.71 -6.09)"><path transform="matrix(.914 .406 0 1 29.5 -148)" d="m236 118h208q14 0 14 14v118c0 80-34 142-118 202-84-60-118-122-118-202v-118q0-14 14-14z" fill="url(#c)"/></g><g transform="translate(6.86 -3.05)"><path transform="matrix(.914 .406 0 1 29.5 -148)" d="m236 118h208q14 0 14 14v118c0 80-34 142-118 202-84-60-118-122-118-202v-118q0-14 14-14z" fill="#A2700B"/></g><g transform="matrix(.914 .406 0 1 29.5 -148)"><path d="m236 118h208q14 0 14 14v118c0 80-34 142-118 202-84-60-118-122-118-202v-118q0-14 14-14z" fill="url(#d)" stroke="#6B4603" stroke-width="2"/><path d="m232 250v-120q0-6 8-6h100" fill="none" stroke="#FFF3B8" stroke-linecap="round" stroke-opacity=".85" stroke-width="3"/><path d="m252 138h176q12 0 12 12v100c0 70-30 126-100 178-70-52-100-108-100-178v-100q0-12 12-12z" fill="url(#f)" stroke="#0D2C5C" stroke-width="1.6"/><path d="m252 141h176" fill="none" stroke="#FFF6D4" stroke-opacity=".5" stroke-width="1.6"/><circle cx="262" cy="128" r="5.6" fill="#7A5104" opacity=".55"/><circle cx="262" cy="127.4" r="5" fill="url(#a)"/><circle cx="260.5" cy="125.8" r="1.7" fill="#FFF8DC" opacity=".85"/><circle cx="302" cy="128" r="5.6" fill="#7A5104" opacity=".55"/><circle cx="302" cy="127.4" r="5" fill="url(#a)"/><circle cx="300.5" cy="125.8" r="1.7" fill="#FFF8DC" opacity=".85"/><circle cx="340" cy="128" r="5.6" fill="#7A5104" opacity=".55"/><circle cx="340" cy="127.4" r="5" fill="url(#a)"/><circle cx="338.5" cy="125.8" r="1.7" fill="#FFF8DC" opacity=".85"/><circle cx="378" cy="128" r="5.6" fill="#7A5104" opacity=".55"/><circle cx="378" cy="127.4" r="5" fill="url(#a)"/><circle cx="376.5" cy="125.8" r="1.7" fill="#FFF8DC" opacity=".85"/><circle cx="418" cy="128" r="5.6" fill="#7A5104" opacity=".55"/><circle cx="418" cy="127.4" r="5" fill="url(#a)"/><circle cx="416.5" cy="125.8" r="1.7" fill="#FFF8DC" opacity=".85"/><circle cx="231" cy="182" r="5.6" fill="#7A5104" opacity=".55"/><circle cx="231" cy="181.4" r="5" fill="url(#a)"/><circle cx="229.5" cy="179.8" r="1.7" fill="#FFF8DC" opacity=".85"/><circle cx="231" cy="228" r="5.6" fill="#7A5104" opacity=".55"/><circle cx="231" cy="227.4" r="5" fill="url(#a)"/><circle cx="229.5" cy="225.8" r="1.7" fill="#FFF8DC" opacity=".85"/><circle cx="449" cy="182" r="5.6" fill="#7A5104" opacity=".55"/><circle cx="449" cy="181.4" r="5" fill="url(#a)"/><circle cx="447.5" cy="179.8" r="1.7" fill="#FFF8DC" opacity=".85"/><circle cx="449" cy="228" r="5.6" fill="#7A5104" opacity=".55"/><circle cx="449" cy="227.4" r="5" fill="url(#a)"/><circle cx="447.5" cy="225.8" r="1.7" fill="#FFF8DC" opacity=".85"/><circle cx="243.2" cy="323.5" r="5.6" fill="#7A5104" opacity=".55"/><circle cx="243.2" cy="322.9" r="5" fill="url(#a)"/><circle cx="241.7" cy="321.3" r="1.7" fill="#FFF8DC" opacity=".85"/><circle cx="275.1" cy="379.5" r="5.6" fill="#7A5104" opacity=".55"/><circle cx="275.1" cy="378.9" r="5" fill="url(#a)"/><circle cx="273.6" cy="377.3" r="1.7" fill="#FFF8DC" opacity=".85"/><circle cx="436.8" cy="323.5" r="5.6" fill="#7A5104" opacity=".55"/><circle cx="436.8" cy="322.9" r="5" fill="url(#a)"/><circle cx="435.3" cy="321.3" r="1.7" fill="#FFF8DC" opacity=".85"/><circle cx="404.9" cy="379.5" r="5.6" fill="#7A5104" opacity=".55"/><circle cx="404.9" cy="378.9" r="5" fill="url(#a)"/><circle cx="403.4" cy="377.3" r="1.7" fill="#FFF8DC" opacity=".85"/><path d="m246 150q0-10 12-12h164q18 2 18 12v86c-42 28-158 28-194 0z" fill="url(#e)"/><ellipse cx="300" cy="164" rx="42" ry="9" fill="#fff" opacity=".5"/></g></svg>
