<?xml version="1.0" encoding="UTF-8" standalone="no"?>
<!-- Created with Inkscape (http://www.inkscape.org/) -->

<svg
   width="9.2977934in"
   height="9.7073231in"
   viewBox="0 0 236.16395 246.56601"
   version="1.1"
   id="svg1"
   xml:space="preserve"
   xmlns="http://www.w3.org/2000/svg"
   xmlns:svg="http://www.w3.org/2000/svg"><defs
     id="defs1" /><g
     id="layer1"
     transform="translate(-2.8769249,-36.357821)"><path
       d="m 2.8800163,282.91738 c 0.1415117,-0.16528 3.8597843,-4.83921 8.2628277,-10.3865 l 8.005535,-10.086 -7.151527,-1.08984 c -3.9333399,-0.59941 -7.1747781,-1.10864 -7.2031962,-1.13161 -0.028418,-0.023 1.3199354,-1.87002 2.9963412,-4.10456 1.6764057,-2.23453 3.111162,-4.06279 3.188348,-4.06279 0.07719,0 1.933561,0.89717 4.125278,1.9937 2.191718,1.09653 4.005578,1.97168 4.030801,1.94478 0.02522,-0.0269 0.542065,-1.87066 1.148538,-4.09724 l 1.10268,-4.04831 -6.284947,-6.3106 -6.284948,-6.31061 5.238248,0.0112 5.238248,0.0112 4.127691,5.26152 4.127691,5.26151 4.921477,0.99054 c 2.706813,0.5448 5.033186,0.994 5.169719,0.99822 0.203026,0.006 0.444823,-1.10717 1.327524,-6.11316 0.593605,-3.36646 1.035456,-6.16467 0.981889,-6.21823 -0.05357,-0.0536 -3.276294,0.35528 -7.161617,0.90854 -3.885323,0.55327 -7.104682,0.96549 -7.15413,0.91604 -0.04945,-0.0495 0.360076,-2.34757 0.910055,-5.10693 0.68956,-3.45968 1.063243,-5.01703 1.203821,-5.01703 0.112123,0 3.212356,0.75277 6.889409,1.67282 3.677052,0.92005 6.710691,1.64767 6.74142,1.61694 0.03073,-0.0307 -0.22858,-0.33363 -0.576244,-0.67311 l -0.632115,-0.61724 v -3.20352 -3.20352 l 4.102243,-3.07487 4.102242,-3.07486 4.204466,-1.03193 4.204465,-1.03192 1.026855,-4.12769 1.026856,-4.12769 5.160789,-4.20707 5.16079,-4.20707 1.027062,-5.15961 1.027061,-5.15962 5.236108,-4.20707 5.236108,-4.20707 -1.031923,-3.12977 -1.031923,-3.12978 -5.199303,-0.006 -5.199303,-0.006 v -5.08024 c 0,-2.79412 -0.03657,-5.08023 -0.08127,-5.08023 -0.0447,0 -1.419935,0.89324 -3.056078,1.98497 l -2.974807,1.98497 -0.04189,-5.08074 c -0.02304,-2.7944 -0.07717,-5.08074 -0.120289,-5.08074 -0.04312,0 -1.863321,0.89301 -4.044892,1.98447 -2.18157,1.09146 -4.002761,1.98447 -4.047091,1.98447 -0.04433,0 -0.0806,-2.75047 -0.0806,-6.11216 0,-3.36169 -0.03657,-6.11216 -0.08127,-6.11216 -0.0447,0 -1.416246,0.89075 -3.047881,1.97944 -1.631636,1.08869 -2.990953,1.95509 -3.020704,1.92534 -0.02975,-0.0298 0.413064,-1.91864 0.984036,-4.19751 l 1.038131,-4.14342 v -2.98352 -2.98351 l 2.063018,-2.05844 2.063019,-2.05844 4.803236,0.97249 4.803237,0.97249 -4.803158,0.0166 -4.803157,0.0166 -1.067897,2.14274 -1.067897,2.14274 0.993035,2.99301 0.993035,2.99301 1.2266,1.17486 c 1.009044,0.96647 1.564498,1.34131 3.131689,2.11338 l 1.905088,0.93853 2.063845,3.10351 2.063846,3.10351 3.013221,0.99851 c 1.657271,0.54917 3.103948,0.9985 3.214836,0.9985 0.158838,0 0.202687,-1.11998 0.206665,-5.27868 l 0.005,-5.27868 2.023776,-7.0597 2.023775,-7.05969 5.189628,-1.0329 5.189628,-1.0329 7.274137,1.02789 7.274134,1.0279 -0.990019,6.90594 c -0.544513,3.79827 -1.011571,7.04883 -1.037906,7.22346 -0.0342,0.22675 -0.95549,-0.87073 -3.22303,-3.8394 l -3.175146,-4.15692 -4.088392,-0.0105 -4.088391,-0.0105 -2.089238,4.18202 -2.089239,4.18203 2.057199,8.23137 2.057198,8.23137 3.102191,1.02968 3.102191,1.02968 7.319932,-5.16712 c 6.48637,-4.57872 8.02496,-5.75251 13.51118,-10.30762 l 6.19125,-5.14049 0.009,-8.31206 c 0.008,-7.16557 0.0407,-8.29996 0.23774,-8.22435 0.12569,0.0482 2.44469,0.9913 5.15331,2.09571 l 4.92477,2.00801 4.12509,-3.15034 4.12508,-3.15034 0.009,-9.24761 c 0.005,-5.08619 0.0398,-9.24762 0.0777,-9.24762 0.0378,0 2.94261,1.14306 6.45511,2.54012 3.51249,1.39706 6.43125,2.54012 6.48612,2.54012 0.0549,0 1.3115,-1.57823 2.7925,-3.50718 1.48101,-1.92895 4.12187,-5.44584 5.86858,-7.81531 l 3.17583,-4.308141 -4.20776,-10.329639 -4.20775,-10.329639 -7.38222,-2.101703 -7.38221,-2.101703 -8.96979,-0.0025 -8.96979,-0.0025 7.84947,-2.69146 c 4.31721,-1.480303 8.43886,-2.883402 9.15922,-3.117998 l 1.30975,-0.426538 10.36793,3.165244 10.36793,3.165244 6.16557,9.269178 6.16556,9.269177 0.3223,-0.322298 c 0.17726,-0.177264 9.51197,-10.884677 20.7438,-23.794251 l 20.42151,-23.471952 13.3926,-4.098393 c 7.36593,-2.254116 13.42533,-4.065656 13.46534,-4.025644 0.04,0.04001 -1.77036,6.063024 -4.02306,13.384473 l -4.09581,13.311726 -24.66197,20.638454 c -13.56408,11.351149 -24.73204,20.722103 -24.81769,20.824333 -0.11306,0.13495 2.66338,1.87496 10.13282,6.35029 l 10.28854,6.16442 3.17515,10.3986 3.17515,10.39861 -8.31486,8.25538 c -6.74174,6.6935 -8.23488,8.1052 -7.89207,7.46159 0.23254,-0.43658 2.5468,-4.61476 5.14281,-9.28485 l 4.72001,-8.49107 -3.09886,-7.30529 -3.09886,-7.30528 -9.28731,-3.06752 c -5.10801,-1.68713 -9.35827,-3.06236 -9.44502,-3.05608 -0.0867,0.006 -2.4204,0.91566 -5.18592,2.02081 l -5.0282,2.00938 -3.27517,3.27796 -3.27517,3.27795 3.18229,7.04294 c 1.75026,3.87362 3.14585,7.07938 3.1013,7.12393 -0.0445,0.0445 -4.22486,-0.37692 -9.28959,-0.93659 l -9.20861,-1.01757 -3.59908,3.59908 -3.59908,3.59907 2.4505,5.50739 c 1.34777,3.02906 2.47431,5.56963 2.50341,5.64569 0.0297,0.0776 -3.99412,0.13831 -9.1656,0.13831 h -9.21853 l -5.19042,6.22216 c -3.87446,4.64462 -6.75304,8.32323 -11.35378,14.50928 -3.38984,4.55792 -6.16336,8.3198 -6.16336,8.35973 0,0.0399 1.41096,1.00501 3.13546,2.1446 l 3.13546,2.07199 6.14703,2.03664 6.14704,2.03665 5.16442,-1.02467 5.16443,-1.02467 v -4.15739 -4.1574 l -4.12769,-5.1515 c -2.27023,-2.83332 -4.12769,-5.19721 -4.12769,-5.25308 0,-0.0559 2.76833,-0.1003 6.15184,-0.0987 l 6.15185,0.003 2.06806,7.34832 2.06806,7.34832 -1.02757,5.16288 -1.02758,5.16288 -6.0436,2.01225 -6.0436,2.01224 h -7.35725 c -6.09241,0 -7.34319,0.0367 -7.27544,0.21322 0.045,0.11727 0.96809,1.56395 2.0513,3.21484 l 1.96949,3.00161 3.12162,2.06385 3.12163,2.06385 0.004,2.07249 0.004,2.0725 2.34167,1.13227 c 1.39904,0.67648 3.47531,1.50219 5.15783,2.05121 l 2.81615,0.91893 2.06563,-1.02306 2.06564,-1.02305 0.0154,-4.7676 0.0154,-4.7676 0.9857,4.76272 0.9857,4.76272 -2.03438,2.06734 -2.03439,2.06734 -4.00726,0.99265 -4.00726,0.99266 -4.2488,-0.004 -4.2488,-0.004 2.04301,-3.05608 2.04302,-3.05608 -5.1554,-1.03467 -5.1554,-1.03468 3.10362,-2.06602 3.10363,-2.06602 -6.14105,-1.01214 c -3.37757,-0.55667 -6.16857,-1.03445 -6.20222,-1.06171 -0.0337,-0.0273 0.87484,-1.48063 2.01888,-3.2297 l 2.08006,-3.18011 h -5.15434 -5.15434 l -0.009,-5.11993 -0.009,-5.11992 -2.114624,-1.01376 c -1.163047,-0.55757 -2.177062,-0.9734 -2.253367,-0.92408 -0.07631,0.0493 -1.492977,1.90159 -3.14816,4.11614 l -3.009424,4.02645 -5.166579,2.05724 -5.16658,2.05724 -3.157305,6.27422 -3.157305,6.27423 -5.137766,2.05007 -5.137766,2.05008 v 5.21094 5.21093 l -2.064434,4.12652 -2.064433,4.12651 h -3.202651 -3.202651 l -3.073822,-2.00478 c -1.690602,-1.10262 -3.101672,-1.97693 -3.135711,-1.94289 -0.03404,0.034 -0.960004,2.3348 -2.057699,5.1128 -1.097696,2.77799 -1.99581,5.1239 -1.99581,5.21313 0,0.0892 2.769105,3.38964 6.153567,7.33427 l 6.153567,7.17205 -3.02282,5.10741 c -1.662551,2.80908 -3.070372,5.15497 -3.128492,5.21309 -0.05812,0.0581 -1.977992,-3.63978 -4.266383,-8.21756 l -4.160711,-8.32323 -6.158992,-2.04844 c -3.387445,-1.12664 -6.1868,-2.01498 -6.22079,-1.97408 -0.03399,0.0409 -0.50347,2.75338 -1.04329,6.02775 -0.53982,3.27437 -0.98007,6.06235 -0.978334,6.1955 0.0025,0.19497 1.208537,0.44144 6.197121,1.2665 l 6.193964,1.02442 -4.089284,4.09155 c -2.249107,2.25036 -4.155162,4.09156 -4.235678,4.09156 -0.08052,0 -1.956352,-1.35788 -4.168525,-3.01751 l -4.022132,-3.01751 -0.0045,2.02528 -0.0045,2.02527 -9.401844,6.25391 c -5.1710133,3.43965 -9.2860604,6.11868 -9.1445487,5.9534 z"
       id="path165" /></g></svg>
