<?xml version="1.0" encoding="UTF-8" standalone="no"?>
<!-- Created with Inkscape (http://www.inkscape.org/) -->

<svg
   width="9.0147667in"
   height="11.546443in"
   viewBox="0 0 228.97507 293.27965"
   version="1.1"
   id="svg1"
   xml:space="preserve"
   xmlns="http://www.w3.org/2000/svg"
   xmlns:svg="http://www.w3.org/2000/svg"><defs
     id="defs1" /><g
     id="layer1"
     transform="translate(-7.0634767,-5.0523933)"><path
       d="m 84.611757,298.06894 -3.776421,-0.11324 -3.826666,-4.13337 c -2.104666,-2.27335 -4.672348,-5.3869 -5.70596,-6.919 -1.835056,-2.72006 -1.866161,-2.80787 -1.321394,-3.73009 0.546553,-0.92524 0.522367,-0.98836 -1.189146,-3.10359 l -1.747048,-2.15915 v -4.26954 -4.26953 l 2.229717,-2.92223 2.229716,-2.92222 0.467633,-4.72168 0.467633,-4.72168 1.731168,-1.83045 1.731168,-1.83046 -0.784797,-2.70096 -0.784798,-2.70096 1.287628,-2.71313 c 0.768811,-1.61995 1.377695,-3.52708 1.51116,-4.73323 0.223186,-2.01698 0.220629,-2.02402 -1.654097,-4.55288 -1.814824,-2.44806 -1.993057,-2.90561 -5.32842,-13.67852 -1.897935,-6.13015 -4.171059,-14.32073 -5.051388,-18.20128 l -1.600597,-7.05556 -2.917649,-2.99861 c -1.604708,-1.64924 -3.63091,-3.79236 -4.502673,-4.7625 l -1.585022,-1.76389 -0.81979,-5.46805 c -0.471442,-3.14455 -1.476916,-7.73422 -2.366247,-10.80117 -0.85055,-2.93321 -1.546456,-5.58256 -1.546456,-5.88744 0,-0.30487 1.815221,-5.7631 4.033824,-12.12938 2.218602,-6.36629 5.277792,-14.50709 6.798199,-18.09066 l 2.764377,-6.51559 3.576553,-2.92006 3.576553,-2.92006 -1.226078,-2.90714 c -0.91457,-2.16853 -1.171536,-3.19787 -1.011405,-4.05144 l 0.214671,-1.14429 -2.668259,1.43924 c -1.467543,0.79158 -2.893968,1.35263 -3.169835,1.24677 -0.38075,-0.14611 -0.638309,0.46162 -1.069189,2.52284 -0.312187,1.49343 -0.712271,2.98178 -0.889076,3.30745 -0.176805,0.32567 -2.292311,4.53255 -4.701125,9.34861 -4.210525,8.41832 -4.462407,9.0494 -6.522295,16.34121 -1.331171,4.71222 -2.442073,9.56384 -2.933293,12.81051 l -0.79066,5.2258 -3.081788,3.01569 c -1.694984,1.65864 -3.893049,3.56203 -4.884588,4.22977 -1.525691,1.02746 -2.057653,1.19764 -3.460827,1.10712 l -1.658029,-0.10695 -1.57713,-3.63774 c -1.400772,-3.23096 -1.657604,-3.61026 -2.296782,-3.39198 -0.395808,0.13516 -1.546036,0.31799 -2.556063,0.40628 -1.626479,0.14218 -1.999278,0.33722 -3.26112,1.70616 -0.783591,0.85009 -1.89401,1.78831 -2.467598,2.08493 -0.573588,0.29661 -1.291163,0.53929 -1.594611,0.53929 -0.303448,0 -2.582584,-1.01766 -5.064746,-2.26148 l -4.5130232,-2.26148 -1.1337692,-4.88227 c -0.623573,-2.68524 -1.1313573,-5.27914 -1.1284095,-5.76421 0.00295,-0.48507 0.2656246,-2.62819 0.5837262,-4.7625 0.4411166,-2.95967 0.7638712,-4.08985 1.3600754,-4.7625 0.4299397,-0.48507 1.7205233,-2.46944 2.8679643,-4.40972 2.038596,-3.44719 2.078865,-3.56546 1.762732,-5.17721 l -0.323525,-1.64943 3.934775,-4.41699 3.934774,-4.41698 v -2.10795 -2.10795 l 4.393854,-2.76175 4.393854,-2.76174 0.01587,-2.35633 0.01587,-2.35632 5.027083,-1.67682 5.027083,-1.67682 2.645834,-3.00422 c 1.455208,-1.65233 3.060519,-3.65812 3.567357,-4.457314 0.506839,-0.799198 1.118573,-2.05015 1.35941,-2.779892 0.240836,-0.729742 1.680339,-2.886369 3.198894,-4.792504 1.518555,-1.906135 3.078031,-4.087113 3.465501,-4.846618 0.387471,-0.759505 0.914533,-1.55453 1.171248,-1.766722 0.256716,-0.212192 1.101756,-0.496949 1.877868,-0.632794 0.776111,-0.135845 1.936122,-0.546926 2.577803,-0.913513 0.641681,-0.366587 1.358892,-0.666522 1.593803,-0.666522 0.23491,0 0.989464,-0.38213 1.676786,-0.849177 0.889649,-0.604533 2.056622,-2.248918 4.050642,-5.707775 1.540531,-2.672229 3.361702,-5.425411 4.047045,-6.118184 0.685344,-0.692772 2.034719,-1.873982 2.998612,-2.624909 0.963892,-0.750928 4.311896,-2.612533 7.440008,-4.136901 5.67745,-2.766691 5.691849,-2.776723 8.167572,-5.690232 1.364052,-1.60526 4.308954,-4.704592 6.544228,-6.887405 2.235273,-2.182812 4.240434,-3.96875 4.455924,-3.96875 0.21548,0 2.78957,-2.29671 5.7202,-5.1038 l 5.32841,-5.1038 -0.0267,-3.616284 c -0.0209,-2.832988 -0.14483,-3.70267 -0.57212,-4.015109 -0.29998,-0.219354 -0.44206,-0.502191 -0.31572,-0.628527 0.12633,-0.126336 0.0486,-0.229702 -0.17282,-0.229702 -0.22138,0 -0.66112,-0.500095 -0.9772,-1.111324 -0.31608,-0.611228 -0.78069,-2.476541 -1.03246,-4.145139 -0.25178,-1.668598 -0.5689,-3.381509 -0.70473,-3.806468 -0.2224,-0.695864 0.10657,-0.950056 3.31006,-2.557639 1.95634,-0.981742 3.76043,-1.784985 4.00908,-1.784985 0.25464,0 0.64316,-0.808892 0.88957,-1.852083 0.24062,-1.018646 1.05213,-3.135742 1.80337,-4.7046589 l 1.36588,-2.8525757 5.9443,-0.4712701 5.94431,-0.47127 5.65318,2.9447767 5.65318,2.944777 1.85216,4.083235 c 1.40144,3.089595 1.85214,4.49101 1.85208,5.75893 -6e-5,1.254356 0.13298,1.675695 0.52909,1.675695 0.29104,0 0.52917,0.28575 0.52917,0.635 0,0.34925 0.16287,0.797871 0.36193,0.996937 0.2474,0.247397 0.0799,0.666221 -0.52916,1.323453 -0.78763,0.84986 -0.89111,1.267554 -0.89111,3.59692 0,2.145784 0.18748,3.048877 1.00911,4.860946 0.86697,1.912053 0.9431,2.31582 0.54047,2.866448 -0.25775,0.352498 -0.38617,0.774345 -0.28538,0.937438 0.1008,0.163092 2.13516,1.64176 4.52081,3.285929 3.93083,2.709095 4.64352,3.375332 7.60078,7.10537 1.79479,2.263785 3.76378,5.049562 4.37554,6.190617 0.88903,1.658232 1.36011,2.154068 2.34701,2.470346 1.01762,0.326127 1.91703,1.324219 5.11527,5.67653 l 3.88056,5.280827 5.46806,2.791101 c 4.24107,2.164802 6.0835,3.33779 8.21079,5.227427 1.5085,1.33998 3.81833,3.843359 5.13295,5.563065 2.33741,3.057651 2.40835,3.213142 3.21081,7.037165 l 0.82058,3.910427 3.0423,2.373287 c 1.67326,1.305307 4.16379,3.457456 5.53451,4.782551 l 2.49222,2.409269 1.69808,8.22905 c 1.16497,5.64557 2.32073,10.05558 3.68139,14.04699 l 1.98331,5.81792 3.88056,3.00152 3.88055,3.00152 -0.1001,1.94028 -0.10011,1.94027 4.00886,3.99137 4.00886,3.99137 -0.69777,2.00585 -0.69777,2.00586 2.28356,4.58611 c 1.97161,3.9596 2.23609,4.71409 1.93609,5.52297 -0.25317,0.6826 -0.16267,1.87942 0.33343,4.40973 0.67612,3.44843 0.67589,3.51016 -0.0318,8.77877 l -0.7127,5.30591 -5.04642,5.71839 c -2.77553,3.14512 -5.27715,5.7184 -5.55916,5.7184 -0.282,0 -2.19237,-0.39688 -4.24527,-0.88195 -2.0529,-0.48507 -4.59159,-0.88194 -5.64154,-0.88194 -1.29205,0 -1.90898,-0.14252 -1.90894,-0.44098 3e-5,-0.24253 0.24202,-1.70546 0.53776,-3.25095 0.29574,-1.5455 0.45944,-3.01393 0.36379,-3.2632 -0.11226,-0.29255 -0.85696,-0.45321 -2.10073,-0.45321 -1.67725,0 -1.94141,-0.0946 -2.03954,-0.73049 -0.10402,-0.67403 -0.22801,-0.63151 -1.60438,0.55011 -0.82041,0.70432 -2.02463,1.36708 -2.67605,1.47279 -0.8094,0.13135 -1.63913,-0.0398 -2.62062,-0.5405 -0.8898,-0.45394 -2.18693,-1.69887 -3.40937,-3.27214 l -1.97314,-2.53944 0.0281,-6.90697 c 0.0154,-3.79883 0.22025,-9.76447 0.4551,-13.25697 l 0.42702,-6.35 -3.6301,-7.31693 c -3.28023,-6.61171 -3.6301,-7.50425 -3.6301,-9.26042 0,-1.06891 -0.13507,-1.94348 -0.30014,-1.94348 -0.16507,0 -0.8161,0.17987 -1.44673,0.3997 l -1.14659,0.39971 -4.03936,-4.01568 c -3.88856,-3.86576 -4.01387,-3.95641 -3.3565,-2.42817 0.37558,0.87312 1.77791,3.88937 3.11631,6.70277 l 2.43344,5.11528 -0.77593,5.54753 -0.77593,5.54752 1.83454,6.09414 1.83455,6.09414 -1.15737,5.11528 c -0.82881,3.66308 -1.621,9.27157 -2.79044,19.75556 l -1.63305,14.64027 -2.86577,5.75318 -2.86576,5.75318 0.909,0.79189 c 0.53529,0.46633 1.32664,1.94448 1.92486,3.59543 0.55873,1.54195 1.44003,3.23298 1.95846,3.75785 0.51842,0.52487 0.88078,1.01612 0.80524,1.09165 -0.0755,0.0755 0.70356,0.93263 1.73131,1.90464 l 1.86866,1.76729 1.58576,7.59165 c 0.98351,4.70842 1.46989,7.77605 1.28066,8.07717 -0.20571,0.32735 0.549,2.20547 2.31662,5.76501 l 2.62173,5.27949 -7.05651,8.8026 c -6.96423,8.6875 -7.06447,8.79277 -7.66562,8.05038 -0.60871,-0.75173 -0.61043,-0.75086 -2.56458,1.29786 l -1.95546,2.0501 -7.54341,0.46325 -7.54342,0.46325 -5.97692,-4.02516 c -5.46257,-3.67875 -6.12267,-4.23767 -7.67036,-6.4946 -0.93139,-1.35819 -2.38262,-3.73944 -3.22497,-5.29166 -0.87025,-1.60364 -2.00502,-4.50472 -2.6281,-6.71886 -0.60311,-2.14315 -1.09656,-4.09412 -1.09656,-4.33549 0,-0.24137 1.17125,-1.90101 2.60276,-3.68809 l 2.60277,-3.24923 -0.55285,-2.68124 -0.55285,-2.68125 1.12509,-2.98096 c 0.61879,-1.63952 1.12508,-3.07615 1.12508,-3.19251 0,-0.11636 -1.74312,-1.6553 -3.8736,-3.41988 -3.5968,-2.97904 -4.13019,-3.5929 -7.46413,-8.59012 -1.97478,-2.96 -3.73441,-5.4769 -3.9103,-5.59311 -0.17588,-0.11622 -2.32222,-0.31279 -4.76965,-0.43683 -2.44743,-0.12404 -4.51615,-0.15925 -4.59716,-0.0782 -0.081,0.081 -0.48926,1.46821 -0.9072,3.08266 -0.54054,2.088 -1.2122,3.5973 -2.32671,5.22842 -0.86174,1.26118 -3.43753,4.03468 -5.72398,6.16334 l -4.15718,3.87028 0.87329,0.91152 c 0.8126,0.84817 0.87329,1.16169 0.87329,4.51154 v 3.60002 l 1.37399,0.96679 c 1.27065,0.89407 1.39165,1.12786 1.6088,3.10835 0.2194,2.00107 0.39218,2.32636 2.63364,4.95851 l 2.39884,2.81696 0.16664,5.48273 c 0.1642,5.40257 0.18169,5.50232 1.19584,6.82237 0.64429,0.83863 1.82079,3.66237 3.14586,7.55042 l 2.11667,6.21078 -5.46806,8.64305 -5.46805,8.64306 -4.93889,2.39338 c -2.71639,1.31636 -5.02617,2.38792 -5.13284,2.38125 -0.10667,-0.007 -0.8202,-1.2966 -1.58562,-2.86651 l -1.391661,-2.85437 -1.236607,0.20466 c -0.680133,0.11256 -1.593794,0.2064 -2.030356,0.20854 -0.760589,0.004 -0.79375,0.12916 -0.79375,3.00249 v 2.99861 l -3.615973,-0.0749 c -1.988784,-0.0412 -5.315361,-0.12588 -7.392393,-0.18816 z"
       id="path165" /></g></svg>
