<?xml version="1.0" encoding="UTF-8" standalone="no"?>
<!-- Created with Inkscape (http://www.inkscape.org/) -->

<svg
   width="9.0497084in"
   height="10.281111in"
   viewBox="0 0 229.86259 261.14021"
   version="1.1"
   id="svg1"
   xml:space="preserve"
   xmlns="http://www.w3.org/2000/svg"
   xmlns:svg="http://www.w3.org/2000/svg"><defs
     id="defs1" /><g
     id="layer1"
     transform="translate(-4.9189714,-18.996032)"><path
       d="m 8.6673933,277.64649 c -0.7206105,-1.36935 -1.3834111,-2.48973 -1.4728903,-2.48973 -0.089479,0 -0.6283229,0.23505 -1.1974307,0.52234 -0.5691078,0.28728 -1.054247,0.49814 -1.0780872,0.46858 -0.02384,-0.0296 31.3324539,-36.40635 69.6806549,-80.83729 l 69.724,-80.78354 -0.56077,-1.09032 c -0.30842,-0.59967 -0.56448,-1.17581 -0.56903,-1.28031 -0.005,-0.1045 1.42943,-0.79239 3.1866,-1.52865 l 3.19487,-1.33866 6.85822,-10.535819 6.85822,-10.535818 -1.02226,-6.116428 c -0.56224,-3.364035 -1.02225,-6.235295 -1.02225,-6.380576 0,-0.232862 0.62057,-0.264216 5.23958,-0.264725 l 5.23959,-5.77e-4 7.11391,-7.109052 7.11391,-7.109052 v -7.714565 c 0,-5.768135 0.0502,-7.714565 0.19897,-7.714565 0.10943,0 3.20953,0.575077 6.88911,1.277948 3.67958,0.702871 6.81476,1.277948 6.96707,1.277948 0.1523,0 7.80565,-6.421688 17.00743,-14.270417 9.20178,-7.848729 16.99936,-14.500447 17.32796,-14.781596 0.3286,-0.281148 0.51194,-0.396164 0.40742,-0.255589 -0.10452,0.140574 -6.18116,8.818452 -13.50365,19.284173 -8.62205,12.323139 -13.31089,19.168208 -13.30589,19.424806 0.004,0.217922 0.56163,3.468565 1.23863,7.223651 l 1.2309,6.827428 -6.56341,0.31032 c -3.60987,0.170676 -6.68947,0.374623 -6.84356,0.453216 -0.15408,0.07859 -3.29264,3.991429 -6.97459,8.69519 l -6.69443,8.552294 1.92244,5.775732 c 1.05734,3.176652 1.87609,5.822083 1.81945,5.878723 -0.0566,0.0567 -3.11223,-0.22043 -6.79017,-0.61573 -3.67795,-0.39531 -6.84358,-0.75089 -7.03474,-0.79018 -0.25588,-0.0526 -2.32694,1.51139 -7.85152,5.92917 -5.32792,4.26051 -7.82125,6.14793 -8.59808,6.50864 -0.60176,0.27941 -1.37149,0.79874 -1.7105,1.15405 -0.33902,0.35531 -0.54988,0.68713 -0.46859,0.73737 0.0813,0.0502 0.14782,1.84797 0.14782,3.99494 v 3.90357 l -2.00212,0.048 -2.00212,0.048 -69.960899,78.43408 C 42.328665,243.97223 10.650809,279.46301 10.411926,279.7019 l -0.4343318,0.43433 z M 153.91622,112.90595 c -0.27546,-0.58245 -0.7836,-1.33005 -1.12921,-1.66134 -0.61874,-0.59308 -0.62357,-0.59448 -0.31449,-0.0911 0.17264,0.28115 0.65695,1.02875 1.07625,1.66133 0.41929,0.63259 0.78618,1.15016 0.81531,1.15016 0.0291,0 -0.17241,-0.47655 -0.44786,-1.059 z"
       id="path165" /></g></svg>
