<?xml version="1.0" encoding="UTF-8" standalone="no"?>
<!-- Created with Inkscape (http://www.inkscape.org/) -->

<svg
   width="9.2857199in"
   height="9.3206282in"
   viewBox="0 0 235.85728 236.74395"
   version="1.1"
   id="svg1"
   xml:space="preserve"
   xmlns="http://www.w3.org/2000/svg"
   xmlns:svg="http://www.w3.org/2000/svg"><defs
     id="defs1" /><g
     id="layer1"
     transform="translate(-2.2184043,-34.920837)"><path
       d="m 124.27619,270.03301 c -0.40988,-0.89747 -4.87629,-10.97727 -9.92534,-22.39955 -5.04905,-11.42229 -9.22661,-20.79097 -9.28347,-20.81928 -0.0568,-0.0283 -12.29145,-6.76975 -27.187995,-14.98098 l -27.084627,-14.9295 -12.07751,-0.051 -12.077509,-0.051 -5.005091,-9.69164 -5.00509,-9.69164 0.119278,-7.41707 0.119279,-7.41707 8.61711,-17.4054 8.617111,-17.40539 0.93559,-11.07616 c 0.514575,-6.09189 0.923317,-11.09478 0.908315,-11.11754 -0.015,-0.0228 -0.971862,0.62253 -2.126356,1.43397 -1.154494,0.81144 -2.218748,1.47535 -2.365009,1.47535 -0.14626,0 -3.471073,-1.06837 -7.388473,-2.37416 L 16.943857,103.74089 11.868796,98.648532 6.7937347,93.556172 4.5032926,86.513206 C 3.2435495,82.639575 2.2153529,79.346396 2.2184113,79.19503 2.2214697,79.043664 4.3372739,75.582137 6.9201984,71.502748 L 11.616425,64.085677 31.292079,49.507759 c 10.821609,-8.017854 19.807844,-14.581962 19.969409,-14.586906 0.161566,-0.0049 3.549984,1.075088 7.529819,2.400069 l 7.236064,2.409056 2.431831,7.33203 2.431832,7.33203 7.14342,7.169835 7.14342,7.169835 33.232116,-0.0033 c 22.47128,-0.0022 35.25628,0.07414 39.48322,0.235889 l 6.25109,0.2392 4.52839,9.064043 4.52838,9.064043 5.75399,5.7427 5.754,5.7427 5.12437,2.016627 5.12438,2.01663 -0.0547,3.1578 -0.0547,3.15779 4.4952,4.4984 4.49521,4.49839 2.39058,14.79282 2.39057,14.79281 14.72786,22.05342 14.72786,22.05342 -2.57125,2.50398 -2.57126,2.50397 -4.88355,2.43302 -4.88356,2.43301 -5.18945,-0.83697 c -3.09094,-0.49852 -5.23519,-0.76144 -5.30256,-0.65019 -0.0622,0.10273 -0.82514,2.86296 -1.69541,6.13383 l -1.5823,5.94704 -4.98135,4.98161 -4.98134,4.98161 -9.36382,-4.14708 -9.36382,-4.14707 -8.00494,1.59351 -8.00495,1.59351 -12.45789,24.73952 -12.45788,24.73953 -3.66767,1.21688 -3.66767,1.21687 -1.27413,1.28555 -1.27412,1.28555 h -2.43768 -2.43768 z"
       id="path165" /></g></svg>
