<?xml version="1.0" encoding="UTF-8" standalone="no"?>
<!-- Created with Inkscape (http://www.inkscape.org/) -->

<svg
   width="9.3495121in"
   height="9.2584581in"
   viewBox="0 0 237.47761 235.16484"
   version="1.1"
   id="svg1"
   xml:space="preserve"
   xmlns="http://www.w3.org/2000/svg"
   xmlns:svg="http://www.w3.org/2000/svg"><defs
     id="defs1" /><g
     id="layer1"
     transform="translate(-1.5161786,-37.216382)"><path
       d="m 2.6227828,267.59336 c -0.6108066,-2.63226 -1.1087753,-4.88439 -1.1065971,-5.00473 0.00218,-0.12035 1.0842607,-1.82904 2.4046277,-3.79709 2.3480973,-3.49992 2.4572585,-3.63198 4.984976,-6.03057 l 2.5843086,-2.45228 1.410568,-0.0791 1.410568,-0.0791 11.86565,-11.29785 11.86565,-11.29785 1.29974,-3.57409 1.299741,-3.57408 3.857111,-2.45229 3.857112,-2.45229 0.01196,-1.3448 0.01196,-1.3448 15.318084,-20.56398 15.318083,-20.56399 5.12262,-3.18492 c 4.735641,-2.94433 5.485521,-3.47646 9.926526,-7.04403 l 4.803908,-3.8591 11.586341,-13.20857 c 7.80099,-8.89322 12.74582,-14.68241 15.13529,-17.71976 3.33371,-4.23761 3.78846,-4.74145 7.49882,-8.30827 l 3.94989,-3.79709 1.19863,-3.45179 1.19863,-3.45179 5.00766,-3.80887 c 2.75421,-2.09488 5.07348,-3.865017 5.15393,-3.933636 0.0805,-0.06862 -1.58222,-0.948455 -3.69484,-1.955192 -2.26207,-1.07796 -4.03989,-1.830432 -4.32464,-1.830432 -0.26594,0 -5.16785,0.533966 -10.89313,1.186591 -5.72529,0.652625 -10.58243,1.186591 -10.79365,1.186591 -0.35319,0 -0.57783,-0.492446 -2.79659,-6.130719 l -2.41255,-6.130719 -1.17998,-5.616529 c -0.64898,-3.089091 -1.17982,-5.693952 -1.17963,-5.788581 1.9e-4,-0.09463 1.85619,-1.029421 4.12445,-2.077318 l 4.1241,-1.905266 0.65385,-1.717324 0.65385,-1.717324 6.34036,-4.748811 6.34036,-4.748811 1.12499,-3.164242 c 0.61875,-1.740333 1.69321,-4.837335 2.38769,-6.882226 l 1.2627,-3.717984 2.3794,-3.40156 c 1.30867,-1.870858 2.43866,-3.46331 2.51109,-3.538781 0.0724,-0.07547 3.47904,2.485086 7.57025,5.690127 l 7.43856,5.827348 12.38529,4.644076 c 9.99007,3.745944 15.04477,5.529292 26.13695,9.221363 7.5634,2.517507 13.95921,4.577286 14.2129,4.577286 0.25368,0 4.11577,-0.498368 8.58242,-1.107484 4.46664,-0.609117 8.24659,-1.107485 8.3999,-1.107485 0.20353,0 0.67363,0.864361 1.74243,3.203795 0.80504,1.762087 3.00157,6.585578 4.8812,10.718869 l 3.41749,7.515075 -2.5853,8.340425 -2.5853,8.340428 -3.645,7.08525 -3.64501,7.08525 -11.11632,5.84557 -11.11633,5.84557 -0.76144,-0.82312 c -0.41879,-0.45271 -3.26574,-3.61718 -6.32655,-7.03216 l -5.5651,-6.20904 -12.37614,-3.52553 c -6.80687,-1.93904 -12.48826,-3.5233 -12.62531,-3.52059 -0.13705,0.003 -1.27505,0.23278 -2.52888,0.51125 l -2.2797,0.5063 -1.19813,2.84772 -1.19814,2.84773 -3.72065,4.79427 -3.72065,4.79426 -3.18418,0.007 -3.18418,0.007 -5.48205,6.98467 -5.48204,6.98467 -11.35951,12.09989 c -6.92824,7.3798 -13.82074,14.9115 -17.66884,19.30742 l -6.309321,7.20753 -3.788974,7.20266 -3.788973,7.20265 L 89.67502,193.1 c -1.142217,1.07944 -8.044472,7.09613 -15.338343,13.3704 l -13.261584,11.40777 -0.04713,1.26422 -0.04713,1.26421 -3.773692,3.6114 -3.773692,3.61141 -2.491839,1.18758 -2.491838,1.18759 -6.686434,6.35423 -6.686435,6.35423 v 2.33372 2.33373 l -3.945411,5.03416 -3.945411,5.03416 -2.5749,1.25541 -2.574901,1.2554 -1.321877,4.90458 -1.321877,4.90457 -3.910984,1.1376 -3.910984,1.13761 -3.2393908,0.16957 c -1.7816648,0.0933 -3.5450398,0.1687 -3.9186112,0.16765 l -0.6792208,-0.002 z"
       id="path165" /></g></svg>
