<?xml version="1.0" encoding="UTF-8" standalone="no"?>
<!-- Created with Inkscape (http://www.inkscape.org/) -->

<svg
   width="9.3689051in"
   height="8.4632626in"
   viewBox="0 0 237.97019 214.96687"
   version="1.1"
   id="svg1"
   xml:space="preserve"
   xmlns="http://www.w3.org/2000/svg"
   xmlns:svg="http://www.w3.org/2000/svg"><defs
     id="defs1" /><g
     id="layer1"
     transform="translate(-1.598193,-64.27861)"><path
       d="m 134.46517,274.69591 c -7.46472,-2.49571 -13.62225,-4.59044 -13.68341,-4.65495 -0.0612,-0.0645 -3.20774,-9.47383 -6.99241,-20.90959 l -6.88122,-20.79228 -11.38726,-2.2676 c -6.262992,-1.24719 -11.487622,-2.22463 -11.610288,-2.17209 -0.122667,0.0525 -5.345216,4.18146 -11.605666,9.17539 l -11.382635,9.07988 -4.553054,11.23385 c -2.50418,6.17862 -4.623101,11.39065 -4.708714,11.58228 -0.122438,0.27406 -0.637832,-2.59051 -2.414888,-13.42203 -1.782725,-10.86605 -2.226546,-13.85359 -2.104269,-14.16466 0.08523,-0.21682 4.246319,-7.53415 9.246868,-16.26074 l 9.091909,-15.86652 -4.479569,-9.17528 -4.479569,-9.17527 -18.212216,-2.24847 c -10.016719,-1.23666 -18.305617,-2.24403 -18.419772,-2.23859 -0.114156,0.005 -4.206755,2.99784 -9.094665,6.64976 -4.8879092,3.65193 -9.0215137,6.73594 -9.1857875,6.85335 -0.167838,0.11996 1.721963,-3.76798 4.3139573,-8.87523 2.5369502,-4.99878 5.6712222,-11.17317 6.9650482,-13.72086 l 2.352411,-4.63217 22.999276,-6.82958 22.999277,-6.82959 2.346058,-6.89605 2.346059,-6.89606 -9.106109,-13.67017 -9.106108,-13.67017 -11.366336,-4.55146 -11.366335,-4.55145 13.585186,-0.0387 13.585187,-0.0388 15.826697,9.04464 c 8.704684,4.97455 15.923821,9.08191 16.042527,9.12746 0.118705,0.0456 5.353077,-1.95823 11.631936,-4.45284 l 11.416104,-4.53565 2.2745,-11.30675 2.2745,-11.306752 -6.72902,-13.486202 C 101.19241,70.388555 98.185271,64.30129 98.210839,64.27871 c 0.02557,-0.02258 5.102271,3.963189 11.281561,8.857264 l 11.23507,8.898318 6.82154,18.191488 6.82153,18.19149 9.12933,4.56392 9.12933,4.56391 13.6553,-11.37277 13.65531,-11.37277 4.53101,-9.030222 c 2.77604,-5.5326 4.55218,-8.912656 4.58568,-8.726687 0.0301,0.166946 1.09396,6.279421 2.36421,13.583279 l 2.30953,13.27974 -9.08551,13.63869 c -7.04505,10.57566 -9.06542,13.71145 -8.99607,13.9627 0.0492,0.1782 2.12057,5.34307 4.60306,11.47748 l 4.51363,11.15347 15.70804,2.23361 c 8.63942,1.22848 15.93012,2.23652 16.20156,2.24009 0.30454,0.004 4.77591,-1.70666 11.67685,-4.46735 6.15083,-2.46062 11.19826,-4.45827 11.21652,-4.43923 0.0183,0.019 -4.03803,5.12266 -9.01398,11.34137 l -9.04718,11.30675 -20.57155,4.55305 -20.57154,4.55306 -4.60423,9.16838 -4.60424,9.16839 11.54849,11.54922 11.54848,11.54923 13.87938,4.62459 13.87939,4.6246 -18.09181,2.31226 c -9.95049,1.27175 -18.282,2.31466 -18.51447,2.3176 -0.34088,0.004 -3.07876,-2.21215 -14.1476,-11.45319 -7.54871,-6.30218 -13.77831,-11.45857 -13.84356,-11.45863 -0.0653,-6e-5 -5.2579,2.05575 -11.53922,4.56848 l -11.42057,4.56859 v 16.18525 16.18525 l 6.94278,6.94402 c 3.81854,3.81921 6.87478,6.93865 6.79164,6.93208 -0.0831,-0.007 -6.25864,-2.05387 -13.72336,-4.54957 z m 2.34135,-64.8276 15.93569,-4.59802 4.55511,-13.73505 4.55512,-13.73504 -2.27789,-11.3447 c -1.25284,-6.23958 -2.31235,-11.3431 -2.35447,-11.34116 -0.0421,0.002 -8.27209,5.10705 -18.2888,11.34469 l -18.21222,11.34117 -9.13408,13.65916 c -5.02375,7.51254 -9.13857,13.71027 -9.14405,13.77273 -0.005,0.0625 4.0707,2.15882 9.05819,4.65857 4.9875,2.49974 9.13647,4.55189 9.21994,4.56033 0.0835,0.008 7.32283,-2.05377 16.08746,-4.58268 z m -35.98338,-28.82858 c 9.18983,-5.68906 16.82739,-10.45368 16.97235,-10.58805 0.14497,-0.13436 4.9628,-7.7941 10.70629,-17.02164 l 10.44272,-16.77733 -8.96095,-2.2337 c -4.92853,-1.22853 -9.09755,-2.22765 -9.26449,-2.22028 -0.16695,0.007 -8.46462,3.09967 -18.43926,6.87175 l -18.135731,6.85834 -2.065851,4.7807 -2.06585,4.78071 -2.555479,8.85493 -2.555478,8.85492 4.543827,9.0917 c 2.499105,5.00043 4.572019,9.09169 4.606476,9.09169 0.03446,0 7.581599,-4.65468 16.771426,-10.34374 z"
       id="path165" /></g></svg>
