<?xml version="1.0" encoding="UTF-8" standalone="no"?>
<!-- Created with Inkscape (http://www.inkscape.org/) -->

<svg
   width="9.3571854in"
   height="8.3440838in"
   viewBox="0 0 237.67251 211.93973"
   version="1.1"
   id="svg1"
   xml:space="preserve"
   xmlns="http://www.w3.org/2000/svg"
   xmlns:svg="http://www.w3.org/2000/svg"><defs
     id="defs1" /><g
     id="layer1"
     transform="translate(-2.125504,-61.948313)"><path
       d="m 216.08264,271.91233 -7.66189,-1.96385 -2.99636,-4.94551 -2.99636,-4.9455 -8.93578,-20.69437 -8.93578,-20.69438 -9.93435,-17.68732 -9.93434,-17.68733 -4.32902,-5.30564 c -2.38096,-2.9181 -4.55017,-5.54154 -4.82047,-5.82987 l -0.49145,-0.52423 h -3.96565 -3.96565 l -2.89392,-0.968 c -2.85172,-0.95389 -2.90751,-0.98145 -3.8259,-1.89026 l -0.93199,-0.92226 v -3.10587 c 0,-3.04419 -0.0125,-3.15961 -0.63166,-5.81196 -0.34742,-1.48835 -0.82374,-3.21419 -1.05849,-3.83521 -0.23476,-0.62101 -0.82154,-2.28803 -1.30397,-3.70447 -0.52491,-1.54116 -0.87715,-2.85294 -0.87715,-3.26661 0,-0.66479 -0.29839,-1.07922 -7.79222,-10.82256 l -7.79222,-10.1313 -2.85378,-6.65696 c -1.56957,-3.66132 -2.85377,-6.75955 -2.85377,-6.88495 0,-0.1254 0.46847,-1.47611 1.04104,-3.00159 l 1.04105,-2.77359 1.87844,-1.88335 c 1.14439,-1.14737 1.85642,-1.98367 1.82208,-2.14008 -0.0406,-0.18521 -0.83781,0.35575 -2.86126,1.9417 l -2.80491,2.19844 -2.88102,-0.95036 -2.88103,-0.95036 v -0.97107 -0.97106 l 2.59185,-2.59542 2.59184,-2.595422 -0.56479,-0.43079 c -0.31064,-0.236935 -0.65492,-0.430791 -0.76506,-0.430791 -0.11015,0 -1.42517,0.471812 -2.92227,1.04847 l -2.72201,1.048473 h -2.00823 -2.00823 v -1.890637 -1.890632 l 0.9237,-0.933442 0.9237,-0.933441 -1.89152,-1.89646 -1.89152,-1.896461 v -2.938283 c 0,-2.917391 -0.003,-2.938815 -0.36293,-3.013148 -0.19961,-0.04118 -5.86405,-0.458775 -12.58764,-0.927998 l -12.224709,-0.853132 -13.497416,1.925199 -13.497415,1.925199 -11.619513,5.698143 -11.619513,5.698142 -5.93361,5.923541 -5.933611,5.92354 -4.8656281,7.56509 c -2.6760954,4.1608 -4.8822018,7.49978 -4.9024587,7.41994 -0.020257,-0.0798 -0.4205775,-4.83048 -0.8896014,-10.55698 l -0.8527708,-10.41183 7.8175688,-9.586129 7.8175692,-9.586135 10.726647,-6.699662 10.726647,-6.699663 15.389821,-4.751216 15.38982,-4.751217 16.426314,0.958786 16.426319,0.958785 1.01335,-1.004352 1.01336,-1.004352 h 3.79094 3.79094 l 1.00349,1.012483 1.00348,1.012483 -5.1e-4,1.689342 c -4e-4,1.317389 -0.21313,2.950123 -0.96619,7.415596 -0.53112,3.14944 -0.9664,5.816988 -0.9673,5.927884 -0.001,0.153443 0.6826,0.203863 2.86149,0.210981 l 2.86313,0.0094 0.89984,1.885957 0.89984,1.885957 -1.66149,2.096004 -1.66149,2.096003 0.75559,0.767124 0.75558,0.767124 h 1.82073 1.82072 v 1.023915 1.023916 l 0.92749,0.871394 c 0.66683,0.626494 1.48283,1.141886 2.90345,1.833846 l 1.97597,0.962451 v 0.979036 0.979036 l 1.81465,0.878146 c 1.80348,0.872733 1.83331,0.896532 4.84083,3.861567 l 3.02616,2.98342 2.0162,-1.00429 2.01619,-1.00429 h 2.82116 2.82116 v 0.89306 c 0,0.54818 -0.32239,2.15219 -0.83481,4.15355 -0.6345,2.47811 -0.85706,3.66376 -0.9275,4.94106 l -0.0927,1.68057 -1.01577,0.33853 c -0.55867,0.1862 -1.08381,0.44615 -1.16698,0.57768 -0.0832,0.13152 -0.15232,0.28331 -0.15368,0.3373 -0.001,0.054 0.54193,0.19128 1.20731,0.30509 l 1.20977,0.20694 v 0.90743 c 0,0.72479 -0.35517,1.97183 -1.76473,6.19613 l -1.76472,5.2887 0.16893,0.95904 c 0.0929,0.52746 0.25191,0.95779 0.35332,0.95627 0.10142,-0.002 0.72879,-0.14545 1.39417,-0.31985 0.66537,-0.17439 1.30022,-0.31832 1.41078,-0.31984 0.11055,-0.002 1.10232,1.79375 2.20392,3.98949 1.33121,2.65338 2.4539,4.64139 3.34766,5.92788 l 1.34474,1.93564 2.5353,1.69368 2.53529,1.69368 0.005,2.38434 0.005,2.38435 0.94215,0.59976 0.94216,0.59976 0.91254,2.74619 0.91254,2.74619 1.12941,1.12075 1.12941,1.12076 v 2.11692 2.11692 l 0.9319,2.75325 0.93191,2.75326 -0.40767,0.24841 c -0.22422,0.13663 -0.61657,0.41913 -0.87188,0.62778 l -0.46421,0.37936 3.82409,5.2199 3.8241,5.21989 9.88482,19.77274 9.88482,19.77274 6.90268,17.46104 6.90269,17.46105 h 3.93245 3.93246 l 1.64797,1.09932 c 1.09452,0.73013 2.39936,1.40728 3.88527,2.01629 l 2.23729,0.91696 h 2.07757 2.07756 v -0.93774 c 0,-0.93371 -0.009,-0.95085 -2.05342,-3.99225 l -2.05342,-3.0545 -3.9151,-1.93099 -3.9151,-1.93098 1.0038,-1.0128 c 0.98008,-0.98887 1.02395,-1.01279 1.8576,-1.01279 0.50479,0 2.48481,0.40473 4.84375,0.99009 l 3.98994,0.99009 2.01628,1.97152 c 1.10896,1.08434 3.0325,2.7272 4.27453,3.65081 1.24203,0.9236 2.62118,1.83655 3.06476,2.02878 0.48155,0.20868 1.17265,0.72723 1.71523,1.28699 0.49979,0.51562 1.78918,2.26219 2.8653,3.88126 l 1.95658,2.94378 -2.8653,0.003 -2.8653,0.003 -3.94741,2.05345 -3.94742,2.05345 -0.96901,3.9116 c -0.74331,3.00054 -1.02613,3.90877 -1.21427,3.89948 -0.1349,-0.007 -3.69313,-0.89585 -7.90717,-1.97596 z m -70.91107,-135.78165 0.7881,-0.49478 -0.34142,-0.34142 -0.34142,-0.34142 -1.1444,0.36858 c -0.86833,0.27966 -1.122,0.42694 -1.05156,0.6105 0.0511,0.13306 0.0928,0.34486 0.0928,0.47068 0,0.15736 0.18881,0.22781 0.60489,0.2257 0.39221,-0.002 0.88197,-0.17702 1.39298,-0.49784 z m -7.37911,-5.1447 c 0.21409,0 0.23743,-0.12588 0.14211,-0.76619 -0.0627,-0.4214 -0.18874,-0.85692 -0.28002,-0.96782 -0.11617,-0.14114 -0.75425,-0.20162 -2.12722,-0.20162 h -1.96126 l -0.94808,-0.95809 -0.94808,-0.95808 0.42681,-1.49513 0.42682,-1.49514 -0.41218,-0.43022 -0.41218,-0.43022 0.56571,-0.10613 c 0.51717,-0.097 0.58645,-0.1783 0.80755,-0.9475 0.13302,-0.46276 0.72131,-2.52192 1.30732,-4.57591 l 1.06547,-3.73453 -1.01219,-2.03205 -1.01219,-2.03206 h -1.24708 -1.24707 l -0.65724,0.96782 c -0.36148,0.5323 -0.69263,0.96782 -0.7359,0.96782 -0.0433,0 -0.57165,-0.24827 -1.17419,-0.5517 l -1.09553,-0.5517 -0.67478,1.36059 c -0.62736,1.26498 -0.67478,1.45392 -0.67485,2.68896 -6e-5,0.97016 0.24725,2.56566 0.91708,5.91659 l 0.91717,4.58822 4.84949,5.39269 4.84949,5.39269 0.0444,-2.52064 c 0.0384,-2.17658 0.0794,-2.52065 0.30059,-2.52065 z m 6.11915,-11.49283 0.69127,-2.05662 h -1.02989 -1.02988 l -0.0908,0.52424 c -0.05,0.28833 -0.3073,1.92657 -0.57187,3.64054 -0.26457,1.71396 -0.47729,3.20198 -0.47272,3.30671 0.005,0.10472 0.41429,-0.60805 0.91048,-1.58393 0.4962,-0.97588 1.21325,-2.69981 1.59345,-3.83094 z m -6.15969,2.25112 c 0.19819,-0.14493 0.26927,-0.37353 0.23246,-0.74769 l -0.053,-0.53894 -0.36083,0.74769 c -0.19846,0.41122 -0.30307,0.74769 -0.23246,0.74769 0.0706,0 0.25684,-0.0939 0.41386,-0.20875 z m 0.42139,-1.48494 c 0,-0.0444 -0.0363,-0.0807 -0.0806,-0.0807 -0.0444,0 -0.0806,0.0363 -0.0806,0.0807 0,0.0444 0.0363,0.0807 0.0806,0.0807 0.0444,0 0.0806,-0.0363 0.0806,-0.0807 z"
       id="path165" /></g></svg>
