<?xml version="1.0" encoding="UTF-8" standalone="no"?>
<!-- Created with Inkscape (http://www.inkscape.org/) -->

<svg
   width="8.8879585in"
   height="6.1248865in"
   viewBox="0 0 225.75415 155.57212"
   version="1.1"
   id="svg1"
   xml:space="preserve"
   xmlns="http://www.w3.org/2000/svg"
   xmlns:svg="http://www.w3.org/2000/svg"><defs
     id="defs1" /><g
     id="layer1"
     transform="translate(-7.0988053,-68.57593)"><path
       d="m 161.52331,223.30909 c -0.85513,-0.46144 -1.52289,-0.97738 -1.48391,-1.14653 0.039,-0.16915 0.62899,-1.61724 1.31113,-3.21797 l 1.24026,-2.91042 h -4.34879 -4.34879 l -3.76789,1.76389 c -3.64213,1.70502 -3.87338,1.76389 -6.92832,1.76389 h -3.16042 v -1.35848 c 0,-1.08049 0.38951,-1.90134 1.90347,-4.01137 1.04691,-1.45908 2.08316,-2.98863 2.30277,-3.39898 0.36679,-0.68534 0.33387,-0.72047 -0.40416,-0.43146 -0.44191,0.17305 -2.38433,0.96453 -4.3165,1.75885 -1.93216,0.79432 -3.91654,1.44181 -4.40972,1.43887 -0.49318,-0.003 -1.55173,-0.20139 -2.35232,-0.44098 -0.80059,-0.23959 -1.48889,-0.59436 -1.52956,-0.78839 -0.0407,-0.19403 2.28002,-3.86388 5.15707,-8.15523 3.88144,-5.78947 5.55209,-7.98725 6.47553,-8.51871 0.68448,-0.39394 2.82883,-1.30263 4.76522,-2.01931 1.93638,-0.71668 5.4257,-2.01934 7.75403,-2.89479 2.32833,-0.87545 5.50333,-2.06471 7.05556,-2.6428 1.55222,-0.57809 3.69534,-1.37477 4.7625,-1.77041 1.89617,-0.70298 1.98667,-0.80055 3.98106,-4.29237 1.12243,-1.96518 2.832,-4.92242 3.79903,-6.57166 1.03017,-1.75691 1.71897,-3.3378 1.66338,-3.81774 -0.0522,-0.45052 -0.51227,-1.07098 -1.02244,-1.3788 -0.90535,-0.54626 -1.09135,-0.4782 -7.76111,2.83986 -4.10103,2.04018 -8.9495,4.12667 -12.1252,5.21795 -2.91042,1.00013 -5.92667,1.94052 -6.70278,2.08977 -0.77611,0.14925 -3.31611,0.61054 -5.64444,1.02508 -2.32834,0.41454 -5.61892,0.9895 -7.31241,1.27768 l -3.07908,0.52397 -2.46837,-1.24305 c -1.93485,-0.97438 -2.88963,-1.24305 -4.41745,-1.24305 h -1.94908 v 1.72269 c 0,1.43189 -0.27239,2.16137 -1.61369,4.32152 -0.88754,1.42937 -2.38513,3.78947 -3.328,5.24468 -0.94287,1.4552 -2.45141,3.83645 -3.35231,5.29166 -1.17938,1.90501 -2.2826,3.13972 -3.94015,4.40973 -1.26618,0.97013 -3.67492,2.83503 -5.35275,4.14421 -1.67783,1.30918 -4.04114,3.17449 -5.25179,4.14514 -2.061239,1.6526 -2.330399,1.76555 -4.233335,1.77635 -1.117678,0.006 -3.064017,0.15492 -4.325197,0.33016 -1.261181,0.17524 -4.27743,0.65585 -6.702778,1.06803 -3.734051,0.63458 -4.734044,0.68895 -6.526388,0.35485 -1.164167,-0.21701 -3.069167,-0.61972 -4.233334,-0.89492 -1.164166,-0.2752 -4.656666,-1.04561 -7.76111,-1.71203 -3.104445,-0.66642 -6.187027,-1.32361 -6.850183,-1.46041 -0.849596,-0.17526 -1.057998,-0.33133 -0.705556,-0.52837 0.275101,-0.15381 4.389558,-1.39246 9.143239,-2.75256 4.75368,-1.36011 9.03993,-2.62662 9.524999,-2.81447 0.48507,-0.18785 2.147924,-1.25128 3.695232,-2.36317 1.547308,-1.11189 3.028341,-2.10415 3.291183,-2.20501 0.262843,-0.10086 2.546268,-3.28001 5.074278,-7.06477 3.269037,-4.89417 4.840022,-7.59771 5.440067,-9.36191 0.464026,-1.3643 0.843684,-2.55502 0.843684,-2.64606 0,-0.091 -1.191283,-0.0754 -2.647296,0.0347 l -2.647295,0.20021 -4.849232,4.07739 -4.849232,4.07738 -1.638627,-0.21026 -1.638627,-0.21027 -2.241929,3.0509 -2.241928,3.05091 -6.208075,3.1382 -6.208075,3.1382 -4.904425,0.73165 c -2.697433,0.40241 -5.221924,0.80702 -5.60998,0.89912 -0.388055,0.0921 -2.451805,1.29357 -4.586111,2.66992 l -3.880555,2.50246 -2.645833,-0.21611 c -1.455209,-0.11886 -3.241146,-0.47179 -3.96875,-0.78428 -0.727604,-0.3125 -1.322917,-0.70634 -1.322917,-0.8752 0,-0.16887 0.636772,-1.57351 1.415048,-3.12143 l 1.415049,-2.81439 h -3.374429 c -3.217394,0 -3.582702,0.0821 -7.849935,1.76389 -4.289174,1.69045 -4.618849,1.76389 -7.918398,1.76389 -2.857239,0 -3.44289,-0.0919 -3.44289,-0.5405 0,-0.29727 0.214336,-1.05133 0.476303,-1.67569 0.261966,-0.62436 1.296246,-2.38956 2.2984,-3.92268 1.002154,-1.53311 1.764479,-2.8451 1.694055,-2.91552 -0.07042,-0.0704 -1.144392,0.17284 -2.386595,0.54059 -1.242204,0.36775 -2.973695,0.85603 -3.847758,1.08507 -1.157047,0.30319 -2.201024,0.31791 -3.8390788,0.0541 -1.2374297,-0.19928 -2.3312312,-0.44369 -2.43067,-0.54313 -0.099439,-0.0994 0.1993967,-0.65147 0.6640788,-1.22673 0.464682,-0.57525 2.855069,-3.47589 5.31197,-6.44586 2.456902,-2.96997 5.155652,-6.06711 5.997222,-6.88254 0.841571,-0.81544 2.102473,-1.72078 2.802005,-2.01188 0.720026,-0.29963 2.218648,-1.59719 3.453948,-2.99054 1.200139,-1.35369 3.644045,-3.54302 5.430901,-4.86516 1.786856,-1.32215 6.344455,-5.17337 10.127996,-8.55826 3.783542,-3.38489 8.754564,-7.91022 11.046715,-10.05629 l 4.167549,-3.90193 -1.652333,-0.76269 -1.652334,-0.76268 -1.633271,1.18196 c -0.898299,0.65008 -2.660559,2.2236 -3.916135,3.49671 -1.255575,1.27311 -2.546397,2.31475 -2.868494,2.31475 -0.322096,0 -2.549182,-0.71194 -4.949079,-1.58208 -2.399898,-0.87015 -4.540165,-1.58453 -4.756148,-1.5875 -0.215984,-0.003 -1.089109,-0.76671 -1.940278,-1.69718 -0.851169,-0.93047 -2.34133,-2.62995 -3.311469,-3.77662 -0.970139,-1.14666 -2.926916,-3.40196 -4.348394,-5.01177 -1.645617,-1.86365 -2.41455,-2.98084 -2.116666,-3.07534 0.257311,-0.0816 2.888775,-0.24003 5.847699,-0.35201 2.958923,-0.11199 7.741294,-0.30534 10.62749,-0.42968 l 5.247629,-0.22608 3.588957,-4.71281 3.588956,-4.71282 h 6.332858 c 5.434629,0 6.332859,-0.0761 6.332859,-0.53691 0,-0.2953 -0.459498,-1.55031 -1.021107,-2.78891 -0.647812,-1.42872 -1.840765,-3.11191 -3.263194,-4.60417 -1.233149,-1.29368 -2.282708,-2.46241 -2.332355,-2.59716 -0.04965,-0.13475 1.176378,-1.50422 2.7245,-3.04326 l 2.814765,-2.79826 0.803279,0.74682 c 0.66731,0.62041 1.091961,0.71357 2.508767,0.55038 l 1.70549,-0.19645 -0.151413,-1.80284 c -0.08328,-0.99157 -0.513523,-3.94597 -0.956101,-6.56535 -0.442579,-2.619372 -0.824413,-5.105265 -0.848521,-5.524204 -0.02994,-0.520369 1.465112,-2.401468 4.718667,-5.937088 4.434954,-4.819439 4.769612,-5.106729 4.86591,-4.177182 0.05688,0.54901 -0.03017,2.387262 -0.193445,4.085005 -0.202628,2.106985 -0.179463,3.08509 0.07298,3.081403 0.203409,-0.003 0.575333,-0.135766 0.826497,-0.2951 0.265441,-0.168391 0.54435,-1.335638 0.666073,-2.787549 l 0.209411,-2.497852 3.390871,-0.214231 c 1.864979,-0.117828 4.374619,-0.301481 5.576978,-0.408119 2.082978,-0.184741 2.202715,-0.246745 2.538177,-1.314345 0.19364,-0.616251 0.629586,-2.446882 0.968771,-4.068067 0.339184,-1.621185 0.818122,-3.024903 1.064305,-3.119373 0.246184,-0.09447 0.96547,0.08658 1.598414,0.402336 0.632944,0.315754 2.490334,1.149436 4.127533,1.852627 l 2.976726,1.278529 0.560255,-0.749309 c 0.30815,-0.41212 0.80628,-1.09472 1.10696,-1.516889 l 0.54669,-0.767579 2.75909,1.309301 c 2.35251,1.11636 2.94776,1.266632 4.03942,1.019745 1.20668,-0.272901 1.39193,-0.516206 3.22061,-4.229934 1.06715,-2.167208 2.04378,-4.043429 2.1703,-4.169379 0.12651,-0.12595 1.04504,0.356528 2.04116,1.072173 l 1.81114,1.301173 2.19217,-1.529893 c 1.20569,-0.841442 3.54154,-2.52602 5.19078,-3.743507 1.64924,-1.217487 3.18902,-2.214905 3.42175,-2.216484 0.23273,-0.0016 2.34668,1.215257 4.69767,2.704081 l 4.27453,2.706953 3.10494,-1.521911 c 1.70771,-0.837052 3.24904,-1.432853 3.42516,-1.324004 0.17612,0.108849 0.86244,1.48058 1.52516,3.048292 0.66271,1.567711 1.3036,2.850384 1.42419,2.850384 0.12058,0 1.61873,-0.473055 3.32921,-1.051234 1.71048,-0.578178 3.2315,-0.976116 3.38005,-0.884306 0.14856,0.09181 0.55968,1.599515 0.91361,3.350456 l 0.6435,3.183528 3.62734,-0.234513 3.62733,-0.234513 v 3.050569 3.050569 l 0.97014,0.05049 c 0.53358,0.02777 2.0417,0.01138 3.35139,-0.03644 l 2.38125,-0.08693 v 2.444388 c 0,2.084348 0.11782,2.555071 0.79989,3.195844 0.66281,0.622674 1.31273,0.769243 3.79236,0.855244 l 2.99247,0.103787 0.10663,1.852084 0.10663,1.852083 h 6.50563 6.50563 l 5.55857,3.208741 c 3.05722,1.76481 6.61417,3.94762 7.90434,4.8507 1.29016,0.90307 3.90954,2.82932 5.82083,4.28054 3.05834,2.32217 3.75595,3.06727 5.81717,6.21324 1.32091,2.01605 2.59449,4.44284 2.92096,5.56584 0.31837,1.09515 1.02224,2.7442 1.56416,3.66454 0.54192,0.92034 1.64952,2.95113 2.46133,4.51286 l 1.47602,2.83951 0.70046,8.42907 c 0.38525,4.63598 0.82073,8.53646 0.96772,8.66773 0.14699,0.13127 1.38388,1.04101 2.74864,2.02163 l 2.48139,1.78296 0.97611,3.89079 0.97611,3.8908 -1.53853,2.92733 c -0.84619,1.61003 -3.47578,6.52987 -5.84354,10.93298 -4.23425,7.87407 -4.32041,8.0799 -5.24235,12.52361 l -0.93734,4.51797 -3.39208,2.1929 c -2.85144,1.84339 -3.72744,2.23178 -5.49607,2.4368 -2.00915,0.2329 -2.22115,0.35666 -4.70389,2.74598 -1.42996,1.37615 -3.67133,4.08959 -4.98082,6.02987 -2.27093,3.36483 -2.54192,3.62746 -5.86675,5.6859 -1.91722,1.18697 -4.92839,2.96843 -6.6915,3.95879 -3.1203,1.75271 -3.33774,1.81736 -8.16675,2.42798 l -4.96109,0.62733 -3.38577,2.91042 -3.38577,2.91041 h -2.5913 c -2.05764,0 -2.91151,-0.17278 -4.1461,-0.83897 z m 46.88227,-51.13332 c 0.17957,-0.22836 0.42762,-1.28833 0.55122,-2.35548 0.12359,-1.06716 0.32475,-2.53559 0.44701,-3.2632 0.19902,-1.18436 0.14357,-1.32291 -0.52941,-1.32291 -0.63292,0 -0.7522,0.20906 -0.75478,1.32291 -0.002,0.72761 -0.10303,2.15516 -0.22521,3.17235 l -0.22215,1.84942 -1.80326,-0.20653 -1.80326,-0.20653 -1.11376,3.38134 -1.11375,3.38133 3.12042,-2.66875 c 1.71623,-1.46781 3.26735,-2.85559 3.44693,-3.08395 z"
       id="path165" /></g></svg>
