<?xml version="1.0" encoding="UTF-8" standalone="no"?>
<!-- Created with Inkscape (http://www.inkscape.org/) -->

<svg
   width="9.3761978in"
   height="8.5088329in"
   viewBox="0 0 238.15542 216.12436"
   version="1.1"
   id="svg1"
   xml:space="preserve"
   xmlns="http://www.w3.org/2000/svg"
   xmlns:svg="http://www.w3.org/2000/svg"><defs
     id="defs1" /><g
     id="layer1"
     transform="translate(-1.2836983,-55.581556)"><path
       d="m 122.2884,255.88085 c -0.23098,-8.73274 -0.51815,-16.78792 -0.63816,-17.9004 -0.12,-1.11248 -0.4989,-5.07458 -0.84198,-8.80466 -0.34308,-3.73008 -0.69599,-8.25437 -0.78423,-10.05397 l -0.16045,-3.27201 h -3.17742 c -2.32007,0 -3.36625,-0.0947 -3.87724,-0.3509 -0.67496,-0.33844 -0.74332,-0.31732 -1.9249,0.59491 -0.67379,0.5202 -1.32585,0.94581 -1.44902,0.94581 -0.12317,0 -1.21172,-0.38255 -2.419,-0.85012 -2.08872,-0.80895 -2.34365,-0.99159 -5.26272,-3.77064 -1.68721,-1.60628 -5.276794,-4.84674 -7.976846,-7.20102 l -4.909186,-4.28052 -0.550295,-2.1879 -0.550296,-2.1879 -3.265234,-3.98017 c -2.837293,-3.45853 -4.177498,-4.80652 -10.225919,-10.28533 -3.828376,-3.46784 -7.080589,-6.2733 -7.227139,-6.23437 -0.146551,0.0389 -1.329709,0.46045 -2.629241,0.93671 l -2.362785,0.86593 -0.217149,2.63274 -0.217149,2.63275 -1.068437,-2.02269 c -0.587641,-1.11248 -1.107914,-2.0645 -1.156162,-2.11559 -0.04825,-0.0511 -2.191781,0.68954 -4.763406,1.64584 -2.571626,0.9563 -5.583909,2.22981 -6.693963,2.83001 l -2.018281,1.09128 -0.07572,1.54623 c -0.04165,0.85043 0.216661,4.08765 0.57402,7.19383 0.357358,3.10618 0.608193,5.76847 0.557411,5.91619 -0.05078,0.14772 -1.977139,-1.64875 -4.280794,-3.99215 -2.890669,-2.94055 -4.281487,-4.53405 -4.488685,-5.14281 -0.165121,-0.48513 -0.374483,-0.88152 -0.465248,-0.88085 -0.09077,6.6e-4 -1.103733,0.51796 -2.251039,1.14955 -1.969936,1.08444 -2.217709,1.31597 -4.452734,4.16073 -2.351617,2.99317 -2.381583,3.04847 -4.695459,8.66646 l -2.328738,5.65406 -1.010396,5.87651 -1.010397,5.8765 v 8.13399 8.13399 L 15.306505,230.54993 8.6189921,224.249 5.397678,215.58758 2.1763638,206.92617 1.7300311,197.24526 1.2836984,187.56435 3.0738576,177.2563 4.8640169,166.94825 9.431431,156.73124 l 4.567414,-10.21701 5.992536,-6.74688 c 3.295895,-3.71079 6.033841,-6.70684 6.084324,-6.65789 0.05048,0.0489 -0.560626,2.91748 -1.358021,6.37451 l -1.449809,6.2855 -0.563063,9.7426 -0.563064,9.7426 0.574006,7.39079 c 0.315702,4.06494 0.606052,7.42793 0.645222,7.47332 0.03917,0.0454 2.182948,-0.59684 4.763952,-1.42719 3.65251,-1.17506 4.666317,-1.58897 4.573554,-1.86725 -0.06555,-0.19665 -0.280581,-0.78587 -0.477845,-1.30939 -0.197263,-0.52352 -1.000726,-4.71156 -1.785473,-9.30676 l -1.426811,-8.35489 0.572234,-7.70766 0.572234,-7.70767 3.088417,-7.11693 3.088418,-7.11694 1.520768,7.23592 c 0.836423,3.97975 1.857608,8.25321 2.2693,9.49657 0.411692,1.24337 1.3926,4.29525 2.179794,6.78197 l 1.431263,4.52132 2.567984,0.15676 c 1.412391,0.0862 3.479081,0.22071 4.592643,0.29885 l 2.024659,0.14207 0.0034,-7.19979 0.0034,-7.1998 2.048,-6.11224 2.048001,-6.11225 2.901192,-4.59612 c 1.595655,-2.52787 3.102104,-4.85151 3.347663,-5.16364 0.435212,-0.5532 0.446297,-0.41216 0.439517,5.59215 l -0.007,6.15966 2.50501,6.86153 2.50501,6.86152 4.373579,2.1229 c 4.084913,1.98277 4.677281,2.19648 8.97501,3.23784 l 4.601431,1.11495 1.791386,1.96081 c 1.769277,1.93661 1.800913,1.95759 2.563282,1.6999 0.547932,-0.18522 0.797384,-0.18678 0.859741,-0.005 0.04832,0.14055 0.42938,0.75551 0.846809,1.36658 l 0.758963,1.11105 1.498173,-1.40249 c 0.823995,-0.77137 2.298757,-2.07559 3.27725,-2.89827 1.314602,-1.10528 2.147526,-1.60354 3.190366,-1.90849 1.24914,-0.36527 1.40391,-0.47868 1.34702,-0.98698 -0.0353,-0.31586 -0.10926,-0.69439 -0.16426,-0.84118 -0.055,-0.14679 -0.82673,-0.39985 -1.71496,-0.56236 -0.88824,-0.16251 -1.614992,-0.34857 -1.614992,-0.41345 0,-0.0649 0.717842,-1.06629 1.595182,-2.22534 l 1.59518,-2.10737 v -5.59416 c 0,-5.28545 0.0299,-5.65386 0.54215,-6.67615 l 0.54213,-1.08201 -2.15149,-2.0959 -2.151503,-2.0959 2.586683,-1.64723 2.58668,-1.64723 0.004,-1.64701 c 0.003,-1.06584 0.12519,-1.77957 0.34683,-2.02269 0.18837,-0.20662 1.39134,-2.64464 2.67328,-5.41781 l 2.33079,-5.04212 -1.19541,-1.85883 c -0.65747,-1.02235 -1.19783,-1.97559 -1.2008,-2.1183 -0.003,-0.14271 1.12658,-0.71851 2.51009,-1.27955 1.38352,-0.56104 2.68114,-1.22342 2.88361,-1.47196 0.20246,-0.24853 1.16835,-1.43961 2.14641,-2.64685 0.97806,-1.207232 1.77872,-2.382365 1.77924,-2.611406 5.3e-4,-0.22904 0.15589,-0.416436 0.34525,-0.416436 0.18936,0 1.8459,-1.803678 3.6812,-4.008174 l 3.3369,-4.008173 v -1.346013 -1.346012 h 1.1537 c 1.14287,0 1.18148,-0.02643 4.11067,-2.813367 l 2.95697,-2.813367 8.00485,-4.13514 8.00485,-4.135141 0.32153,-5.602909 0.32153,-5.60291 1.67109,3.410648 c 0.9191,1.875856 1.76119,3.3745 1.87132,3.330319 0.11012,-0.04418 1.41067,-0.93303 2.89011,-1.975219 l 2.68987,-1.894889 1.34358,-4.649116 1.34358,-4.649116 0.59194,4.100229 0.59195,4.10023 3.096,0.990772 3.096,0.990773 1.59125,2.741635 c 1.43696,2.475814 1.79445,2.906107 3.68712,4.437969 2.05862,1.666184 2.18075,1.725514 6.87157,3.338074 4.59469,1.579516 4.91982,1.7347 8.5784,4.094458 l 3.80271,2.452718 h 3.11859 3.1186 l -1.63081,2.528023 -1.63081,2.528023 2.1946,4.194455 2.19461,4.194455 3.48659,1.201261 3.48659,1.20126 -2.95839,2.868596 -2.9584,2.86859 1.06254,6.2302 1.06254,6.23019 2.72767,2.60949 c 1.50021,1.43522 2.62767,2.60949 2.50545,2.60949 -0.12222,0 -0.16724,0.0862 -0.10005,0.19166 0.0672,0.10541 -1.64987,1.04239 -3.81567,2.08218 -2.89949,1.39202 -3.9963,2.03753 -4.15959,2.44804 -0.12196,0.30664 -0.43696,1.32394 -0.69999,2.26066 -0.26302,0.93673 -1.0883,3.68419 -1.83394,6.10547 -0.74566,2.42128 -1.35755,4.58336 -1.35978,4.80463 -0.002,0.22126 0.58296,1.72215 1.30043,3.33532 l 1.30448,2.93301 -3.91828,1.1772 -3.9183,1.1772 -3.88964,5.67099 -3.88965,5.67099 v 3.58591 3.58592 l -0.67488,-0.10823 c -0.37119,-0.0595 -1.90656,-0.36222 -3.41194,-0.67264 l -2.73705,-0.5644 -7.5703,1.25734 c -4.16367,0.69154 -7.75792,1.3088 -7.98722,1.37169 -0.22931,0.0629 -0.48959,0.34981 -0.57841,0.63759 -0.0888,0.28779 -0.50861,1.21929 -0.93286,2.07002 -0.69585,1.39534 -1.42351,2.14078 -7.43324,7.61484 -5.90568,5.37927 -6.64702,6.1356 -6.53088,6.66298 0.0721,0.32721 0.17749,0.67523 0.23428,0.77339 0.0568,0.0982 1.11564,0.17847 2.353,0.17847 h 2.24975 l 6.7547,-3.71913 6.75471,-3.71912 4.96491,-4.78134 4.9649,-4.78135 0.925,0.83393 c 0.50876,0.45866 1.16673,1.02848 1.46217,1.26627 l 0.53716,0.43234 0.97198,-1.8745 0.97198,-1.8745 7.20303,-0.67353 7.20303,-0.67354 5.5218,-1.5451 c 3.03699,-0.8498 6.02418,-1.65129 6.63821,-1.78109 l 1.1164,-0.23599 0.60149,-7.05089 0.60148,-7.05088 -1.40629,-5.36065 c -0.77347,-2.94835 -1.38086,-5.43412 -1.34978,-5.52392 0.0311,-0.0898 2.70699,1.4612 5.94644,3.44667 l 5.88992,3.60996 2.57684,3.1598 2.57683,3.15981 0.12271,-1.01433 0.12271,-1.01433 5.61604,7.93359 5.61604,7.93359 3.03951,8.84286 3.03951,8.84286 -0.01,9.23967 -0.01,9.23967 -2.99242,8.36965 -2.99242,8.36965 -4.64372,3.68844 c -2.55404,2.02865 -4.72209,3.71865 -4.81789,3.75557 -0.0958,0.0369 -0.31604,-2.74725 -0.48942,-6.18706 l -0.31523,-6.25419 -1.14076,-3.80742 -1.14077,-3.80742 -3.2638,-4.74069 c -2.58631,-3.75663 -3.85837,-5.34299 -6.12818,-7.64229 l -2.86438,-2.9016 -6.38074,-2.27158 c -4.89906,-1.74409 -6.7939,-2.30972 -8.15999,-2.43583 -0.97858,-0.0903 -1.77924,-0.11172 -1.77924,-0.0475 0,0.0642 0.89385,1.92227 1.98634,4.12903 l 1.98635,4.01229 2.49244,10.83708 2.49245,10.83707 -0.24827,10.93662 -0.24828,10.93661 -2.44792,8.20975 -2.44792,8.20975 -3.59598,3.27201 c -1.97779,1.7996 -3.64945,3.272 -3.71481,3.272 -0.0654,0 -0.19805,-3.45345 -0.29487,-7.67433 -0.17514,-7.63493 -0.18087,-7.69755 -1.11609,-12.19565 -0.76068,-3.65864 -1.35367,-5.65641 -3.10787,-10.47041 -1.93599,-5.31287 -2.44313,-6.42897 -4.74205,-10.43627 l -2.57421,-4.48718 -4.41257,-3.72257 c -2.42692,-2.04742 -6.13187,-5.00841 -8.23324,-6.57998 -2.9739,-2.22412 -4.09749,-2.92619 -5.06975,-3.16781 l -1.24909,-0.31042 -3.1051,1.42948 c -2.82437,1.30023 -3.38565,1.6726 -6.20826,4.11873 l -3.10316,2.68927 -2.71692,0.52224 c -1.49431,0.28723 -2.98923,0.52859 -3.32203,0.53635 -0.40198,0.009 -0.99253,-0.3559 -1.75922,-1.08814 l -1.15411,-1.10225 -0.82431,0.49399 c -0.57895,0.34695 -0.84107,0.69275 -0.88061,1.16174 -0.031,0.36726 -0.37996,2.97005 -0.77555,5.78397 -0.39559,2.81393 -0.77459,5.5981 -0.84221,6.18706 -0.0676,0.58896 -0.90254,5.56836 -1.85535,11.06532 -0.95282,5.49697 -2.61962,14.33137 -3.704,19.63202 -1.21954,5.96131 -2.49237,11.40757 -3.33684,14.27783 -0.75088,2.55216 -1.38866,4.66419 -1.4173,4.6934 -0.0286,0.0292 -0.24105,-7.09185 -0.47203,-15.82459 z m 61.67829,-50.42698 c 0,-0.0899 0.55678,-4.01019 1.23728,-8.7117 0.80111,-5.53478 1.21204,-9.14721 1.16571,-10.24742 l -0.0716,-1.69921 -2.20872,-0.277 c -1.2148,-0.15235 -2.6835,-0.2862 -3.26378,-0.29746 -0.93849,-0.0182 -1.78234,0.3961 -7.63821,3.75004 -3.62073,2.07376 -7.07989,4.17311 -7.68703,4.6652 l -1.10387,0.89472 2.559,2.26739 c 2.39759,2.12437 3.00321,2.5049 9.60103,6.03253 3.87312,2.07082 7.12486,3.76992 7.22609,3.77577 0.10123,0.006 0.18406,-0.0629 0.18406,-0.15286 z m -166.718665,-6.62421 3.662939,-5.47891 -1.1411,-1.84394 c -0.627605,-1.01417 -1.210433,-1.91117 -1.295174,-1.99334 -0.08474,-0.0822 -1.53628,0.2037 -3.225641,0.63525 l -3.071566,0.78465 v 0.7176 c 0,0.39468 0.22331,3.08285 0.496245,5.97371 0.272934,2.89086 0.556145,5.61507 0.629357,6.0538 0.07321,0.43874 0.166613,0.75999 0.207558,0.7139 0.04094,-0.0461 1.722766,-2.54932 3.737382,-5.56272 z m 212.691565,-5.63827 0.29137,-4.96694 -0.7117,0.0703 c -0.687,0.0678 -0.7592,0.2033 -2.07991,3.90267 l -1.36821,3.83239 1.70985,1.96787 1.70984,1.96786 0.0787,-0.90359 c 0.0433,-0.49698 0.20982,-3.13872 0.37007,-5.87053 z m -21.7997,-16.49714 c -1.8487,-0.53962 -2.30713,-0.57198 -7.85322,-0.55435 -5.73165,0.0182 -5.85035,0.0282 -4.41744,0.37314 0.81636,0.19649 3.44084,0.43162 5.88991,0.52769 2.42959,0.0953 5.30093,0.18528 6.38075,0.19994 l 1.9633,0.0267 z M 17.335741,176.05036 c 0.0025,-0.1636 -0.185098,-2.03756 -0.416929,-4.16436 -0.231831,-2.1268 -0.486146,-3.86691 -0.565145,-3.86691 -0.079,0 -0.704326,0.56219 -1.389617,1.24931 -1.235082,1.23838 -1.249502,1.27055 -1.648155,3.67768 -0.221195,1.33561 -0.402173,2.64738 -0.402173,2.91506 0,0.45421 0.147341,0.48668 2.208719,0.48668 1.600922,0 2.209979,-0.0819 2.2133,-0.29746 z m 210.462809,-1.43278 c 0.0481,-0.0467 -0.16523,-1.36302 -0.47412,-2.92523 l -0.56163,-2.84039 -0.29289,1.90371 c -0.16109,1.04704 -0.36532,2.4291 -0.45385,3.07125 l -0.16095,1.16754 0.92797,-0.14602 c 0.51038,-0.0803 0.96734,-0.1842 1.01547,-0.23086 z M 52.194646,170.32299 c 2.783719,-1.15398 3.047566,-1.31656 2.992962,-1.84422 -0.03294,-0.31826 -0.119845,-0.82724 -0.19313,-1.13106 -0.109347,-0.45332 -0.252665,-0.53029 -0.799062,-0.42918 -0.366199,0.0678 -1.10756,0.18976 -1.647469,0.27108 -0.895261,0.13485 -1.100442,0.31618 -2.331425,2.06043 -0.742375,1.05192 -1.386585,2.00841 -1.431577,2.12554 -0.04499,0.11713 0.01689,0.21296 0.137526,0.21296 0.120631,0 1.59311,-0.56949 3.272175,-1.26555 z m -12.114544,-4.00748 c -0.670279,-1.16549 -1.245309,-2.08887 -1.277845,-2.05197 -0.03254,0.0369 0.15526,1.40565 0.417325,3.04165 0.262065,1.63601 0.533768,3.13518 0.603785,3.3315 0.08201,0.22993 0.367156,-0.0983 0.801363,-0.92258 l 0.67406,-1.27952 z m 179.704448,-0.25963 c 0.007,-0.22904 -0.0472,-0.41643 -0.12002,-0.41643 -0.0729,0 -0.56983,0.21634 -1.10436,0.48076 -0.78685,0.38923 -0.97188,0.60911 -0.97188,1.15491 0,0.37078 -0.0599,1.35913 -0.13305,2.19633 l -0.13306,1.52218 1.22495,-2.26065 c 0.67372,-1.24336 1.23056,-2.44806 1.23742,-2.6771 z m -132.423903,2.53707 c 0.655105,-0.1682 1.250118,-0.36304 1.322252,-0.43298 0.07213,-0.0699 -0.795167,-1.50994 -1.927338,-3.19999 l -2.058491,-3.07281 -3.822935,-1.45535 c -3.072502,-1.16968 -4.093764,-1.45536 -5.202623,-1.45536 h -1.37969 l 1.016093,1.42778 c 0.558851,0.78528 1.10912,1.42779 1.222819,1.42779 0.113699,0 0.751562,-0.26771 1.417474,-0.59491 0.665912,-0.3272 1.253344,-0.59491 1.305404,-0.59491 0.05206,0 1.408571,1.92395 3.01447,4.27544 2.488156,3.64337 2.992377,4.25368 3.410641,4.12827 0.269954,-0.0809 1.02682,-0.28478 1.681924,-0.45297 z m -17.240982,-1.03977 c 0.948443,-0.66619 0.971318,-0.71019 0.427348,-0.82195 -0.316103,-0.0649 -1.308313,-0.15411 -2.204912,-0.19814 l -1.630179,-0.0801 1.016646,0.89226 c 0.559156,0.49074 1.10043,0.89664 1.202832,0.90201 0.102402,0.005 0.637121,-0.30698 1.188265,-0.69411 z m -52.54096,-9.70705 c 0.0012,-0.62168 0.05778,-1.71929 0.125785,-2.43913 l 0.123651,-1.3088 -0.728711,1.98132 c -0.400791,1.08973 -0.796143,2.18734 -0.878561,2.43913 -0.125642,0.38385 -0.02824,0.45781 0.602926,0.45781 0.734142,0 0.75283,-0.028 0.75491,-1.13033 z"
       id="path165" /></g></svg>
