<?xml version="1.0" encoding="UTF-8" standalone="no"?>
<!-- Created with Inkscape (http://www.inkscape.org/) -->

<svg
   width="9.2890234in"
   height="8.9092846in"
   viewBox="0 0 235.9412 226.29583"
   version="1.1"
   id="svg1"
   xml:space="preserve"
   xmlns="http://www.w3.org/2000/svg"
   xmlns:svg="http://www.w3.org/2000/svg"><defs
     id="defs1" /><g
     id="layer1"
     transform="translate(-2.1801894,-40.418667)"><path
       d="m 82.057285,264.94442 c -0.435987,-0.97355 -0.928917,-2.3779 -1.0954,-3.12077 l -0.302696,-1.35069 -1.289154,0.66121 c -0.709034,0.36367 -1.934519,1.17653 -2.7233,1.80637 -0.78878,0.62983 -1.492362,1.14515 -1.563514,1.14515 -0.07115,0 -0.4901,-0.64856 -0.930995,-1.44125 -0.628587,-1.13014 -0.738213,-1.51985 -0.507856,-1.80537 0.200124,-0.24804 0.238556,-0.9405 0.120564,-2.17226 l -0.173206,-1.80815 1.799898,-1.0084 c 0.989944,-0.55462 1.80066,-1.10806 1.801591,-1.22986 9.31e-4,-0.12181 -1.39717,-1.70368 -3.106891,-3.51526 -2.762285,-2.92687 -3.248726,-3.58353 -4.366574,-5.89456 -1.15037,-2.37826 -1.691099,-3.09007 -6.320685,-8.32047 -2.784482,-3.14584 -6.429622,-7.24894 -8.100311,-9.11799 -2.802303,-3.13504 -3.433191,-3.67945 -8.144014,-7.02765 -2.808518,-1.99615 -5.627806,-3.90195 -6.265084,-4.2351 -0.637279,-0.33316 -1.158688,-0.67051 -1.158688,-0.74967 0,-0.0792 0.296579,-0.66452 0.659064,-1.30078 0.362486,-0.63626 2.220738,-2.66342 4.12945,-4.50479 2.583961,-2.4928 4.500809,-4.05052 7.504531,-6.0985 l 4.034145,-2.75054 4.682993,-1.04121 c 2.575646,-0.57266 5.936009,-1.24193 7.467474,-1.48726 l 2.784482,-0.44606 1.835227,0.95292 1.835227,0.95291 v -2.94491 -2.94491 l -0.967187,-0.9715 c -0.765878,-0.76929 -1.121514,-1.47028 -1.708659,-3.36792 -0.535698,-1.73136 -0.947678,-2.5864 -1.484495,-3.08097 l -0.743022,-0.68454 0.511917,-0.72289 c 0.467159,-0.65969 0.48497,-0.84214 0.203712,-2.08674 -0.169512,-0.75012 -0.777456,-2.17636 -1.350987,-3.16942 -0.80599,-1.39557 -1.042782,-2.07095 -1.042782,-2.97421 0,-1.02553 -0.182049,-1.41288 -1.486601,-3.16306 -1.082612,-1.45242 -1.847407,-2.89709 -2.814295,-5.31609 -0.730231,-1.82692 -1.826875,-4.76916 -2.436987,-6.53832 -0.610111,-1.76916 -1.109294,-3.27749 -1.109294,-3.35186 0,-0.0744 0.740419,0.53349 1.645376,1.35076 0.904957,0.81728 1.643961,1.38377 1.642231,1.25887 -0.0017,-0.1249 -0.275125,-1.22308 -0.607545,-2.4404 -0.33242,-1.21732 -1.358541,-3.85377 -2.280269,-5.85877 l -1.675868,-3.64545 1.081636,1.17175 c 0.5949,0.64447 1.791123,1.99198 2.658273,2.99448 l 1.576637,1.82273 0.0094,-3.77565 0.0094,-3.77565 -1.322245,-3.77565 c -1.006369,-2.87367 -1.759202,-4.49012 -3.151327,-6.76639 -1.005995,-1.6449 -1.786193,-3.03485 -1.733772,-3.08878 0.05242,-0.0539 0.870418,0.0337 1.817771,0.19476 0.947352,0.16104 2.975476,0.72192 4.506941,1.24641 l 2.784482,0.95362 2.648921,3.47822 c 1.456907,1.91302 2.975625,4.0603 3.37493,4.77175 0.399305,0.71144 0.745084,1.29362 0.768398,1.29373 0.02331,1.1e-4 0.01302,-3.25151 -0.02288,-7.22581 l -0.06527,-7.22602 0.952574,-4.55682 0.952573,-4.55681 -3.436195,-5.0776 c -1.889907,-2.79268 -5.274269,-7.62808 -7.520806,-10.74533 -2.246536,-3.11725 -5.723956,-7.569909 -7.727599,-9.894803 -2.003643,-2.324893 -4.448737,-5.312052 -5.433543,-6.63813 -1.536832,-2.069405 -1.919959,-2.810534 -2.703782,-5.230263 l -0.913229,-2.819211 -3.346914,0.449937 c -1.840804,0.247466 -6.271202,0.599873 -9.84533,0.783126 l -6.498415,0.333188 -4.877173,-3.755137 -4.877173,-3.755136 4.899054,-0.194775 c 2.69448,-0.107126 4.943816,-0.240818 4.998523,-0.297093 0.05471,-0.05627 -1.302501,-2.761701 -3.016019,-6.012058 -2.978856,-5.650565 -3.186854,-5.968701 -4.742804,-7.254206 -0.895025,-0.739457 -4.425087,-3.27786 -7.844583,-5.640896 L 6.7020756,52.519114 5.2964841,50.045412 C 4.5234088,48.684876 3.5059844,46.877853 3.0355409,46.029805 L 2.1801892,44.4879 l 1.498945,0.869202 c 0.8244197,0.478061 1.7837215,1.066657 2.1317818,1.307993 0.3480603,0.241335 1.548201,0.924872 2.6669795,1.51897 1.1187784,0.594098 2.1206285,1.080178 2.2263335,1.080178 0.105704,0 1.672669,-0.893647 3.482143,-1.985883 l 3.289952,-1.985883 -0.174056,-2.206632 c -0.138146,-1.75136 -0.101164,-2.254111 0.179245,-2.436754 0.194317,-0.126566 0.865901,-0.230258 1.492409,-0.230425 1.00688,-2.69e-4 1.305701,0.15077 2.574285,1.301173 0.789349,0.715813 2.359469,2.559667 3.489158,4.097454 1.640344,2.232917 2.345372,2.968219 3.500948,3.651281 0.795833,0.470418 2.187389,1.232057 3.092346,1.692533 0.904956,0.460475 1.704138,0.916927 1.775958,1.014337 0.07182,0.09741 2.919586,1.794852 6.328368,3.772093 4.0645,2.357584 6.975348,3.865086 8.45682,4.379708 2.246464,0.78036 2.267147,0.795593 3.717326,2.737649 0.91839,1.229892 1.487799,2.257855 1.537988,2.776552 0.06352,0.656425 2.199039,3.363988 10.519376,13.337182 7.372092,8.836579 10.905188,12.873804 12.0239,13.739564 l 1.584217,1.226011 1.200527,4.054666 c 0.66029,2.230061 1.543097,5.937591 1.961794,8.238941 0.418697,2.30135 0.761268,4.34455 0.761268,4.54044 0,0.21412 -0.302849,0.0577 -0.759404,-0.39225 -0.417673,-0.41162 -0.759405,-0.68031 -0.759405,-0.59709 0,0.0832 0.569554,1.47667 1.265674,3.09653 1.136916,2.6456 1.265674,3.13615 1.265674,4.82202 0,1.31763 0.298374,3.10546 1.001473,6.00072 0.55081,2.26816 1.509219,6.47311 2.129798,9.34433 0.620578,2.87122 1.209704,6.18006 1.309168,7.35298 l 0.180844,2.13258 0.896557,0.25464 c 0.493106,0.14006 1.487369,0.39066 2.209472,0.55689 l 1.312915,0.30223 1.032574,2.24534 c 0.567916,1.23493 1.264466,3.00697 1.547888,3.93786 0.283422,0.9309 0.585242,2.60064 0.67071,3.71056 0.08547,1.10991 0.248273,2.01801 0.361788,2.01801 0.113516,0 0.306988,0.43941 0.42994,0.97647 l 0.223548,0.97646 1.581338,0.0777 c 1.510108,0.0742 1.680756,0.0169 3.788467,-1.27152 1.81538,-1.10977 3.13707,-2.29927 7.44636,-6.70166 l 5.23923,-5.3524 0.0766,1.67652 0.0766,1.67652 3.40284,-4.79681 c 1.87156,-2.63825 3.42887,-4.68882 3.46069,-4.55682 0.0318,0.132 0.1337,0.81681 0.2264,1.52182 l 0.16855,1.28182 3.10277,-3.36279 3.10278,-3.36279 -1.65438,-2.55599 -1.65438,-2.556 0.46215,-5.38804 c 0.41207,-4.80419 0.58943,-5.8536 1.63678,-9.68447 l 1.17464,-4.29643 -1.51197,-3.45797 c -1.49184,-3.41197 -1.50631,-3.46782 -1.08705,-4.19791 l 0.42492,-0.73994 -2.22719,-0.29381 c -1.22496,-0.16159 -2.50049,-0.29381 -2.83451,-0.29381 -0.33402,0 -2.40662,0.61293 -4.60579,1.36206 l -3.99849,1.36205 -2.45753,-2.52797 -2.45753,-2.527961 1.24828,-2.609739 c 0.68655,-1.435356 1.36672,-2.610689 1.5115,-2.611852 0.14478,-0.0012 1.76813,0.362424 3.60746,0.807968 l 3.34422,0.810082 8.93281,-5.539122 c 4.91305,-3.046517 9.53939,-6.063118 10.28076,-6.703557 1.25488,-1.084037 1.87532,-1.34137 8.98628,-3.727107 l 7.63834,-2.562672 6.9612,0.01037 6.96121,0.01037 -2.47738,0.930402 c -1.36256,0.511721 -2.43301,0.976048 -2.37878,1.031837 0.0542,0.05579 6.80764,-0.552643 15.00755,-1.352073 14.48972,-1.412636 15.15096,-1.45449 23.51553,-1.48846 l 8.60658,-0.03495 6.72942,2.202894 6.72943,2.202894 -7.02333,0.879149 -7.02333,0.879148 0.6736,0.575123 c 0.37049,0.316317 4.38726,3.676906 8.92616,7.467974 7.0603,5.897044 8.96246,7.340294 13.16651,9.989994 l 4.91398,3.097148 1.33969,4.66012 c 0.73683,2.56307 1.29496,4.70613 1.2403,4.76237 -0.0547,0.0562 -2.17697,-0.79854 -4.71622,-1.89948 l -4.61683,-2.00172 -11.33281,11.70044 -11.33281,11.70044 -0.85136,5.96357 -0.85136,5.96357 -2.82542,-3.08976 -2.82542,-3.08976 -19.32252,2.97827 -19.32252,2.97827 -12.92182,8.67091 -12.92182,8.67091 -11.01136,10.87622 -11.01136,10.87622 -2.32807,4.12106 c -1.75191,3.10116 -2.77677,4.59706 -4.14113,6.04447 -0.99719,1.05787 -2.4858,2.35054 -3.30802,2.87259 -0.82223,0.52205 -1.45145,0.99394 -1.39827,1.04864 0.0532,0.0547 1.31801,-0.19741 2.81076,-0.56023 1.49275,-0.36283 2.82681,-0.65968 2.96457,-0.65968 0.13777,0 0.2131,0.43532 0.16741,0.96738 l -0.0831,0.96737 2.40478,0.56601 c 1.32263,0.3113 3.54389,1.0132 4.93613,1.55978 2.10583,0.82672 2.96585,1.35178 5.1162,3.12354 1.99096,1.64044 3.03089,2.29711 4.52615,2.8581 l 1.9413,0.72832 2.81475,-0.70997 c 1.54812,-0.39049 3.95387,-1.13836 5.34611,-1.66195 1.39224,-0.52358 2.98699,-1.23729 3.54388,-1.58603 0.5569,-0.34873 1.33409,-1.02823 1.72709,-1.50999 0.67481,-0.82722 0.80503,-0.87594 2.3415,-0.87594 h 1.62695 l -0.004,1.75763 -0.004,1.75763 -2.27424,1.53075 c -1.30214,0.87645 -2.27618,1.7112 -2.27878,1.95292 -0.003,0.25704 -0.99296,1.01832 -2.53135,1.94618 -1.38974,0.8382 -2.5268,1.66617 -2.5268,1.83994 0,0.20211 -1.04875,0.48512 -2.91105,0.78556 -1.60108,0.25829 -2.91105,0.57278 -2.91105,0.69886 0,0.12608 -0.99084,0.22924 -2.20187,0.22924 -1.61719,0 -2.74407,-0.17013 -4.24378,-0.64068 -1.12305,-0.35236 -3.23627,-1.18431 -4.69605,-1.84876 -1.45978,-0.66445 -3.78716,-1.60649 -5.17195,-2.09342 -1.38479,-0.48693 -2.94434,-0.88533 -3.46566,-0.88533 -0.52132,0 -1.00996,0.10335 -1.08585,0.22967 -0.0759,0.12632 -0.88404,0.31185 -1.79588,0.4123 -1.41503,0.15588 -1.81477,0.3225 -2.72883,1.13738 -0.58901,0.52511 -1.0428,1.13051 -1.00842,1.34533 0.0344,0.21482 0.12129,1.85528 0.19312,3.64545 0.0718,1.79018 0.19664,4.22293 0.27737,5.40611 0.11046,1.61886 0.0446,2.4678 -0.26624,3.4304 -0.22717,0.70354 -0.39483,1.96182 -0.37258,2.79617 0.0353,1.32413 -0.1524,1.98049 -1.476383,5.16246 -0.834261,2.005 -2.631143,5.86221 -3.99307,8.57159 -2.172156,4.32122 -2.552889,5.28047 -3.100492,7.81169 -0.459069,2.12197 -0.653194,3.92445 -0.733598,6.81154 l -0.109337,3.926 1.613876,0.7598 1.613876,0.7598 -0.394303,1.99578 c -0.328877,1.66461 -0.56895,2.2049 -1.446825,3.25608 l -1.052521,1.26032 -1.306739,-1.30195 c -0.718707,-0.71607 -1.707237,-2.0343 -2.196733,-2.92938 -0.489497,-0.89509 -0.935875,-1.62744 -0.99195,-1.62744 -0.05608,0 -0.549304,0.90811 -1.096061,2.01802 -0.623982,1.26667 -1.504346,2.53163 -2.364548,3.39753 l -1.370443,1.3795 z m 0.828146,-18.96665 c 0.467447,-1.13139 0.926466,-1.82471 1.366933,-2.06468 0.472003,-0.25716 0.912123,-0.97699 1.526887,-2.49728 l 0.863732,-2.13599 -0.459597,-1.39086 c -0.456304,-1.3809 -0.455304,-1.40538 0.139635,-3.41574 0.329578,-1.11368 0.677265,-2.84509 0.772638,-3.84759 0.09537,-1.0025 0.21341,-2.03326 0.262306,-2.29057 0.06848,-0.36035 -0.289125,-0.63101 -1.556474,-1.17806 l -1.645376,-0.71022 -0.228995,-3.18347 -0.228995,-3.18346 h -1.695026 c -0.932263,0 -2.04605,-0.12588 -2.475081,-0.27973 -0.625953,-0.22446 -1.446042,-0.14059 -4.151213,0.42452 -3.270349,0.68318 -3.462568,0.69452 -6.428095,0.37929 -1.681317,-0.17871 -3.418454,-0.24326 -3.860305,-0.14343 -0.441851,0.0998 -0.79933,0.31866 -0.794396,0.4863 0.0049,0.16764 0.162287,0.5895 0.349674,0.93748 l 0.340704,0.63267 0.416231,-0.82797 c 0.228927,-0.45538 0.496485,-0.82797 0.594573,-0.82797 0.09809,0 1.177315,1.02285 2.39828,2.27298 l 2.219936,2.27299 v 2.55259 c 0,1.59306 0.132582,2.87899 0.352704,3.42092 0.315516,0.77678 0.643063,0.98677 3.106582,1.99164 2.551749,1.04086 2.807924,1.21064 3.490218,2.31308 0.404986,0.65437 1.12221,2.36152 1.593829,3.79366 0.471619,1.43215 1.120697,3.76001 1.442396,5.17303 0.321699,1.41302 0.741025,2.67086 0.931837,2.7952 0.190811,0.12434 0.415274,0.22787 0.498806,0.23006 0.08353,0.002 0.468575,-0.76253 0.855652,-1.69939 z"
       id="path165" /></g></svg>
