<?xml version="1.0" encoding="UTF-8" standalone="no"?>
<!-- Created with Inkscape (http://www.inkscape.org/) -->

<svg
   width="8.8881311in"
   height="11.999999in"
   viewBox="0 0 225.75854 304.79998"
   version="1.1"
   id="svg1"
   xml:space="preserve"
   xmlns="http://www.w3.org/2000/svg"
   xmlns:svg="http://www.w3.org/2000/svg"><defs
     id="defs1" /><g
     id="layer1"
     transform="translate(-10.369343,-0.26784461)"><path
       d="m 114.61386,304.35712 c -4.46264,-0.34008 -11.05077,-0.72998 -14.640279,-0.86644 -5.43422,-0.2066 -7.205305,-0.41651 -10.583333,-1.25436 -2.23132,-0.55343 -5.5239,-1.47707 -7.316846,-2.05253 -1.792946,-0.57546 -4.094821,-1.23863 -5.115278,-1.47371 -1.020457,-0.23508 -3.442876,-0.89812 -5.383154,-1.47341 -1.940277,-0.5753 -4.797777,-1.40417 -6.35,-1.84195 -1.552222,-0.43778 -3.615972,-0.98828 -4.58611,-1.22332 -0.970139,-0.23505 -3.748264,-1.05053 -6.173611,-1.81218 -2.920975,-0.91729 -5.344851,-1.95352 -7.179605,-3.06935 -1.523435,-0.92649 -3.454058,-2.08141 -4.290273,-2.56648 -0.836215,-0.48507 -3.399767,-2.03591 -5.696784,-3.44632 -2.297016,-1.4104 -6.261951,-3.82657 -8.810966,-5.36926 -3.816461,-2.30976 -4.79171,-3.07302 -5.524749,-4.32386 -0.489597,-0.83544 -1.406731,-2.46739 -2.038075,-3.62657 -0.631344,-1.15918 -1.262839,-2.18698 -1.403321,-2.28399 -0.140482,-0.097 -1.153927,-1.82333 -2.2521,-3.83626 -1.098173,-2.01292 -2.385854,-4.23259 -2.861514,-4.93258 -0.475659,-0.7 -0.864834,-1.47782 -0.864834,-1.7285 0,-0.25068 -0.534384,-1.23264 -1.18752,-2.18213 -0.913542,-1.32806 -1.279801,-2.3468 -1.5875,-4.41563 -0.239024,-1.60708 -0.39945,-7.61663 -0.398662,-14.93389 0.0013,-11.85519 0.02513,-12.28389 0.749951,-13.47934 0.411747,-0.6791 0.861285,-1.3141 0.998973,-1.41111 0.137687,-0.097 0.933868,-1.36702 1.76929,-2.82223 0.835422,-1.4552 2.052166,-3.40026 2.703875,-4.32234 0.651709,-0.92208 1.184926,-1.75731 1.184926,-1.85607 0,-0.0988 0.616664,-1.09058 1.370365,-2.20405 0.753701,-1.11346 1.78612,-2.85371 2.294265,-3.86722 0.735032,-1.46604 1.66284,-2.42394 4.538662,-4.68587 1.98812,-1.56373 4.856155,-3.83012 6.373412,-5.03643 1.517257,-1.20631 3.712547,-3.01999 4.878422,-4.0304 1.165875,-1.01041 2.424796,-1.93392 2.797601,-2.05225 0.372805,-0.11832 0.677828,-0.35572 0.677828,-0.52755 0,-0.17183 4.608093,-2.61516 10.240207,-5.42962 8.206454,-4.1009 10.921407,-5.28909 13.670138,-5.98267 1.886462,-0.476 5.334932,-1.36731 7.663265,-1.98067 2.328333,-0.61337 5.106458,-1.35473 6.173611,-1.64749 l 1.940277,-0.53227 -0.112382,-9.23158 c -0.110519,-9.07847 -0.125892,-9.24619 -0.926932,-10.11351 -0.448002,-0.48507 -2.223055,-2.77124 -3.944562,-5.08038 -1.721507,-2.30914 -3.422082,-4.69039 -3.779055,-5.29167 -0.356974,-0.60128 -1.083349,-1.56948 -1.614167,-2.15156 -0.530818,-0.58209 -1.44731,-1.69334 -2.036649,-2.46945 -0.589338,-0.77611 -1.312057,-1.88736 -1.60604,-2.46944 -0.293984,-0.58209 -1.12794,-2.71556 -1.853236,-4.74105 -0.725297,-2.0255 -1.348254,-3.85112 -1.384349,-4.05695 -0.0361,-0.20582 -0.435646,-1.48547 -0.887891,-2.84367 -0.452244,-1.35819 -0.93875,-2.62819 -1.081125,-2.82222 -0.142374,-0.19403 -0.637181,-1.46403 -1.09957,-2.82222 -0.729524,-2.14286 -0.832156,-3.05263 -0.776046,-6.87917 0.03556,-2.42535 0.586138,-8.81503 1.223499,-14.199304 0.637361,-5.38427 1.255519,-9.789583 1.373685,-9.789583 0.118166,0 0.483529,2.420938 0.811918,5.379861 0.328389,2.958924 0.897608,7.999236 1.264931,11.200696 0.367324,3.20146 0.681488,6.75714 0.698143,7.90152 0.02529,1.73756 0.321239,2.68534 1.794639,5.74732 0.970396,2.01665 1.764357,3.80961 1.764357,3.98435 0,0.17475 0.860239,2.11283 1.911644,4.30685 1.051404,2.19402 2.151259,4.57655 2.444123,5.29452 0.292864,0.71797 1.751828,2.82141 3.242143,4.67431 1.490315,1.8529 2.760628,3.3689 2.822917,3.3689 0.06229,0 -0.0428,-0.51593 -0.233538,-1.14652 -0.199065,-0.65813 -0.247824,-2.57416 -0.114464,-4.49792 0.127781,-1.84326 0.531991,-5.09764 0.898245,-7.23194 0.366255,-2.13431 0.66697,-4.34173 0.668257,-4.90537 0.0022,-0.96177 -0.03645,-0.98972 -0.628031,-0.45434 -0.376465,0.34069 -0.939823,0.48955 -1.398647,0.36957 -0.422552,-0.1105 -1.228105,-0.93793 -1.790118,-1.83872 -0.562013,-0.9008 -1.503201,-2.51094 -2.091528,-3.57809 -0.588328,-1.06715 -1.387129,-3.28965 -1.775115,-4.93889 -0.387985,-1.64923 -0.718817,-3.23673 -0.735181,-3.52777 -0.01636,-0.29105 -0.133088,-1.3644 -0.259386,-2.38525 -0.126299,-1.02084 -0.04667,-3.56084 0.176956,-5.64444 0.223624,-2.083603 0.472949,-4.552524 0.554055,-5.486491 0.08395,-0.966716 0.546353,-2.378771 1.07357,-3.278398 l 0.926103,-1.580276 -0.03496,-8.406791 c -0.03087,-7.42409 0.04874,-8.711867 0.681048,-11.016649 0.393802,-1.435422 0.943226,-4.44154 1.220942,-6.680262 0.277716,-2.238723 1.146327,-6.521576 1.930246,-9.517453 0.78392,-2.995876 2.024654,-8.055028 2.757187,-11.242559 l 1.331879,-5.795512 2.47124,-1.118981 c 1.359183,-0.615439 3.622179,-1.315938 5.02888,-1.556665 1.406701,-0.240726 2.557639,-0.564413 2.557639,-0.719304 0,-0.15489 -0.635,-1.368266 -1.411111,-2.69639 -0.776111,-1.328125 -1.411111,-2.684294 -1.411111,-3.013709 0,-0.329416 -0.47625,-0.938058 -1.058334,-1.352538 -0.582083,-0.414479 -1.058333,-0.949773 -1.058333,-1.189541 0,-0.239767 -0.539423,-0.95877 -1.198718,-1.597784 -0.834208,-0.808546 -1.557904,-2.143694 -2.379928,-4.390731 -0.97774,-2.672694 -1.179782,-3.715031 -1.17292,-6.05111 0.0046,-1.552222 0.227006,-3.968601 0.494326,-5.3697312 0.319221,-1.6731674 0.739696,-2.7827281 1.22511,-3.23285 0.406491,-0.3769374 2.307506,-1.7308706 4.224478,-3.0087405 2.00237,-1.3347969 3.86586,-2.32339968 4.379545,-2.32339968 0.491778,0 2.092825,0.56896732 3.557884,1.26437178 l 2.663741,1.2643719 2.689133,-0.4367053 2.68912,-0.4367052 1.55648,1.1857731 c 0.85606,0.6521751 2.2188,2.1884402 3.02832,3.4139224 0.85916,1.3006448 1.63142,2.9956734 1.8552,4.0719767 0.21085,1.014105 0.71882,2.75664 1.12881,3.8723 0.41,1.115659 0.86115,2.028472 1.00257,2.028472 0.14142,0 0.76517,-0.177105 1.38611,-0.393566 0.62094,-0.216461 1.21902,-0.303523 1.32908,-0.193471 0.11005,0.110052 -0.80285,1.515036 -2.02868,3.122185 -1.22582,1.60715 -2.67764,3.848747 -3.22627,4.981327 l -0.99751,2.059238 1.02607,1.29756 c 0.56434,0.713658 1.08563,1.609205 1.15842,1.990104 0.0884,0.462394 0.67058,0.86908 1.75196,1.223756 1.27121,0.41694 1.91005,0.931977 2.96977,2.39426 0.74259,1.024678 1.48115,1.86305 1.64125,1.86305 0.1601,0 0.2911,0.218687 0.2911,0.485971 0,0.267284 0.23659,0.682324 0.52575,0.92231 0.33731,0.279944 0.44845,0.744362 0.31007,1.295713 -0.17522,0.698138 0.0488,1.085787 1.19414,2.066131 0.90154,0.771687 1.84433,2.132526 2.61503,3.774566 0.88501,1.885592 1.47103,4.020566 2.20572,8.035864 0.55028,3.007431 1.37711,7.107951 1.8374,9.112267 0.46029,2.004316 0.83689,4.137518 0.83689,4.740448 0,0.841407 0.76784,-0.415749 3.30317,-5.408101 1.81674,-3.577385 4.67236,-9.173016 6.34582,-12.434736 1.67346,-3.26172 3.7986,-6.887811 4.72253,-8.057979 0.92392,-1.170168 1.86984,-2.470238 2.10204,-2.889044 0.23219,-0.418806 1.22438,-1.707094 2.20486,-2.862863 0.98048,-1.155769 1.78269,-2.306707 1.78269,-2.557639 0,-0.250932 0.13128,-0.456241 0.29174,-0.456241 0.16046,0 1.45331,-1.60272 2.873,-3.5616 1.41969,-1.95888 3.03466,-4.058009 3.58881,-4.664731 0.55416,-0.606722 1.00756,-1.267246 1.00756,-1.467829 0,-0.200584 0.70445,-1.154081 1.56546,-2.118883 0.861,-0.964802 1.66542,-1.654219 1.7876,-1.532038 0.12219,0.122181 -0.20821,1.071371 -0.73422,2.109309 -0.526,1.037939 -1.31222,2.839662 -1.74714,4.003828 -0.43493,1.164167 -1.54226,3.783542 -2.46075,5.820833 -0.91849,2.037292 -2.5024,5.609167 -3.51982,7.9375 -1.01741,2.328333 -2.52403,5.741458 -3.34805,7.584722 -0.82403,1.843264 -1.86199,4.303889 -2.30659,5.468055 -0.44461,1.164167 -2.4699,5.371042 -4.50065,9.348611 -2.03075,3.977569 -5.23376,10.248194 -7.11779,13.934722 -1.88403,3.686527 -3.83191,7.655277 -4.32864,8.819444 -0.77345,1.812742 -0.92752,2.793443 -1.073,6.830041 -0.15183,4.213019 -0.0929,4.887114 0.55513,6.35 0.51678,1.166614 0.84091,3.054988 1.12865,6.575514 0.22201,2.71639 0.40991,5.17701 0.41754,5.46805 0.008,0.29105 -0.1663,1.4023 -0.38653,2.46945 -0.22022,1.06715 -0.74621,3.05153 -1.16886,4.40972 -0.42265,1.3582 -1.21395,3.20138 -1.75845,4.09596 -0.5445,0.89459 -0.99,1.85145 -0.99,2.12637 0,0.27491 -0.24546,0.85028 -0.54546,1.2786 -0.36294,0.51816 -0.86464,0.75665 -1.49931,0.71269 -0.52461,-0.0363 -1.29256,-0.41906 -1.70655,-0.85052 -0.41398,-0.43146 -1.03102,-1.66936 -1.3712,-2.75087 -0.34018,-1.08152 -0.64254,-1.9664 -0.6719,-1.9664 -0.0294,0 -0.66351,0.7299 -1.40921,1.62199 l -1.35581,1.62198 0.58964,4.46344 c 0.3243,2.45488 0.7538,5.8128 0.95445,7.46204 0.23992,1.97199 0.85049,4.24218 1.78342,6.63091 0.78022,1.99776 1.44742,3.82338 1.48264,4.05694 0.0352,0.23356 0.40496,1.29777 0.82162,2.36493 0.41666,1.06715 1.33049,5.21851 2.03073,9.22525 0.70023,4.00674 1.23722,7.41987 1.19331,7.58473 -0.0439,0.16485 0.13362,1.67866 0.39451,3.36401 0.26089,1.68535 0.57236,3.22287 0.69216,3.41669 0.12467,0.20172 3.08112,0.44495 6.91391,0.5688 3.68286,0.11901 9.07735,0.53701 11.98777,0.9289 2.91042,0.39188 9.49854,1.33978 14.64028,2.10643 5.14173,0.76666 10.14236,1.61628 11.1125,1.88804 0.97014,0.27176 4.26106,1.30054 7.31317,2.28618 3.05211,0.98564 5.75341,1.79208 6.00289,1.79208 0.24948,0 2.27668,0.59865 4.50488,1.33033 2.2282,0.73168 4.28898,1.47969 4.5795,1.66224 0.29052,0.18255 2.03677,1.12077 3.88055,2.08493 1.84379,0.96416 4.14609,2.14377 5.11623,2.62137 0.97014,0.4776 1.84326,0.97449 1.94028,1.10421 0.097,0.12971 1.14965,0.82146 2.3392,1.53721 1.18955,0.71576 2.27219,1.30137 2.40588,1.30137 0.13369,0 0.95178,0.48761 1.81798,1.08357 0.8662,0.59596 4.94516,4.44565 9.06436,8.55486 4.1192,4.10921 7.98071,8.10629 8.58114,8.8824 0.60042,0.77612 1.29356,2.04612 1.54031,2.82223 0.24675,0.77611 0.56317,1.56986 0.70317,1.76388 0.14,0.19403 0.49787,1.14653 0.79527,2.11667 0.29739,0.97014 0.88554,2.79577 1.30698,4.05695 0.42145,1.26118 1.18709,3.82239 1.70142,5.69158 0.92155,3.34915 0.92856,3.45935 0.48221,7.58472 -0.24911,2.30241 -0.91872,6.13633 -1.48802,8.51983 -0.56931,2.3835 -1.10952,4.9235 -1.20047,5.64444 -0.0909,0.72095 -0.82551,4.08894 -1.63236,7.48442 -0.80684,3.39549 -1.68326,6.42424 -1.94759,6.73056 -0.26433,0.30632 -0.4806,0.67044 -0.4806,0.80915 0,0.13871 -0.40473,0.68183 -0.89939,1.20694 -0.49467,0.52511 -2.28061,2.76767 -3.96875,4.98346 -1.68815,2.2158 -3.90279,5.02883 -4.92144,6.25119 -1.01865,1.22235 -1.85208,2.34908 -1.85208,2.50383 0,0.15475 -0.71208,1.02448 -1.58239,1.93274 -1.07894,1.12596 -2.7906,2.26248 -5.37987,3.57214 -2.0886,1.05643 -8.81934,4.45378 -14.95719,7.54969 -6.13785,3.0959 -11.61472,5.94561 -12.17083,6.33269 -0.61208,0.42604 -2.68178,1.01664 -5.24444,1.49653 -2.32834,0.43602 -8.44048,1.65138 -13.58255,2.70081 -5.14207,1.04943 -9.7081,1.90805 -10.14674,1.90805 -0.43864,0 -3.74995,0.635 -7.35848,1.41111 l -6.56097,1.41111 -8.86869,-0.0462 c -4.87777,-0.0254 -12.51993,-0.32444 -16.98257,-0.66452 z m -5.5098,-137.44251 c 0.023,-0.60448 0.57727,-2.25523 1.23181,-3.66834 l 1.19006,-2.56927 -0.85124,-2.77184 c -0.46818,-1.52451 -1.15076,-4.16001 -1.51683,-5.85667 -0.36608,-1.69665 -0.92473,-3.69729 -1.24144,-4.44586 -0.31671,-0.74858 -0.63396,-1.30293 -0.70499,-1.2319 -0.071,0.071 -0.23439,1.15773 -0.36302,2.41489 -0.12864,1.25716 -0.29966,2.39218 -0.38006,2.52227 -0.0804,0.13009 -0.54214,3.14836 -1.02609,6.70726 -0.48395,3.55891 -0.8805,6.73951 -0.88124,7.068 -7.3e-4,0.32849 0.91148,1.58357 2.02714,2.78907 l 2.02848,2.19182 0.22284,-1.02518 c 0.12256,-0.56386 0.24163,-1.51977 0.26458,-2.12425 z m -14.025593,1.18138 c -0.348409,-0.34582 -0.38893,-0.3053 -0.197483,0.19748 0.132479,0.34792 0.329739,0.54371 0.438354,0.43509 0.108616,-0.10861 2.24e-4,-0.39327 -0.240871,-0.63257 z m 1.722779,-11.10662 c 0.0015,-0.14552 0.15384,-1.21709 0.338611,-2.38125 0.184771,-1.16417 0.412911,-3.39205 0.506979,-4.95084 0.111772,-1.85217 0.788965,-5.11147 1.954444,-9.40667 0.98088,-3.61487 1.78341,-6.83774 1.78341,-7.16194 0,-0.32419 0.81185,-3.55244 1.80412,-7.17389 0.99226,-3.62144 1.95018,-7.20032 2.12871,-7.95305 0.17853,-0.75274 0.4759,-1.65134 0.66083,-1.99688 0.22796,-0.42596 0.17177,-1.09439 -0.17452,-2.07588 -0.28091,-0.79619 -0.51728,-1.56447 -0.52525,-1.70729 -0.008,-0.14282 -0.35612,-1.28622 -0.77364,-2.54088 -0.41753,-1.25466 -1.19365,-3.01813 -1.72471,-3.91881 -0.53106,-0.90068 -1.29115,-2.33477 -1.68909,-3.18685 -0.39794,-0.85208 -0.9693,-1.85515 -1.269679,-2.22905 -0.30038,-0.373888 -0.661174,-0.56477 -0.801764,-0.42418 -0.140591,0.14059 -0.686018,1.00213 -1.21206,1.91452 -0.526043,0.9124 -1.821538,3.32579 -2.878878,5.36308 -1.05734,2.03729 -2.342854,4.49791 -2.856697,5.46805 -0.513844,0.97014 -1.644961,3.31269 -2.513594,5.20567 -1.278535,2.78626 -1.579332,3.82166 -1.579332,5.43634 0,1.72345 0.241053,2.44171 1.773457,5.28431 0.975401,1.80937 1.768145,3.41114 1.761653,3.5595 -0.0065,0.14835 0.299809,0.90474 0.680668,1.68085 0.495759,1.01025 0.957446,3.66592 1.625251,9.34861 0.51303,4.36562 0.913802,9.02087 0.890604,10.345 -0.03679,2.09988 0.0601,2.4928 0.758234,3.07507 0.440226,0.36716 0.919473,0.67285 1.064994,0.6793 0.145521,0.006 0.265783,-0.10732 0.267249,-0.25284 z M 80.729293,92.254646 c 0.184122,-1.886282 0.531122,-3.051021 1.321951,-4.43726 0.589763,-1.033791 1.585647,-2.552147 2.213075,-3.374123 0.803463,-1.052593 1.281797,-2.21797 1.617689,-3.941212 0.2623,-1.34569 0.444181,-2.566978 0.404181,-2.713973 -0.04,-0.146995 0.08767,-1.02012 0.283716,-1.940278 0.196044,-0.920158 0.84617,-3.502114 1.444723,-5.737681 l 1.088278,-4.064667 -1.26744,-1.92451 c -0.697092,-1.058481 -1.267441,-2.043116 -1.267441,-2.188079 0,-0.144963 -0.480912,-0.512258 -1.068693,-0.816212 -0.587782,-0.303953 -1.222782,-0.457411 -1.411111,-0.341017 -0.18833,0.116394 -0.342418,0.486068 -0.342418,0.821497 0,0.33543 -0.462831,1.953248 -1.028514,3.595153 -0.883922,2.565597 -1.061814,3.729205 -1.265378,8.276947 -0.130274,2.910416 -0.450492,6.164791 -0.711594,7.231944 -0.261101,1.067152 -0.723557,3.408785 -1.027678,5.203629 -0.30412,1.794843 -0.552947,4.226217 -0.552947,5.403053 0,1.176836 0.164336,2.446765 0.36519,2.822065 0.200855,0.3753 0.497842,0.682363 0.659973,0.682363 0.162131,0 0.407128,-1.150937 0.544438,-2.557639 z M 120.66465,80.605553 c 0.10262,-0.432477 0.31407,-1.500698 0.46988,-2.373823 0.15581,-0.873125 0.39649,-3.263874 0.53485,-5.312777 l 0.25156,-3.725277 -1.48257,-4.212222 c -0.81541,-2.316723 -1.8967,-5.78387 -2.40286,-7.704772 -0.71264,-2.704496 -0.97326,-3.301497 -1.15507,-2.645833 -0.12913,0.465694 -0.72247,1.902268 -1.31854,3.192387 -0.59606,1.29012 -1.33103,3.649219 -1.63326,5.242443 -0.30223,1.593224 -0.5495,3.484523 -0.5495,4.202888 0,0.718364 0.39739,2.08989 0.88309,3.047835 0.4857,0.957944 1.03763,1.979843 1.22652,2.270884 0.18888,0.291042 1.21952,2.354792 2.29029,4.586111 1.07078,2.231319 1.95242,4.374444 1.95921,4.7625 0.0114,0.653969 0.0389,0.659874 0.37608,0.08077 0.20005,-0.343633 0.4477,-0.978633 0.55032,-1.411111 z M 99.855988,47.657658 c -0.129352,-0.129352 -0.235185,-0.02352 -0.235185,0.235185 0,0.258703 0.105833,0.364537 0.235185,0.235185 0.129352,-0.129352 0.129352,-0.341019 0,-0.47037 z m 0.470372,-0.64676 c 0,-0.09701 -0.0794,-0.176389 -0.17639,-0.176389 -0.097,0 -0.176389,0.07938 -0.176389,0.176389 0,0.09701 0.07938,0.176389 0.176389,0.176389 0.097,0 0.17639,-0.07937 0.17639,-0.176389 z m 0.35278,-0.705555 c 0,-0.09701 -0.0794,-0.176389 -0.17639,-0.176389 -0.097,0 -0.17639,0.07937 -0.17639,0.176389 0,0.09701 0.0794,0.176389 0.17639,0.176389 0.097,0 0.17639,-0.07937 0.17639,-0.176389 z m 0.35277,-0.705556 c 0,-0.09701 -0.0794,-0.176389 -0.17639,-0.176389 -0.097,0 -0.17638,0.07937 -0.17638,0.176389 0,0.09701 0.0794,0.176389 0.17638,0.176389 0.097,0 0.17639,-0.07937 0.17639,-0.176389 z m 1.76389,-4.586111 c 0,-0.09701 -0.0794,-0.176389 -0.17639,-0.176389 -0.097,0 -0.17639,0.07937 -0.17639,0.176389 0,0.09701 0.0794,0.176389 0.17639,0.176389 0.097,0 0.17639,-0.07937 0.17639,-0.176389 z M 93.858766,34.60488 c -0.129352,-0.129352 -0.235185,-0.02352 -0.235185,0.235185 0,0.258704 0.105833,0.364537 0.235185,0.235186 0.129352,-0.129352 0.129352,-0.341019 0,-0.470371 z m 2.824563,-2.284998 c 0.257416,-0.213637 0.468029,-0.527742 0.468029,-0.698012 0,-0.17027 -0.503437,-0.309582 -1.118749,-0.309582 -0.615313,0 -1.409063,-0.262729 -1.763889,-0.583843 -0.617094,-0.558462 -0.645139,-0.504581 -0.645139,1.239456 v 1.8233 l 1.295859,-0.541445 c 0.712723,-0.297795 1.506473,-0.716238 1.763889,-0.929874 z M 92.314814,21.434024 c 0.101549,-0.388324 0.04069,-0.61708 -0.135244,-0.508347 -0.175933,0.108732 -0.319878,0.426451 -0.319878,0.706042 0,0.279591 0.06086,0.508347 0.135244,0.508347 0.07438,0 0.218329,-0.317719 0.319878,-0.706042 z m -3.745438,-4.762013 c 0.308798,-0.970139 0.709208,-1.950969 0.889799,-2.179622 0.180591,-0.228653 0.358023,-1.220977 0.394294,-2.205164 0.03627,-0.984187 0.04194,-1.789295 0.0126,-1.789128 -0.02934,1.66e-4 -0.398032,0.584498 -0.819312,1.298513 -0.42128,0.714016 -1.076773,2.103079 -1.456653,3.086806 -0.627461,1.624857 -0.649342,1.998513 -0.239022,4.08165 0.427388,2.169788 0.457183,2.217199 0.554257,0.881944 0.05642,-0.776111 0.355242,-2.204861 0.66404,-3.174999 z m 3.995871,-2.822222 c 0,-0.09701 -0.07937,-0.176389 -0.176388,-0.176389 -0.09701,0 -0.176389,0.07937 -0.176389,0.176389 0,0.09701 0.07937,0.176388 0.176389,0.176388 0.09701,0 0.176388,-0.07938 0.176388,-0.176388 z"
       id="path165" /></g></svg>
