<?xml version="1.0" encoding="UTF-8" standalone="no"?>
<!-- Created with Inkscape (http://www.inkscape.org/) -->

<svg
   width="9.3166199in"
   height="11.124357in"
   viewBox="0 0 236.64214 282.55867"
   version="1.1"
   id="svg1"
   xml:space="preserve"
   xmlns="http://www.w3.org/2000/svg"
   xmlns:svg="http://www.w3.org/2000/svg"><defs
     id="defs1" /><g
     id="layer1"
     transform="translate(-2.6859335,-12.685539)"><path
       d="m 120.83692,290.99913 c -0.52531,-2.50691 -0.95286,-5.15873 -0.95011,-5.89292 0.003,-0.73419 -1.03485,-4.94107 -2.30579,-9.34861 -1.90171,-6.59506 -2.52496,-9.4501 -3.52061,-16.1276 -1.19463,-8.01197 -1.20991,-8.26568 -1.21699,-20.19653 -0.004,-6.64546 0.0773,-12.08264 0.18056,-12.08264 0.10324,0 0.76262,0.24021 1.46527,0.53379 0.70266,0.29359 1.34931,0.46205 1.437,0.37436 0.0877,-0.0877 -0.5861,-1.12834 -1.49732,-2.31254 -0.91122,-1.1842 -1.57466,-2.36705 -1.47431,-2.62855 0.10034,-0.2615 1.38477,-2.39675 2.85426,-4.74499 1.4695,-2.34824 2.67111,-4.38979 2.67024,-4.53677 -8.8e-4,-0.14699 -0.874,-1.2452 -1.94028,-2.44047 -1.89959,-2.12939 -1.93869,-2.21656 -1.93869,-4.32153 0,-1.81612 -0.0955,-2.14615 -0.61737,-2.1344 -0.33954,0.008 -2.01342,0.30569 -3.71973,0.66232 -1.7063,0.35663 -3.18404,0.73009 -3.28386,0.82991 -0.0998,0.0998 0.0489,0.73293 0.33052,1.40691 l 0.51201,1.22541 -3.6723,0.45306 c -2.01976,0.24918 -3.72729,0.38959 -3.79451,0.31202 -0.0672,-0.0776 -0.937666,-2.60181 -1.934325,-5.60943 -0.996659,-3.00762 -1.812107,-5.75059 -1.812107,-6.09548 0,-0.34489 0.486644,-1.59111 1.081432,-2.76938 0.594787,-1.17827 1.03135,-2.18441 0.970139,-2.23586 -0.06121,-0.0515 -5.998817,-2.04922 -13.194679,-4.43948 l -13.083386,-4.34591 -6.224151,3.50503 c -4.394834,2.47488 -6.182278,3.66056 -6.081681,4.0342 0.07836,0.29104 0.235888,2.59291 0.350064,5.11528 l 0.207594,4.58611 -1.985064,-3.88056 c -1.091785,-2.1343 -2.037371,-3.93784 -2.101303,-4.00785 -0.06393,-0.07 -5.562292,2.61023 -12.218576,5.9561 -6.656285,3.34586 -12.156575,6.12968 -12.222867,6.18625 -0.06629,0.0566 0.03351,0.37811 0.221775,0.71453 0.27598,0.49315 -0.318174,1.43961 -3.066363,4.8846 l -3.408669,4.27294 -4.891436,11.98699 c -2.69029,6.59285 -5.334668,13.33637 -5.876397,14.98561 -0.541728,1.64924 -1.796229,5.58261 -2.787779,8.74083 -0.99155,3.15822 -1.950283,5.65107 -2.130518,5.53968 -0.1802344,-0.11139 -1.9371198,-2.8895 -3.9041895,-6.17359 l -3.5764902,-5.97105 0.2592745,-8.8126 0.2592745,-8.81259 5.5237638,-12.08773 5.5237639,-12.08774 4.665732,-3.83195 4.665733,-3.83194 v -1.67293 -1.67292 l 11.553473,-2.38127 c 8.142928,-1.67833 12.520573,-2.75732 14.829597,-3.65518 2.285211,-0.88859 3.220895,-1.41783 3.093525,-1.74975 -0.10043,-0.26172 -0.425821,-1.41447 -0.723091,-2.56167 -0.352208,-1.35921 -0.561905,-3.96673 -0.601961,-7.48519 -0.03381,-2.96964 0.06804,-6.70905 0.226321,-8.30977 0.158285,-1.60073 0.375185,-2.91042 0.482001,-2.91042 0.106815,0 0.708011,0.18579 1.33599,0.41287 0.944657,0.34159 1.291139,0.31501 2.006905,-0.15398 0.719057,-0.47114 0.939842,-1.04714 1.307644,-3.41148 0.243385,-1.56455 0.579667,-2.84463 0.747294,-2.84463 0.167627,0 2.690414,0.9525 5.606192,2.11666 2.915779,1.16417 5.595969,2.11667 5.955977,2.11667 0.550224,0 0.732297,-0.49028 1.142232,-3.07576 l 0.487671,-3.07577 1.586921,-0.28698 c 0.872807,-0.15784 1.94411,-0.36427 2.380672,-0.45873 0.693922,-0.15016 0.79375,-0.39275 0.79375,-1.92893 0,-0.96644 0.07747,-1.75716 0.172148,-1.75716 0.09468,0 1.834431,0.8267 3.86611,1.83713 2.031679,1.01042 3.753995,1.76448 3.827368,1.67569 0.07337,-0.0888 0.993648,-1.35206 2.045055,-2.80727 l 1.911649,-2.64583 -0.707693,-6.96089 -0.707692,-6.96089 -2.760804,-2.77524 -2.760805,-2.77524 3.378166,-2.9061 c 1.859354,-1.59952 3.378165,-3.18185 3.378165,-3.51944 0,-0.33734 -0.396875,-1.78021 -0.881944,-3.20637 -0.48507,-1.42616 -0.881945,-2.94347 -0.881945,-3.37179 0,-0.42832 0.648057,-3.45645 1.440126,-6.72918 l 1.440126,-5.95042 -0.58598,-1.88308 c -0.322288,-1.0357 -0.533783,-1.927562 -0.469987,-1.981925 0.0638,-0.05436 0.590136,-0.342354 1.169645,-0.639979 0.877071,-0.450446 1.146415,-0.916441 1.607167,-2.780575 0.533381,-2.15798 0.523927,-2.341441 -0.259902,-5.043545 -0.447379,-1.542257 -0.813417,-3.014492 -0.813417,-3.271634 0,-0.257142 1.61589,-2.88467 3.590866,-5.838952 2.205652,-3.299341 5.172588,-7.1193 7.69114,-9.90242 l 4.10028,-4.530998 -0.80184,-3.75928 c -0.44101,-2.067604 -0.8064,-4.034552 -0.81198,-4.370996 -0.007,-0.400585 1.78583,-1.812611 5.19334,-4.091092 2.86191,-1.913657 5.70564,-3.738778 6.3194,-4.055826 0.84996,-0.439056 1.26236,-1.017292 1.73027,-2.426037 l 0.61433,-1.849587 0.5419,1.144232 c 0.29804,0.629328 0.6478,1.101411 0.77723,1.049073 0.12944,-0.05234 1.96841,-1.039479 4.08661,-2.193649 l 3.85128,-2.09849 2.69792,-7.602899 c 1.48385,-4.181595 3.5179,-10.460399 4.52011,-13.952899 1.00221,-3.492501 1.87115,-6.399659 1.93098,-6.460353 0.0598,-0.06069 0.85162,2.118572 1.75954,4.842813 0.90792,2.724241 2.36689,6.425149 3.24215,8.224241 0.87526,1.799092 1.65135,3.331544 1.72464,3.405448 0.0733,0.0739 1.53502,-0.395195 3.24828,-1.042444 l 3.11501,-1.176815 1.5243,-4.249223 c 0.83837,-2.337073 2.4178,-6.551098 3.50986,-9.364501 l 1.98556,-5.115278 0.58785,7.231945 c 0.35795,4.403676 0.8518,8.141922 1.26278,9.558778 0.58908,2.030828 1.22452,3.004226 4.99505,7.65167 l 4.3201,5.324837 8.70694,2.889472 c 4.78882,1.589209 8.94507,3.094902 9.23611,3.345983 0.29104,0.251081 1.56104,0.566397 2.82222,0.700703 1.26118,0.134305 5.07118,0.922559 8.46667,1.751675 3.6105,0.88162 8.02656,1.693847 10.63672,1.956367 l 4.46311,0.448883 -2.61103,3.246271 c -1.43606,1.78545 -2.60832,3.38688 -2.60502,3.558734 0.003,0.171854 1.87164,3.249337 4.15184,6.838851 l 4.14583,6.526389 4.78971,0.881945 4.78971,0.881944 -3.64988,5.466141 c -3.31904,4.970673 -3.64781,5.610211 -3.62708,7.055556 0.0125,0.874178 0.44993,5.791378 0.97199,10.92711 l 0.9492,9.337696 4.76863,3.89824 4.76863,3.89825 -6.67638,4.20216 -6.67639,4.20215 -4.21845,8.66746 c -2.32015,4.76711 -4.50198,9.31692 -4.84851,10.11071 l -0.63006,1.44325 2.89644,4.56973 2.89644,4.56974 -5.78069,2.06984 -5.78069,2.06985 -5.79537,6.01511 c -4.66718,4.84415 -5.79537,6.20653 -5.79537,6.99842 v 0.98331 h 5.28234 c 4.91767,0 5.70066,-0.0974 11.34165,-1.41111 3.33262,-0.77611 6.27369,-1.41111 6.53571,-1.41111 0.26869,0 0.47641,0.37196 0.47641,0.85309 0,0.4692 0.0964,1.1042 0.21413,1.41111 0.17054,0.44443 0.79894,0.56003 3.08681,0.5679 l 2.87267,0.01 1.75376,3.07693 c 0.96456,1.69232 2.57483,4.8584 3.57837,7.03576 1.52142,3.30097 1.86628,4.42935 2.07528,6.79038 l 0.25065,2.83157 2.67297,3.08739 c 1.47014,1.69806 3.87354,4.42321 5.34089,6.05588 l 2.6679,2.9685 1.95308,7.29235 1.95309,7.29236 -1.61819,4.93771 -1.61818,4.93772 -3.68398,4.37831 -3.68397,4.37832 -0.37761,-5.64216 -0.37761,-5.64215 -2.38378,-4.93889 c -1.81627,-3.76306 -2.65214,-6.03074 -3.51094,-9.525 -0.61994,-2.52236 -1.26534,-4.80615 -1.43423,-5.07508 -0.24586,-0.3915 -0.42938,-0.3268 -0.92078,0.32466 -0.61283,0.81246 -0.61408,0.8109 -0.87626,-1.09536 -0.20518,-1.49187 -0.60662,-2.35612 -1.8373,-3.95547 -0.86611,-1.12558 -1.49695,-2.24925 -1.40186,-2.49705 0.11436,-0.29801 -2.29342,-1.66425 -7.1117,-4.03539 l -7.2846,-3.58485 -8.75022,-2.02124 -8.75022,-2.02125 -7.83033,1.52772 c -7.58862,1.48056 -8.00094,1.60529 -13.35672,4.04066 -3.231,1.46919 -5.35562,2.62156 -5.11527,2.77447 0.2261,0.14385 0.86155,0.26397 1.41211,0.26694 0.55055,0.003 1.99456,-0.55022 3.2089,-1.22932 1.21434,-0.6791 2.41331,-1.23472 2.66437,-1.23472 0.25107,0 1.98207,1.47851 3.84666,3.28559 1.86459,1.80707 5.30284,5.03738 7.64056,7.17846 4.06692,3.72484 4.54249,4.04366 11.0173,7.38594 5.33152,2.75212 6.76942,3.64273 6.77873,4.19862 0.006,0.38806 0.10788,1.06404 0.22529,1.50218 l 0.21347,0.79663 1.21138,-0.74867 c 0.66626,-0.41177 1.26909,-0.69088 1.33963,-0.62024 0.0705,0.0706 0.91734,2.35093 1.88179,5.06732 0.96446,2.71639 2.3305,7.55827 3.03565,10.75973 0.70516,3.20145 2.19821,8.67513 3.3179,12.16371 l 2.03581,6.34289 -2.47082,8.65017 -2.47082,8.65017 -4.21398,3.70417 c -2.31769,2.03729 -4.34778,3.75708 -4.51132,3.82176 -0.16354,0.0647 -0.29735,-6.01177 -0.29735,-13.50322 v -13.62081 l -2.08533,-6.78151 c -1.14693,-3.72982 -2.94146,-8.6865 -3.98784,-11.01483 -1.04639,-2.32834 -3.29698,-6.37646 -5.00131,-8.99584 -1.70434,-2.61937 -3.91824,-5.61101 -4.91979,-6.64809 -1.00155,-1.03707 -4.67851,-4.2075 -8.17101,-7.0454 l -6.35,-5.15981 -3.70416,-0.79377 c -2.83982,-0.60855 -4.87999,-0.79613 -8.74315,-0.8039 l -5.03898,-0.0101 -0.72851,1.23472 c -0.40067,0.6791 -0.80343,1.23472 -0.89502,1.23472 -0.0916,0 -1.19924,-0.73693 -2.46145,-1.63762 l -2.29493,-1.63763 -2.00162,0.42689 c -1.10089,0.23479 -2.53174,0.59183 -3.17966,0.79344 -0.80734,0.25121 -1.2877,0.68111 -1.52651,1.36616 -0.20292,0.58208 -0.64928,1.0452 -1.06867,1.10877 -0.53994,0.0818 -0.88502,0.63894 -1.37871,2.22583 -0.49394,1.58768 -0.65024,3.13055 -0.62542,6.17361 0.0182,2.23132 0.13492,6.24466 0.25939,8.91854 0.21085,4.52978 0.17899,4.90882 -0.46671,5.5535 -0.6888,0.6877 -0.68607,0.72033 0.44803,5.36896 1.03212,4.23066 1.14036,5.18516 1.13397,10.00055 -0.005,4.10837 -0.32704,7.81248 -1.40894,16.22778 -0.77104,5.99736 -2.03427,14.39678 -2.8072,18.66539 -0.77292,4.26862 -2.04711,9.98362 -2.83153,12.70001 -0.78442,2.71638 -1.47488,5.08499 -1.53436,5.26357 -0.0595,0.17858 -0.53795,-1.72642 -1.06325,-4.23333 z m 0.99517,-81.99275 c 0.11992,-0.19403 0.0499,-0.35278 -0.15557,-0.35278 -0.20548,0 -0.3736,0.15875 -0.3736,0.35278 0,0.19403 0.07,0.35278 0.15557,0.35278 0.0856,0 0.25368,-0.15875 0.3736,-0.35278 z m 37.74642,-20.83884 c 4.07169,-1.56595 8.99194,-3.29542 10.93389,-3.84326 1.94194,-0.54784 5.16118,-1.64786 7.15387,-2.44449 1.99268,-0.79662 3.83339,-1.44841 4.09046,-1.44841 0.25707,0 0.76538,0.32927 1.12958,0.73171 0.40105,0.44315 0.94431,0.66837 1.3776,0.57111 0.39347,-0.0883 1.45562,-0.4467 2.36032,-0.79639 l 1.64491,-0.6358 2.76481,1.78584 c 1.65007,1.06581 4.73642,2.5334 7.65484,3.63994 l 4.89004,1.85409 4.0304,-0.17786 c 2.21672,-0.0978 4.10776,-0.25522 4.2023,-0.34976 0.0945,-0.0945 0.0852,-0.39305 -0.0208,-0.66336 -0.10595,-0.2703 -1.41936,-1.28521 -2.91867,-2.25535 -1.49932,-0.97014 -3.04355,-2.09476 -3.43163,-2.49916 -0.47537,-0.49537 -2.17018,-1.09967 -5.19426,-1.85209 -3.8866,-0.96701 -5.10502,-1.11681 -9.08402,-1.11681 h -4.59538 v 1.05834 c 0,0.58208 -0.17751,1.05833 -0.39448,1.05833 -0.21696,0 -1.69192,-0.26707 -3.27769,-0.59348 l -2.88322,-0.59348 -8.45216,2.94645 c -4.64869,1.62054 -10.00063,3.71501 -11.89319,4.65436 -2.88212,1.43051 -3.65566,1.67421 -4.7625,1.50038 -1.18057,-0.1854 -1.45111,-0.073 -2.53721,1.0544 -0.75197,0.78054 -1.02027,1.26192 -0.70333,1.26192 0.28182,0 3.84379,-1.28123 7.91548,-2.84717 z"
       id="path165" /></g></svg>
